<svg version="1.1" xmlns="http://www.w3.org/2000/svg" x="0" y="0" width="76px" height="76px" viewBox="0 0 76 76">
<path fill="#ffffff" d="M26.599609,36.200195l16.100586-16.100586c0.799805-0.799805,2-0.799805,2.799805,0
	c0.799805,0.800781,0.799805,2,0,2.800781L30.799805,37.600098l15.5,15.499512c0.799805,0.799805,0.799805,2,0,2.799805
	c-0.799805,0.800781-2,0.800781-2.799805,0L26.599609,39C25.799805,38.200195,25.799805,37,26.599609,36.200195 M0,38
	C0,17,17,0,38,0s38,17,38,38S59,76,38,76S0,59,0,38 M4,38c0,18.799805,15.200195,34,34,34s34-15.200195,34-34S56.799805,4,38,4
	S4,19.200195,4,38"/>
</svg>
