<?xml version="1.0" encoding="utf-8"?>
<!-- Generator: Adobe Illustrator 23.1.1, SVG Export Plug-In . SVG Version: 6.00 Build 0)  -->
<svg version="1.1" id="Calque_1" xmlns="http://www.w3.org/2000/svg" xmlns:xlink="http://www.w3.org/1999/xlink" x="0px" y="0px"
	 viewBox="0 0 18 18" style="enable-background:new 0 0 18 18;" xml:space="preserve">
<style type="text/css">
	.st0{fill:#9D8A6D;}
</style>
<path class="st0" d="M1,10h13.6l-4.3,4.3c-0.4,0.4-0.4,1,0,1.4s1,0.4,1.4,0l6-6c0.1-0.1,0.2-0.2,0.2-0.3c0.1-0.2,0.1-0.5,0-0.8
	c-0.1-0.1-0.1-0.2-0.2-0.3l-6-6C11.5,2.1,11.3,2,11,2s-0.5,0.1-0.7,0.3c-0.4,0.4-0.4,1,0,1.4L14.6,8H1C0.4,8,0,8.4,0,9S0.4,10,1,10z
	"/>
</svg>
