<svg version="1.1" xmlns="http://www.w3.org/2000/svg" x="0" y="0" width="25px" height="25px" viewBox="0 0 25 25">
<g>
	<path 
		fill="#6b6b6b" 
		d="
			M 12.501953, 24.500977
			L 12.501953, 24.500977
			c -1.842773, 0 -3.553711 -0.914062 -4.577148 -2.444336
			C 6.34375,19.69043, 6.84668, 16.530273, 8.999023, 14.757812
			V 3.999023c0-1.929688,1.570312-3.5,3.5-3.5
			s 3.5,1.570312,3.5,3.5
			v 10.758789
			c 0.413086,0.34082,0.772461,0.739258,1.072266,1.188477
			c 0.81543,1.220703,1.107422,2.686523, 0.821289,4.126953
			c -0.287109,1.441406-1.117188,2.683594 -2.337891,3.499023
			C 14.646484,24.179688,13.59082,24.500977,12.501953,24.500977
			z
		 	M 12.499023,2.499023
		 	c -0.827148,0-1.5,0.672852-1.5,1.5
		 	v 11.259766
		 	c 0,0.333984-0.166992, 0.645508-0.444336, 0.831055
			c -1.605469, 1.073242 -2.039062,3.250977-0.966797,4.855469
			c 0.651367,0.973633,1.740234, 1.555664, 2.914062,1.555664l0,0
			c 0.692383, 0, 1.363281-0.204102,1.941406-0.59082
			c 0.777344-0.519531,1.304688-1.30957,1.487305-2.226562
			s -0.003906 -1.849609 -0.522461-2.626953
			c -0.256836-0.384766-0.581055 -0.709961-0.96582-0.966797
			c -0.277344-0.185547-0.443359 -0.49707-0.443359-0.831055
			V 3.999023
			C 13.999023, 3.171875, 13.326172, 2.499023, 12.499023, 2.499023
			z
		"
	/>
</g>
</svg>
