<?xml version="1.0" encoding="utf-8"?>
<!-- Generator: Adobe Illustrator 15.1.0, SVG Export Plug-In . SVG Version: 6.00 Build 0)  -->
<!DOCTYPE svg PUBLIC "-//W3C//DTD SVG 1.1//EN" "http://www.w3.org/Graphics/SVG/1.1/DTD/svg11.dtd">
<svg version="1.1" id="Calque_1" xmlns="http://www.w3.org/2000/svg" xmlns:xlink="http://www.w3.org/1999/xlink" x="0px" y="0px"
	 width="25px" height="25px" viewBox="0 0 25 25" enable-background="new 0 0 25 25" xml:space="preserve">
<g>
	<path fill="#FFFFFF" d="M12.501953,24.500977L12.501953,24.500977c-1.842773,0-3.553711-0.914062-4.577148-2.444336
		C6.34375,19.69043,6.84668,16.530273,8.999023,14.757812V3.999023c0-1.929688,1.570312-3.5,3.5-3.5s3.5,1.570312,3.5,3.5v10.758789
		c0.413086,0.34082,0.772461,0.739258,1.072266,1.188477c0.81543,1.220703,1.107422,2.686523,0.821289,4.126953
		c-0.287109,1.441406-1.117188,2.683594-2.337891,3.499023C14.646484,24.179688,13.59082,24.500977,12.501953,24.500977z
		 M12.499023,2.499023c-0.827148,0-1.5,0.672852-1.5,1.5v11.259766c0,0.333984-0.166992,0.645508-0.444336,0.831055
		c-1.605469,1.073242-2.039062,3.250977-0.966797,4.855469c0.651367,0.973633,1.740234,1.555664,2.914062,1.555664l0,0
		c0.692383,0,1.363281-0.204102,1.941406-0.59082c0.777344-0.519531,1.304688-1.30957,1.487305-2.226562
		s-0.003906-1.849609-0.522461-2.626953c-0.256836-0.384766-0.581055-0.709961-0.96582-0.966797
		c-0.277344-0.185547-0.443359-0.49707-0.443359-0.831055V3.999023C13.999023,3.171875,13.326172,2.499023,12.499023,2.499023z"/>
</g>
</svg>
