<?xml version="1.0" encoding="utf-8"?>
<!-- Generator: Adobe Illustrator 15.1.0, SVG Export Plug-In . SVG Version: 6.00 Build 0)  -->
<!DOCTYPE svg PUBLIC "-//W3C//DTD SVG 1.1//EN" "http://www.w3.org/Graphics/SVG/1.1/DTD/svg11.dtd">
<svg version="1.1" id="Calque_1" xmlns="http://www.w3.org/2000/svg" xmlns:xlink="http://www.w3.org/1999/xlink" x="0px" y="0px"
	 width="669.661133px" height="512.878418px" viewBox="0 0 669.661133 512.878418"
	 enable-background="new 0 0 669.661133 512.878418" xml:space="preserve">
<g>
	<path fill="#EAB9A4" d="M402.912109,300.722168c21.525391-10.533203,41.34082-24.8125,58.223633-41.824219
		c8.267578-8.332031,15.770508-17.402344,22.638672-26.915039c7.148438-9.90332,14.945312-21.077148,18.055664-33.032227
		c3.666016-14.086914-0.84668-30.238281-16.178711-34.615234c-13.47168-3.84668-25.970703,3.328125-34.662109,13.208984
		c-16.304688,18.537109-27.681641,41.759766-32.438477,65.979492c-2.368164,12.052734-3.449219,24.444336-2.65332,36.71582
		c0.833984,12.859375,3.381836,27.099609,16.123047,33.443359c12.200195,6.072266,26.957031,2.320312,38.308594-3.884766
		c11.180664-6.111328,20.817383-15.283203,30.266602-23.722656c37.768555-33.736328,71.556641-71.804688,100.972656-113.015625
		c33.086914-46.353516,66.43457-99.595703,68.087891-158.234375c0.150391-5.3125-3.972656-10.799805-9.176758-12.051758
		c-18.567383-4.468262-32.151367,8.914062-42.232422,22.65918c-9.780273,13.335938-18.720703,27.285156-26.996094,41.597656
		c-16.999023,29.400391-31.071289,60.351562-44.083008,91.6875c-6.297852,15.167969-12.28418,30.466797-18.333008,45.736328
		c-5.24707,13.246094-10.370117,26.581055-13.947266,40.392578c-3.948242,15.242188-6.349609,31.386719-6.37793,47.150391
		c-0.014648,8.878906,2.640625,17.246094,9.911133,22.732422c6.650391,5.021484,15.469727,6.326172,23.513672,4.460938
		c17.754883-4.117188,28.775391-23.974609,37.785156-38.175781c8.925781-14.066406,16.615234-28.871094,25.460938-42.989258
		c-2.490234,1.915039-4.979492,3.830078-7.469727,5.745117c10.889648-3.453125,22.182617-5.597656,33.438477-7.458984
		c4.485352-0.742188,8.981445-1.398438,13.482422-2.036133c2.935547-0.416992-2.868164,0.352539-0.342773,0.047852
		c0.557617-0.068359,1.115234-0.144531,1.673828-0.214844c0.566406-0.073242,1.134766-0.142578,1.704102-0.208984
		c6.704102-0.787109,12.5-5.181641,12.5-12.5c0-6.144531-5.750977-13.291992-12.5-12.5
		c-8.821289,1.036133-17.625,2.333984-26.375977,3.847656c-6.798828,1.175781-13.580078,2.495117-20.283203,4.138672
		c-2.942383,0.72168-5.908203,1.458984-8.785156,2.410156c-6.34082,2.09668-8.894531,6.438477-12.152344,11.821289
		c-8.046875,13.305664-15.285156,27.083008-23.765625,40.12793c-4.435547,6.822266-8.826172,13.876953-14.339844,19.535156
		c-0.685547,0.703125-2.399414,2.277344-2.658203,2.464844c-1.245117,0.908203-2.367188,1.382812-2.785156,1.527344
		c-0.274414,0.095703-2.823242,0.714844-1.467773,0.355469c1.123047-0.296875-0.731445-0.041016-0.889648-0.091797
		c1.908203,0.609375-0.098633-0.015625-0.419922-0.113281c-2.023438-0.613281-0.376953,0.242188-0.138672,0.126953
		c-0.350586,0.169922-0.192383-1.205078,0.066406-0.009766c-0.088867-0.414062-0.161133-2.763672-0.144531-3.845703
		c0.078125-4.708984,0.40332-9.427734,0.84668-14.117188c0.668945-7.066406,1.876953-14.066406,3.529297-21.154297
		c3.526367-15.111328,9.03418-29.639648,14.729492-44.042969c12.961914-32.776367,25.911133-65.548828,41.518555-97.181641
		c8.917969-18.072266,18.625-35.769531,29.429688-52.788086c5.460938-8.600586,11.072266-17.260742,17.322266-25.31543
		c1.888672-2.431641,4.768555-5.806641,7.586914-7.866211c0.748047-0.545898,2.391602-1.443359,2.835938-1.606445
		c0.642578-0.234375,1.373047-0.451172,2.052734-0.549805c-0.880859,0.128906-2.001953-0.28418,0.455078,0.307617
		c-3.05957-4.017578-6.118164-8.035156-9.177734-12.054688c-1.246094,44.1875-24.150391,84.285156-47.56543,120.456055
		c-23.53418,36.358398-50.65918,70.25-80.895508,101.258789c-15.069336,15.454102-30.808594,30.503906-47.520508,44.185547
		c-6.386719,5.228516-14.762695,11.191406-22.94043,11.023438c-0.546875-0.009766-3.018555-0.535156-2.230469-0.072266
		c-0.347656-0.203125-1.161133-1.708984-0.576172-0.669922c-1.650391-2.931641-0.506836-1.152344-0.425781-0.818359
		c-1.236328-5.091797-1.547852-7.419922-1.773438-13.220703c-0.759766-19.607422,3.161133-39.341797,11.902344-57.073242
		c4.326172-8.776367,9.561523-17.311523,16.037109-24.672852c2.420898-2.751953,4.978516-5.767578,8.257812-6.826172
		c1-0.322266,2.141602-0.066406,2.080078,0.045898c0.212891,0.063477,0.426758,0.12793,0.639648,0.192383
		c-0.419922-0.007812-0.78418-0.15332-1.091797-0.436523c0.009766-0.045898-0.775391-0.524414-0.37793-0.664062
		c0.418945-0.147461-0.827148,6.088867-0.924805,6.397461c-0.804688,2.517578-2.03418,4.807617-3.319336,7.115234
		c-2.749023,4.94043-5.786133,9.730469-8.982422,14.391602c-6.042969,8.811523-12.901367,16.998047-20.368164,24.641602
		c-15.75293,16.12207-34.047852,29.152344-54.287109,39.054688c-6.063477,2.966797-7.712891,11.583984-4.485352,17.103516
		C389.427734,302.42334,396.826172,303.700684,402.912109,300.722168"/>
	<path fill="#EAB9A4" d="M212.873047,68.335449c51.477051-10.939453,102.123047-25.485352,151.557617-43.53125
		c-4.706055-6.120117-9.411133-12.241211-14.117188-18.363281c-35.808594,64.241211-71.618652,128.481445-107.427734,192.722656
		c-35.196777,63.140625-69.956055,126.742188-110.929688,186.394531c-18.804199,27.373047-38.991211,53.738281-60.897949,78.708984
		c-4.861328,5.539062-9.941406,11.185547-15.804199,15.697266c-5.599121,4.310547-9.599121,6.462891-15.588867,7.832031
		c-0.625,0.142578-1.276367,0.294922-1.913086,0.367188c0.324707-0.037109,1.552734-0.119141,0.143066-0.123047
		c-0.645996,0-4.432129-0.279297-2.28125,0.095703c-0.510742-0.089844-3.419922-0.902344-1.719727-0.232422
		c-0.723145-0.285156-1.547363-0.767578-2.207031-1.210938c1.057129,0.708984-0.197266-0.152344-0.54834-0.492188
		c-3.411621-3.289062-4.833008-10.386719-5.398926-15.341797c-7.657715-67.007812,46.550293-118.158203,94.293945-155.818359
		c42.414062-33.455078,87.552246-63.958984,132.829102-93.399414c2.118164-1.37793,4.23291-2.764648,6.395996-4.069336
		c13.76123-8.299805,1.208008-29.924805-12.617676-21.587891c-17.35498,10.466797-33.984375,22.333984-50.726074,33.736328
		c-25.958008,17.678711-51.711914,35.708984-76.756348,54.666016C64.190918,325.999512,5.484863,376.925293,0.37207,450.780762
		c-1.183105,17.080078-0.10498,38.046875,11.676758,51.5625c10.850098,12.443359,28.402832,12.732422,42.651855,6.716797
		c15.15918-6.400391,26.757324-18.585938,37.276367-30.863281c11.805664-13.779297,23.258789-27.818359,34.263672-42.248047
		c45.333008-59.441406,82.579102-124.484375,118.975098-189.623047c37.597168-67.289062,75.059082-134.651367,112.587891-201.976562
		l14.09668-25.289062c4.938477-8.857422-3.40332-22.273926-14.115234-18.362793
		c-49.435059,18.046387-100.081055,32.591309-151.558105,43.530762c-6.605957,1.404297-10.443359,9.144531-8.72998,15.376953
		C199.375977,66.442871,206.248047,69.743652,212.873047,68.335449"/>
	<path fill="#EAB9A4" d="M286.465332,273.749512c19.108887-17.685547,36.333008-37.212891,53.48877-56.759766
		c-6.963867-4.053711-13.927734-8.107422-20.89209-12.162109c-14.531738,38.609375-29.023926,77.380859-37.792969,117.785156
		c-1.85498,8.548828,3.735352,14.966797,12.054199,15.824219c18.006836,1.849609,33.606934-9.896484,45.712891-21.839844
		c12.25-12.083984,23.34082-25.318359,33.417969-39.259766c9.620117-13.308594,18.130859-27.421875,25.405273-42.147461
		c3.988281-8.073242,7.599609-16.341797,10.915039-24.713867c3.393555-8.574219,6.34375-17.724609,3.826172-26.978516
		c-3.00293-11.029297-13.759766-20.064453-25.572266-17.640625c-10.836914,2.224609-19.655273,14.144531-15.428711,25.189453
		c2.410156,6.300781,8.416016,10.641602,15.375977,8.730469c6.030273-1.658203,11.155273-9.039062,8.730469-15.37793
		c0.799805,2.09082-1.407227,5.131836-3.291016,5.777344c1.447266-0.495117-3.624023-0.170898-3.703125-0.126953
		c-0.268555-0.108398-0.404297-0.305664-0.407227-0.59668c0.478516,1.425781,0.570312,1.816406,0.275391,1.169922
		c0.015625,1.375-0.183594,2.164062-0.46875,3.457031c-1.563477,7.102539-5.166992,14.234375-8.188477,20.824219
		c-6.725586,14.671875-14.666992,28.783203-23.704102,42.157227c-8.609375,12.743164-18.289062,24.672852-28.906738,35.799805
		c-9.247559,9.691406-20.314941,21.980469-33.98877,20.576172c4.01709,5.273438,8.035156,10.546875,12.052734,15.820312
		c8.769043-40.404297,23.26123-79.173828,37.792969-117.783203c4.386719-11.654297-12.878906-21.291992-20.891602-12.162109
		c-17.157227,19.546875-34.380371,39.075195-53.490234,56.759766
		C256.954102,267.022949,274.665039,284.669434,286.465332,273.749512"/>
	<path fill="#EAB9A4" d="M631.787109,369.233887c-109.929688-8.095703-220.59082-5.5-330.010254,7.855469
		c-31.534668,3.849609-62.96582,8.527344-94.24707,14.074219c-6.650879,1.179688-10.398926,9.302734-8.72998,15.376953
		c1.927246,7.013672,8.705078,9.912109,15.375977,8.730469c107.433105-19.048828,216.6875-27.466797,325.773438-25.335938
		c30.645508,0.597656,61.269531,2.046875,91.837891,4.298828c6.741211,0.496094,12.5-6.101562,12.5-12.5
		C644.287109,374.556152,638.546875,369.731934,631.787109,369.233887"/>
	<polygon fill="#EAB9A4" points="237.636719,461.333496 245.956055,461.333496 245.956055,496.200684 259.171875,496.200684 
		259.171875,502.515137 237.636719,502.515137 	"/>
	<polygon fill="#EAB9A4" points="312.153809,461.214355 312.153809,467.587402 296.695801,467.587402 296.695801,478.384277 
		310.383789,478.384277 310.383789,484.755371 296.695801,484.755371 296.695801,496.14209 312.153809,496.14209 
		312.153809,502.515137 288.376953,502.515137 288.376953,461.214355 	"/>
	<path fill="#EAB9A4" d="M385.548828,461.333496h16.697266c4.208008,0,7.521484,1.021484,9.94043,3.066406
		c2.418945,2.046875,3.628906,4.642578,3.628906,7.789062c0,4.601562-2.675781,7.689453-8.023438,9.263672
		c2.713867,0.392578,4.886719,1.5625,6.518555,3.509766s2.449219,4.199219,2.449219,6.755859
		c0,3.224609-1.219727,5.830078-3.658203,7.818359c-2.439453,1.984375-5.743164,2.978516-9.912109,2.978516h-17.640625V461.333496z
		 M393.868164,467.70459v10.679688h7.492188c1.848633,0,3.313477-0.462891,4.395508-1.386719s1.623047-2.232422,1.623047-3.923828
		s-0.541016-3.009766-1.623047-3.953125s-2.546875-1.416016-4.395508-1.416016H393.868164z M393.868164,496.14209h8.37793
		c1.847656,0,3.333008-0.501953,4.455078-1.503906c1.119141-1.003906,1.680664-2.390625,1.680664-4.160156
		s-0.571289-3.166016-1.710938-4.189453c-1.141602-1.021484-2.635742-1.533203-4.484375-1.533203h-8.318359V496.14209z"/>
	<polygon fill="#EAB9A4" points="447.498047,461.333496 455.817383,461.333496 455.817383,496.200684 469.033203,496.200684 
		469.033203,502.515137 447.498047,502.515137 	"/>
	<path fill="#EAB9A4" d="M517,502.927246c-5.938477,0-10.93457-1.984375-14.986328-5.958984
		c-4.051758-3.972656-6.076172-9.015625-6.076172-15.132812c0-6.115234,2.035156-11.160156,6.106445-15.134766
		c4.070312-3.970703,9.06543-5.958984,14.985352-5.958984s10.90625,1.988281,14.957031,5.958984
		c4.050781,3.974609,6.077148,9.019531,6.077148,15.134766c0,6.117188-2.026367,11.160156-6.077148,15.132812
		C527.935547,500.942871,522.939453,502.927246,517,502.927246 M526.085938,491.628418
		c2.320312-2.457031,3.481445-5.730469,3.481445-9.822266s-1.161133-7.355469-3.481445-9.794922
		c-2.321289-2.4375-5.349609-3.65625-9.085938-3.65625c-3.737305,0-6.776367,1.228516-9.116211,3.685547
		c-2.339844,2.458984-3.509766,5.722656-3.509766,9.794922c0,4.070312,1.169922,7.335938,3.509766,9.792969
		c2.339844,2.458984,5.378906,3.689453,9.116211,3.689453C520.736328,495.317871,523.764648,494.087402,526.085938,491.628418"/>
	<path fill="#EAB9A4" d="M571.988281,496.909668c-4.052734-3.972656-6.077148-9.007812-6.077148-15.103516
		c0-6.097656,2.035156-11.130859,6.105469-15.105469c4.071289-3.970703,9.057617-5.958984,14.957031-5.958984
		c4.484375,0,8.46582,1.142578,11.947266,3.421875c3.481445,2.283203,5.96875,5.488281,7.463867,9.617188h-9.970703
		c-1.849609-3.617188-4.996094-5.427734-9.44043-5.427734c-3.736328,0-6.775391,1.230469-9.116211,3.6875
		c-2.339844,2.458984-3.509766,5.722656-3.509766,9.794922c0,4.070312,1.169922,7.335938,3.509766,9.792969
		c2.34082,2.458984,5.212891,3.6875,8.614258,3.6875c3.402344,0,6.078125-0.833984,8.024414-2.507812
		c1.948242-1.669922,3.157227-3.921875,3.628906-6.753906h-13.688477v-6.314453h22.597656v6.314453
		c-0.708008,4.482422-2.911133,8.40625-6.608398,11.769531c-3.698242,3.363281-8.348633,5.044922-13.954102,5.044922
		C580.867188,502.868652,576.039062,500.884277,571.988281,496.909668"/>
</g>
</svg>
