
<svg version="1.1" xmlns="http://www.w3.org/2000/svg" xmlns:xlink="http://www.w3.org/1999/xlink" x="0px" y="0px"
	 width="280.176758px" height="45.354004px" viewBox="0 0 280.176758 45.354004" preserveAspectRatio="none">
<g>
	<path 
		fill="#fbbda2" 
		d="
			M 259.058594,32.200684l-0.070312-0.001953l-0.101562-0.018555
		c-0.495117,0.049805-1.024414,0.077148-1.540039,0.094727c-0.048828,0.075195-0.089844,0.128906-0.102539,0.155273
		c-2.462891,0.337891-6.092773-0.045898-8.881836,0.4375c0.469727,0.051758-0.4375,0.047852-0.871094,0.092773
		c1.832031-0.043945,3.537109-0.081055,4.758789-0.131836l-0.083008,0.03418c1.302734-0.03125,5.005859-0.183594,8.123047-0.292969
		l-1.231445-0.371094V32.200684z"/>
	<path 
		fill="#fbbda2" 
		d="
			M 243.390625,33.07666c0.941406-0.033203,1.916016-0.061523,2.881836-0.085938
		c0.580078-0.056641,1.058594-0.119141,1.102539-0.207031c-1.298828-0.007812-2.637695-0.001953-3.984375,0.006836
		C243.392578,32.885254,243.392578,32.980957,243.390625,33.07666"/>
	<path 
		fill="#fbbda2" 
		d="
			M 10.435547,38.693848c0.330078,0.204102,0.890625,0.21875,1.420898,0.246094
		C11.443359,38.746582,11.007324,38.664551,10.435547,38.693848"/>
	<path 
		fill="#fbbda2" 
		d="
			M 11.867676,38.944824c0.001953-0.000977,0.005859-0.001953,0.007812-0.00293
		c-0.006836,0-0.012207-0.000977-0.019043-0.000977C11.861328,38.942871,11.864258,38.942871,11.867676,38.944824"/>
	<path 
		fill="#fbbda2" 
		d="
			M 8.922852,32.895996c-0.294922-0.198242-0.610352-0.28418-1.023926-0.261719
		C8.132812,32.841309,8.538574,32.861816,8.922852,32.895996"/>
	<path 
		fill="#fbbda2" 
		d="
			M 8.930176,32.900879c0.000977-0.000977,0.003906-0.001953,0.005859-0.00293
		c-0.005859,0-0.009277-0.000977-0.013184-0.000977C8.925781,32.898926,8.928223,32.898926,8.930176,32.900879"/>
	<path 
		fill="#fbbda2" 
		d="
			M 273.114258,32.353027c-0.09082,0.005859-0.195312,0.010742-0.300781,0.016602
		C272.914062,32.374512,273.017578,32.374512,273.114258,32.353027"/>
	<path 
		fill="#fbbda2" 
		d="
			M 279.963867,32.914551c-0.06543,0.005859-0.140625,0.011719-0.21582,0.019531
		C279.820312,32.937988,279.894531,32.936035,279.963867,32.914551"/>
	<path 
		fill="#fbbda2" 
		d="
			M 216.796875,44.342285c0.171875,0.207031,0.469727,0.227539,0.75,0.261719
		C217.331055,44.404785,217.101562,44.318848,216.796875,44.342285"/>
	<polyline 
		fill="#fbbda2" 
		points="217.553711,44.608887 217.557617,44.60498 217.547852,44.604004 217.553711,44.608887"
	/>
	<path 
		fill="#fbbda2" 
		d="
			M 62.502441,0.01123c-0.748047,0.00293-1.53125,0.005859-2.333008,0.008789
			c -0.799805,0.025391-1.620117,0.050293-2.439941,0.075195
			C 56.910156,0.125,56.089355,0.155273,55.285156,0.185059
			c -0.802734,0.046387-1.587891,0.105957-2.338867,0.161133
			c -1.50293,0.114258-2.867676,0.226074-3.949707,0.396973
			c -0.709961-0.157715-1.640137-0.037109-2.359375-0.041992
			c 0.410156,0.058105,0.302246,0.21582-0.005859,0.230957
			c -2.154785,0.148926-0.123047,0.13623-2.266113,0.442871
			c -0.611816,0.113281-1.666016,0.24707-2.939941,0.385254
			c -0.207031,0.021973-0.426758,0.047852-0.644043,0.07373
			c -3.757812-0.09082-7.717773-0.097656-11.426758-0.181641
			c 0.067871-0.114258,0.956055-0.169922,1.84668-0.226074
			c -0.565918-0.01416-1.429688,0.004883-1.94873-0.083984
			c 1.01416,0.214844-1.774902,0.112793-0.97998,0.208984
			c -3.10498,0.427734-7.093262-0.046875-9.831055,0.23584
			c -0.144043,0.239258-2.108887,2.55127-3.763184,4.573242
			c -0.316895-0.026367-0.631836-0.049316-0.943848-0.068359
			l -2.597168-0.864746l-0.416016,0.003906
			c 0,0-1.541016,1.481934-2.431641,3.220215
			c -0.324219,0.631836-0.559082,1.296875-0.603027,1.937988
			c -0.5,0.228027-1.040039,0.48877-1.580078,0.802734
			c -0.930176,0.530273-1.815918,1.241211-2.375,2.012207
			l -0.780273,0.331055
			c -0.196777,0.087891-0.393555,0.176758-0.541992,0.242676
			c -0.140625,0.073242-0.23584,0.121094-0.23584,0.121094
			l -0.045898,0.177246c0,0,0.416992,0.269043,1.112793,0.634766
			c -0.028809,0.00293-0.058594,0.003906-0.087891,0.006836
			L 1.254395,14.40332
			l -0.272949,0.058105
			c 0,0-2.810059,6.609863,1.080078,7.949707
			l -0.056152,0.190918l0.553223-0.025879
			c 0.017578,0.09082,0.036621,0.182129,0.058594,0.270996
			c -0.544922-0.171875-1.122559-0.244141-1.874023-0.210938
			c 0.438477,0.193848,1.172363,0.208984,1.880371,0.230957
			c 0.001953,0.01123,0.005859,0.021973,0.008789,0.033203
			c -0.095703,0.321777-0.173828,0.658691-0.219727,1
			c -0.252441,1.839355,0.396973,3.797363,3.984863,4.281738
			L 6.3125,28.379395
			l1.284668-0.101562
			c -0.005859,0.100586-0.010742,0.200195-0.014648,0.300781
			c -1.043945-0.134766-2.13916-0.154297-3.563965-0.044922
			c 0.837891,0.157227,2.23584,0.092773,3.563965,0.046875
			c -0.065918,1.616211,0.123047,3.232422,1.012695,3.847656
			L 8.5625,32.619629l0.278809-0.017578
			c 0.04834,0.085938,0.106934,0.170898,0.169922,0.254883
			c -0.025879,0.014648-0.051758,0.027344-0.074707,0.041016
			c 0.038086,0.003906,0.074707,0.008789,0.112793,0.013672
			c 0.212891,0.267578,0.518066,0.517578,0.917969,0.748047
			c -0.207031,1.900391-0.07373,4.09375,1.42627,4.818359
			l -0.040039,0.19043l0.551758-0.03125
			c 0.664062,0.086914,0.966309-0.137695,0.925293,0.052734
			l -0.908203-0.012695
			c 0.666992,0.047852,0.204102,0.154297-0.046875,0.264648
			c 0.278809,0.015625,0.548828,0.035156,0.771973,0.089844
			c 0.128906-0.073242-0.099121-0.076172-0.203125-0.117188
			c 0.355957-0.071289,0.850098-0.255859,1.288086-0.173828
			c 0.683105,0.011719,0.051758,0.308594,0.848145,0.320312
			c 4.19873,0.099609,8.269043,0.274414,12.507812,0.182617
			c 0.099121,0.077148-0.016113,0.076172-0.138184,0.112305
			c 1.276367-0.09668,2.412109-0.079102,3.573242-0.177734
			c 0.325195,0.081055,0.416016,0.198242,0.51416,0.276367
			c -0.196289-0.15625,6.419922-0.246094,6.524902-0.206055
			l 0.072754-0.344727
			c 1.258301-0.019531,0.375977,0.389648,1.536133,0.291016
			c 0.442871-0.491211,1.933105,0.02832,2.329102-0.234375
			c -0.008301,0.038086,0.562012,0.046875,0.528809,0.199219
			c 0.167969-0.266602,0.584961-0.068359,0.941895-0.139648
			c 0.012207-0.007812,0.008301-0.010742,0.01416-0.017578
			c 0.226074,0.007812,0.453125,0.016602,0.679199,0.024414
			c -0.004395,0.000977-0.007324,0.001953-0.012207,0.001953
			c 0.104004,0.00293,0.231934,0.007812,0.371094,0.011719
			c 2.462891,0.086914,4.925781,0.165039,7.403809,0.222656c0.036133,1.099609,0.540039,2.080078,1.939941,2.602539
			l -0.099609,0.185547l0.922852,0.030273c1.091797,0.157227,1.631836-0.03125,1.531738,0.152344l-1.509766-0.111328
			c 1.102051,0.120117,0.313965,0.174805-0.125,0.257812c0.461914,0.044922,0.90918,0.09375,1.27002,0.173828
			c 0.228027-0.05957-0.149902-0.087891-0.317871-0.138672c0.605957-0.032227,1.460938-0.161133,2.175781-0.03125
			c 1.135254,0.084961,0.03418,0.311523,1.35791,0.411133c3.488281,0.295898,6.930176,0.530273,10.383301,0.768555
			c 3.45166,0.25,6.922852,0.413086,10.472656,0.522461c0.154297,0.084961-0.036621,0.075195-0.244629,0.102539
			c 2.14502-0.009766,4.041016,0.110352,5.994629,0.069336c0.535156,0.098633,0.675293,0.219727,0.830078,0.302734
			c -0.154785-0.083008,2.537109-0.055664,5.290039-0.00293c1.375977,0.032227,2.768066,0.063477,3.827148,0.086914
		c1.059082,0.018555,1.783691,0.036133,1.828125,0.046875l0.148926-0.341797c2.105957,0.027344,0.597656,0.40332,2.549805,0.34668
		c0.77832-0.474609,3.233887,0.099609,3.915039-0.148438c-0.016113,0.038086,0.937012,0.066406,0.873047,0.217773
		c0.298828-0.259766,0.98291-0.044922,1.585938-0.105469c0.220215-0.073242-0.157715-0.079102-0.318848-0.162109l1.378906-0.085938
		c0.537109,0.087891,0.666992,0.242188,0.081055,0.269531c0.900879,0.021484,2.656738,0.061523,4.844727,0.112305
		c2.188965,0.040039,4.810059,0.104492,7.441406,0.102539c2.630859,0.012695,5.270996,0.016602,7.495605,0.006836
		c2.224121-0.010742,4.033203-0.066406,5.001953-0.112305c-0.505859-0.191406-1.699707-0.03418-2.163574-0.339844
		c1.019043-0.194336,1.510742,0.03418,1.957031-0.158203c0.409668,0.458984,2.255859,0.070312,3.052734,0.529297l0.283203-0.268555
		l0.51709,0.152344c4.499023-0.363281,1.024902-0.134766,5.025391-0.179688c2.3125-0.106445,3.388672-0.504883,4.683594-0.40625
		c-0.141602,0.001953-0.454102-0.076172-0.378906-0.152344c0.147461-0.003906,0.296875-0.008789,0.444336-0.015625
		c0.084961,0.005859,0.189453,0.001953,0.313477-0.009766c0.423828,0.085938,0.541992,0.203125,0.666992,0.282227
		c-0.253906-0.15918,8.554688-0.141602,8.694336-0.099609l0.110352-0.344727c1.674805,0.000977,0.484375,0.395508,2.033203,0.316406
		c0.610352-0.484375,2.572266,0.058594,3.109375-0.197266c-0.012695,0.038086,0.746094,0.056641,0.696289,0.208008
		c0.234375-0.263672,0.780273-0.058594,1.259766-0.125c0.173828-0.072266-0.12793-0.079102-0.256836-0.15918l1.09668-0.088867
		c0.427734,0.085938,0.53125,0.242188,0.06543,0.269531c2.862305,0.103516,16.604492,0.405273,19.689453,0.285156
		c-0.395508-0.201172-1.348633-0.070312-1.707031-0.384766c0.81543-0.173828,1.200195,0.06543,1.560547-0.118164
		c0.30957,0.467773,1.791016,0.118164,2.404297,0.592773l0.236328-0.264648l0.40332,0.164062
		c3.586914-0.262695,0.820312-0.130859,3.999023-0.057617c1.838867-0.03418,2.716797-0.398438,3.739258-0.258789
		c-0.152344-0.00293-0.556641-0.166992-0.080078-0.232422c0.080078,0.232422,1.270508-0.162109,1.500977,0.072266
		c0.46582-0.027344,1.979492,0.007812,1.46875-0.311523c0.256836,0.15918,1.604492,0.229492,0.800781,0.364258
		c0.455078,0.009766,0.895508,0.05957,1.223633-0.009766l-0.583984-0.089844c1.538086-0.041016,2.374023,0.207031,3.376953-0.076172
		l-0.567383-0.12793c0.919922-0.016602,1.688477-0.038086,2.046875,0.277344l-0.944336,0.092773
		c1.523438-0.00293,2.444336-0.020508,3.714844-0.183594l-0.453125-0.009766
		c1.621094-0.307617,10.088867-0.537109,11.583008-0.924805l-0.142578-0.050781
		c0.085938-0.003906,0.177734-0.007812,0.270508-0.012695c0.005859,0.02832,0.009766,0.057617,0.016602,0.085938
		c-0.126953,0.150391-0.242188,0.274414-0.295898,0.240234c0.099609,0,0.220703-0.000977,0.349609-0.001953
		c0.118164,0.462891,0.290039,0.839844,0.536133,1.072266l-0.024414,0.19043l0.292969-0.025391
		c0.351562,0.09375,0.514648-0.125977,0.490234,0.0625l-0.482422-0.021484c0.354492,0.054688,0.107422,0.15625-0.026367,0.262695
		c0.146484,0.019531,0.290039,0.041992,0.407227,0.100586c0.069336-0.073242-0.051758-0.079102-0.106445-0.120117
		c0.19043-0.068359,0.454102-0.246094,0.685547-0.15918c0.361328,0.017578,0.023438,0.308594,0.445312,0.330078
		c2.225586,0.146484,4.380859,0.367188,6.629883,0.324219c0.051758,0.079102-0.009766,0.075195-0.075195,0.111328
		c0.678711-0.082031,1.280273-0.052734,1.897461-0.137695c0.170898,0.084961,0.217773,0.203125,0.268555,0.282227
		c-0.101562-0.158203,3.407227-0.172852,3.463867-0.130859l0.041992-0.344727c0.667969-0.004883,0.194336,0.393555,0.810547,0.30957
		c0.242188-0.487305,1.025391,0.049805,1.238281-0.208008c-0.004883,0.038086,0.296875,0.052734,0.277344,0.205078
		c0.09375-0.264648,0.311523-0.061523,0.500977-0.128906c0.069336-0.073242-0.049805-0.079102-0.101562-0.158203l0.435547-0.09375
		c0.171875,0.084961,0.213867,0.240234,0.02832,0.268555c1.140625,0.094727,6.615234,0.347656,7.842773,0.21582
		c-0.157227-0.199219-0.537109-0.063477-0.680664-0.37793c0.325195-0.175781,0.478516,0.061523,0.621094-0.123047
		c0.125,0.46582,0.713867,0.111328,0.959961,0.583984l0.092773-0.263672l0.161133,0.161133
		c1.428711-0.275391,0.327148-0.133789,1.592773-0.072266c0.733398-0.040039,1.081055-0.407227,1.489258-0.272461
		c-0.060547-0.001953-0.22168-0.164062-0.032227-0.231445c0.032227,0.231445,0.504883-0.166016,0.597656,0.068359
		c0.185547-0.029297,0.788086,0.000977,0.584961-0.317383c0.101562,0.15918,0.638672,0.223633,0.319336,0.361328
		c0.181641,0.008789,0.357422,0.055664,0.487305-0.014648l-0.233398-0.088867
		c0.612305-0.045898,0.946289,0.200195,1.345703-0.086914l-0.226562-0.125977
		c0.366211-0.019531,0.671875-0.043945,0.816406,0.269531l-0.375977,0.097656
		c0.606445-0.008789,0.972656-0.029297,1.478516-0.196289l-0.180664-0.008789
		c0.644531-0.313477,4.016602-0.572266,4.612305-0.964844L255.4375,43.45459c0.162109-0.037109,0.299805-0.089844,0.422852-0.138672
		c-0.080078,0.206055-0.202148,0.677734-0.242188,0.615234c1.09375-0.022461,6.788086-0.211914,7.798828-0.046875
		c0.408203,0.133789,0.074219,0.385742,0.069336,0.424805c0.496094-0.091797,0.213867-0.258789,0.635742-0.238281
		c0.115234,0.043945-0.023438,0.191406-0.087891,0.226562c0.185547-0.029297,0.356445,0.054688,0.370117-0.05957
		c-0.230469-0.087891-0.132812-0.389648-0.230469-0.585938l0.542969,0.026367l-0.024414,0.191406
		c0.120117,0.005859,0.306641-0.522461,0.839844-0.420898c0.900391,0.083008,1.876953,0.017578,2.78125,0.060547
		c-0.013672,0.115234-0.204102,0.182617-0.394531,0.25c0.121094,0.004883,0.307617-0.023438,0.417969,0.058594
		c-0.217773-0.203125,0.380859-0.134766,0.209961-0.219727c0.661133-0.46582,1.519531-0.041016,2.104492-0.357422
		c0.013672-0.116211,0.118164-0.727539,0.258789-1.556641c0.669922-0.014648,1.200195-0.010742,1.444336,0.024414
		c0.391602,0.123047,0.09375,0.383789,0.091797,0.422852c0.459961-0.105469,0.18457-0.265625,0.581055-0.254883
		c0.111328,0.041016-0.009766,0.191406-0.069336,0.227539c0.172852-0.033203,0.338867,0.045898,0.345703-0.067383
		c-0.223633-0.082031-0.150391-0.387695-0.254883-0.580078l0.510742,0.010742l-0.009766,0.192383
		c0.113281,0.001953,0.253906-0.530273,0.760742-0.442383c0.848633,0.058594,1.760742-0.035156,2.611328-0.014648
		c-0.006836,0.114258-0.179688,0.186523-0.354492,0.259766c0.115234,0.00293,0.286133-0.032227,0.395508,0.046875
		c-0.216797-0.196289,0.348633-0.145508,0.182617-0.224609c0.591797-0.484375,1.421875-0.081055,1.951172-0.413086
		c0.020508-0.420898,0.716797-7.233398,0.68457-7.731445c0.170898,0.003906,0.34082,0.007812,0.396484,0.047852
		c-0.052734-0.117188-0.390625-0.163086-0.564453-0.09082l-0.012695,0.267578
		c-0.404297,0.106445-0.106445-0.154297-0.504883-0.125977c-0.035156-0.217773,0.330078-0.274414,0.652344-0.304688
		c-0.293945-0.016602-0.59375-0.167969-0.697266,0.074219c-0.280273-0.083008,0.012695-0.268555-0.322266-0.352539
		c-0.231445,0.071289-0.526367,0.294922-0.804688,0.173828l0.00293-0.039062c-0.670898-0.207031-0.984375,0.359375-1.597656,0.15332
		l0.060547-0.074219c-0.22168-0.120117-0.626953,0.061523-1.018555-0.0625c0.112305,0.041016,0.216797,0.197266-0.011719,0.229492
		c-0.448242-0.125-0.739258,0.020508-1.071289-0.140625l-0.294922,0.223633c-0.27832,0-0.708008,0.016602-1.227539,0.042969
		c0.050781-0.303711,0.082031-0.513672,0.080078-0.586914c0.236328,0.007812,0.47168,0.014648,0.545898,0.054688
		c-0.064453-0.117188-0.530273-0.168945-0.775391-0.100586l-0.038086,0.268555
		c-0.56543,0.098633-0.135742-0.157227-0.689453-0.134766c-0.03418-0.21875,0.474609-0.269531,0.923828-0.293945
		c-0.405273-0.022461-0.811523-0.178711-0.970703,0.0625c-0.383789-0.087891,0.036133-0.267578-0.423828-0.356445
		c-0.324219,0.066406-0.75,0.28418-1.126953,0.157227l0.006836-0.038086c-0.916016-0.217773-1.389648,0.34375-2.226562,0.126953
		l0.088867-0.073242c-0.296875-0.124023-0.874023,0.051758-1.407227-0.079102c0.152344,0.042969,0.287109,0.200195-0.03125,0.228516
		c-0.614258-0.132812-1.027344,0.007812-1.477539-0.158203l-0.423828,0.21875
		c-0.71875-0.007812-2.154297,0.029297-3.820312,0.084961c0.03418-0.085938,0.086914-0.223633,0.151367-0.40332
		c0.243164-0.021484,0.482422-0.053711,0.713867-0.111328c0.049805,0.072266,0.027344,0.074219,0.018555,0.112305
		c0.213867-0.125977,0.445312-0.138672,0.635742-0.263672c0.09668,0.069336,0.162109,0.179688,0.211914,0.25293
		c-0.100586-0.145508,1.172852-0.40332,1.209961-0.368164l-0.124023-0.333008
		c0.242188-0.050781,0.231445,0.365234,0.421875,0.240234c-0.110352-0.485352,0.394531-0.022461,0.366211-0.286133
		c0.014648,0.038086,0.130859,0.03125,0.18457,0.177734c-0.072266-0.259766,0.088867-0.080078,0.131836-0.158203
		c-0.005859-0.075195-0.050781-0.072266-0.102539-0.144531l0.12207-0.121094c0.09668,0.070312,0.174805,0.216797,0.119141,0.256836
		c0.454102,0.011719,2.553711-0.125,2.949219-0.336914c-0.139648-0.180664-0.222656-0.025391-0.402344-0.317383
		c0.046875-0.19043,0.199219,0.026367,0.175781-0.161133c0.235352,0.439453,0.306641,0.057617,0.587891,0.494141l-0.073242-0.259766
		l0.125,0.144531c0.408203-0.364258,0.063477-0.152344,0.551758-0.179688c0.25-0.09082,0.228516-0.467773,0.431641-0.365234
		c-0.022461,0.001953-0.147461-0.143555-0.105469-0.22168c0.105469,0.22168,0.116211-0.194336,0.246094,0.024414
		c0.055664-0.041016,0.287109-0.053711,0.084961-0.344727c0.100586,0.144531,0.323242,0.169922,0.262695,0.324219
		c0.068359-0.003906,0.152344,0.02832,0.171875-0.047852l-0.121094-0.068359c0.204102-0.087891,0.425781,0.125977,0.455078-0.178711
		l-0.132812-0.104492c0.125-0.044922,0.226562-0.088867,0.40625,0.203125l-0.097656,0.119141
		c0.217773-0.050781,0.342773-0.095703,0.459961-0.291992l-0.069336,0.004883c0.108398-0.34668,1.233398-0.830078,1.291016-1.249023
		l-0.198242-0.216797l0.102539-0.231445c-0.022461,0.000977,0.231445,0.77832,0.180664,0.705078
		c0.389648-0.098633,2.389648-0.675781,2.825195-0.587891c0.204102,0.101562,0.18457,0.367188,0.198242,0.404297
		c0.144531-0.123047-0.026367-0.263672,0.134766-0.272461c0.060547,0.03418,0.069336,0.185547,0.060547,0.222656
		c0.054688-0.040039,0.151367,0.029297,0.111328-0.081055c-0.120117-0.068359-0.207031-0.367188-0.322266-0.548828
		l0.208984-0.011719l0.067383,0.18457c0.047852-0.00293-0.099609-0.523438,0.137695-0.461914
		c0.360352,0.017578,0.69043-0.115234,1.039062-0.134766c0.041016,0.110352-0.000977,0.1875-0.042969,0.266602
		c0.046875-0.00293,0.101562-0.043945,0.175781,0.027344c-0.162109-0.178711,0.083984-0.15625-0.012695-0.225586
		c0.052734-0.495117,0.537109-0.145508,0.623047-0.490234c-0.09082-0.242188-0.943359-2.674805-1.664062-4.709961
		c-0.032227-1.217285-0.30957-2.44043-1.113281-3.231445c0.40918-0.924805,3.34082-6.835938,3.490234-7.299805
		c0.22168,0.036133,0.443359,0.070801,0.500977,0.120117c-0.026367-0.123047-0.453125-0.22998-0.706055-0.191895l-0.112305,0.257812
		c-0.56543,0.028809-0.083984-0.169922-0.616211-0.214844c0.029297-0.219238,0.527344-0.207031,0.961914-0.178223
		c-0.378906-0.069824-0.72168-0.271973-0.941406-0.055176c-0.337891-0.131836,0.110352-0.257812-0.302734-0.401855
		c-0.328125,0.026855-0.791992,0.188965-1.116211,0.02002l0.015625-0.038086c-0.81543-0.322754-1.40918,0.166992-2.15332-0.131836
		l0.104492-0.062988c-0.25293-0.153809-0.84668-0.042969-1.324219-0.229004c0.134766,0.059082,0.223633,0.228027-0.086914,0.223145
		c-0.552734-0.197266-0.982422-0.101074-1.37207-0.313965l-0.455078,0.169922c-0.28418-0.033203-0.698242-0.070312-1.1875-0.10791
		c1.253906-1.943359,2.926758-5.720215-2.111328-6.807129l0.116211-0.187988l-1.368164,0.006836
		c-1.636719-0.11377-2.401367,0.098145-2.285156-0.09082l2.246094,0.050781c-1.646484-0.074707-0.493164-0.162109,0.138672-0.261719
		c-0.686523-0.027344-1.353516-0.058105-1.899414-0.123047c-0.327148,0.068848,0.235352,0.082031,0.491211,0.125977
		c-0.888672,0.055664-2.12793,0.219727-3.203125,0.119141c-1.6875-0.038086-0.099609-0.309082-2.068359-0.354004
		c-4.488281-0.119141-8.916992-0.25-13.345703-0.368164c0.327148-0.02002,0.671875-0.035156,1.004883-0.047852
		c-0.916992,0.000977-1.830078-0.078125-2.402344,0.009766c-0.299805-0.006836-0.599609-0.015137-0.900391-0.022949
		c-0.011719-0.078125,0.083984-0.164062-0.691406-0.201172c-0.389648,0.036133-0.831055,0.099121-1.290039,0.15332
		c-4.392578-0.105957-8.805664-0.191406-13.300781-0.228027c-0.237305-0.082031,0.046875-0.076172,0.351562-0.106934
		c-3.164062,0.042969-5.972656-0.020996-8.853516,0.027832c-0.796875-0.094238-1.013672-0.213867-1.24707-0.295898
		c0.121094,0.041992-0.87207,0.061035-2.413086,0.064941c-0.047852-0.005859-0.097656-0.013184-0.158203-0.019043
		c-0.101562,0.004883-0.208008,0.011719-0.317383,0.02002c-0.869141,0-1.880859-0.00293-2.945312-0.009277
		c-1.037109-0.104004-1.880859-0.069824-2.686523-0.019043c-1.027344-0.007812-2.046875-0.017578-2.989258-0.028809
		l0.135742-0.038086c-0.789062-0.14209-2.360352-0.003906-3.787109-0.167969c0.250977,0.033203,0.477539,0.10791,0.414062,0.163086
		c-0.835938-0.01416-1.369141-0.025879-1.414062-0.033203l-0.015625,0.027344
		c-1.174805-0.065918-2.097656-0.024902-3.05957-0.181152l-0.849609,0.140137c-0.021484,0-0.037109,0-0.05957,0
		c-0.017578,0.006836-0.041016,0.011719-0.05957,0.019043l-0.195312,0.031738
		c-1.40625-0.044922-3.833984-0.059082-6.777344-0.081055c-0.035156-0.015625-0.053711-0.033691-0.040039-0.053711
		c-0.038086,0.021973-0.085938,0.037109-0.133789,0.052734c-1.595703-0.008789-3.339844-0.02002-5.152344-0.026855
		c-7.245117-0.193848-29.962891-0.687012-35.332031-0.628906c0.731445,0.208984,2.504883,0.094727,3.167969,0.416992
		c-1.519531,0.156738-2.229492-0.088867-2.902344,0.087891c-0.569336-0.474121-3.327148-0.151855-4.461914-0.63916
		l-0.442383,0.259277l-0.748047-0.170898c-6.671387,0.192871-1.525391,0.114746-7.431641-0.019043
		c-3.367676-0.001953-5.004883,0.333008-6.865723,0.191895c0.317871,0.030762,0.862793,0.176758,0.055664,0.228027
		c-0.144043-0.23291-2.361816,0.137695-2.786621-0.102051c-0.869141,0.019043-3.678223-0.044922-2.736328,0.283203
		c-0.47168-0.164062-2.978027-0.260254-1.481934-0.379395c-0.844727-0.019043-1.664062-0.075684-2.274902-0.012695
		l1.083984,0.101074c-2.85791,0.010742-4.408203-0.253418-6.276855,0.010742l1.051758,0.13916
		c-1.708008-0.000977-3.136719,0.004883-3.798828-0.316895l1.755859-0.075195
		c-2.833008-0.025879-4.541992-0.026855-6.907715,0.11084l0.841797,0.019043
		c-2.533203,0.231934-14.042969,0.315918-19.312012,0.550293c-0.165039-0.018066-0.323242-0.05127-0.460938-0.119141
		l0.022949-0.036133c-1.085938-0.443848-1.917969,0.032227-2.913086-0.358887l0.140137-0.053223
		c-0.338867-0.180664-1.14502-0.129883-1.790039-0.365723c0.183105,0.072754,0.302734,0.25293-0.118164,0.21582
		C84.679199,1.088379,84.096191,1.15332,83.5625,0.917969l-0.619141,0.141113c-0.688965-0.094727-1.89502-0.230957-3.35791-0.384766
		c-1.471191-0.10791-3.201172-0.235352-4.930176-0.362305c-1.733887-0.071777-3.467773-0.142578-4.944824-0.203613
		c-1.477051-0.025391-2.695801-0.04541-3.398926-0.057129l0.111816-0.030273C65.887207,0.018066,65.28125-0.00293,64.622559,0
		C63.962402,0.003418,63.250488,0.007324,62.502441,0.01123 M247.375,32.784668
		c-0.043945,0.086914-0.521484,0.149414-1.103516,0.205078c-0.964844,0.025391-1.939453,0.053711-2.879883,0.087891
		c0.001953-0.09668,0.001953-0.192383,0-0.287109C244.737305,32.780762,246.075195,32.775879,247.375,32.784668
		 M252.166016,32.862793l0.083008-0.03418c-1.22168,0.050781-2.928711,0.087891-4.760742,0.131836
		c0.435547-0.044922,1.339844-0.041016,0.869141-0.094727c2.789062-0.481445,6.415039-0.097656,8.876953-0.435547
		c0.013672-0.026367,0.046875-0.080078,0.095703-0.155273c0.515625-0.017578,1.026367-0.044922,1.523438-0.094727l0.133789,0.017578
		c0.000977,0.000977,0.072266,0.000977,0.072266,0.000977l1.230469,0.371094
		C257.172852,32.678223,253.469727,32.831543,252.166016,32.862793"/>
	<path 
		fill="#fbbda2" 
		d="
			M 247.18457,2.81543c0.290039,0,0.583008-0.006836,0.862305-0.033203
			C 247.785156,2.79248,247.487305,2.803223,247.18457,2.81543"/>
	<path 
		fill="#fbbda2" 
		d="
			M 278.288086,11.681641c0.09375,0.018066,0.191406,0.029785,0.291016,0.020996
			C 278.490234,11.696777,278.389648,11.689453,278.288086,11.681641"/>
	<path 
		fill="#fbbda2" 
		d="
			M 266.250977,3.465332c1.003906,0.210938,2.076172,0.311035,3.494141,0.305176
			C 268.948242,3.552246,267.5625,3.515137,266.250977,3.465332"/>
	<path 
		fill="#fbbda2" 
		d="
			M 266.225586,3.460449c-0.004883,0.000977-0.014648,0.000977-0.020508,0.001953
			c 0.018555,0.000977,0.032227,0.001953,0.045898,0.00293
			C 266.241211,3.462402,266.232422,3.462402,266.225586,3.460449
		"
	/>
	<path 
		fill="#fbbda2" 
		d="
			M 131.330078,1.510742c-0.032227-0.00293-0.062012-0.004883-0.088379-0.005859
		C131.270996,1.507812,131.300781,1.508789,131.330078,1.510742"/>
	<path 
		fill="#fbbda2" 
		d="
			M 54.057129,42.376465c-0.65332-0.238281-1.364258-0.367188-2.322266-0.400391
		C52.246094,42.214355,53.178223,42.289551,54.057129,42.376465"/>
	<path 
		fill="#fbbda2" 
		d="
			M 54.074219,42.381348c0.00293,0,0.009766-0.000977,0.013672-0.001953
		c-0.011719-0.000977-0.020996-0.001953-0.030762-0.00293C54.063965,42.378418,54.069336,42.379395,54.074219,42.381348"/>
</g>
</svg>
