<?xml version="1.0" encoding="utf-8"?>
<!-- Generator: Adobe Illustrator 15.1.0, SVG Export Plug-In . SVG Version: 6.00 Build 0)  -->
<!DOCTYPE svg PUBLIC "-//W3C//DTD SVG 1.1//EN" "http://www.w3.org/Graphics/SVG/1.1/DTD/svg11.dtd">
<svg version="1.1" id="Calque_1" xmlns="http://www.w3.org/2000/svg" xmlns:xlink="http://www.w3.org/1999/xlink" x="0px" y="0px"
	 width="25px" height="25px" viewBox="0 0 25 25" enable-background="new 0 0 25 25" xml:space="preserve">
<g>
	<path fill="#FFFFFF" d="M17.5,22.5c-0.552734,0-1-0.447266-1-1v-2c0-1.654297-1.345703-3-3-3h-8c-1.654297,0-3,1.345703-3,3v2
		c0,0.552734-0.447754,1-1,1s-1-0.447266-1-1v-2c0-2.756836,2.243164-5,5-5h8c2.756836,0,5,2.243164,5,5v2
		C18.5,22.052734,18.052734,22.5,17.5,22.5z"/>
	<path fill="#FFFFFF" d="M9.5,12.5c-2.756836,0-5-2.243164-5-5s2.243164-5,5-5s5,2.243164,5,5S12.256836,12.5,9.5,12.5z M9.5,4.5
		c-1.654297,0-3,1.345703-3,3s1.345703,3,3,3s3-1.345703,3-3S11.154297,4.5,9.5,4.5z"/>
	<path fill="#FFFFFF" d="M23.5,22.5c-0.552734,0-1-0.447266-1-1v-2c-0.000977-1.366211-0.925781-2.55957-2.25-2.902344
		c-0.535156-0.137695-0.856445-0.683594-0.717773-1.217773c0.137695-0.536133,0.68457-0.861328,1.217773-0.717773
		c2.207031,0.570312,3.749023,2.55957,3.75,4.836914V21.5C24.5,22.052734,24.052734,22.5,23.5,22.5z"/>
	<path fill="#FFFFFF" d="M16.499023,12.379883c-0.445312,0-0.852539-0.299805-0.967773-0.751953
		c-0.136719-0.535156,0.185547-1.080078,0.720703-1.216797c1.0625-0.272461,1.891602-1.100586,2.162109-2.161133
		c0.198242-0.777344,0.083008-1.583984-0.325195-2.273438c-0.408203-0.69043-1.060547-1.179688-1.836914-1.37793
		c-0.535156-0.136719-0.857422-0.681641-0.720703-1.216797c0.136719-0.536133,0.68457-0.858398,1.216797-0.720703
		c1.293945,0.331055,2.380859,1.146484,3.061523,2.295898s0.873047,2.494141,0.541992,3.788086
		c-0.451172,1.768555-1.832031,3.150391-3.603516,3.603516C16.665039,12.370117,16.581055,12.379883,16.499023,12.379883z"/>
</g>
</svg>
