<svg version="1.1" xmlns="http://www.w3.org/2000/svg" x="0" y="0" width="25px" height="25px" viewBox="0 0 25 25">
<g>
	<path fill="#eac2a6" d="M12.5,23.5c-6.06543,0-11-4.93457-11-11s4.93457-11,11-11s11,4.93457,11,11S18.56543,23.5,12.5,23.5z
		 M12.5,3.5c-4.962402,0-9,4.037109-9,9s4.037598,9,9,9c4.962891,0,9-4.037109,9-9S17.462891,3.5,12.5,3.5z"/>
	<path fill="#eac2a6" d="M15.5,16.5c-0.255859,0-0.511719-0.097656-0.707031-0.292969l-3-3
		C11.605469,13.019531,11.5,12.765625,11.5,12.5v-6c0-0.552734,0.447266-1,1-1s1,0.447266,1,1v5.585938l2.707031,2.707031
		c0.390625,0.390625,0.390625,1.023438,0,1.414062C16.011719,16.402344,15.755859,16.5,15.5,16.5z"/>
</g>
</svg>
