<svg version="1.1" id="Calque_1" xmlns="http://www.w3.org/2000/svg" xmlns:xlink="http://www.w3.org/1999/xlink" x="0px" y="0px"
	 width="30px" height="30px" viewBox="0 0 30 30" enable-background="new 0 0 30 30" xml:space="preserve">
<path d="M17.226562,15.138672c0,1.134766-0.226562,2.146484-0.679688,3.033203s-1.099121,1.580078-1.9375,2.079102
	S12.810059,21,11.726562,21C10.950684,21,10.208496,20.841797,9.5,20.525391s-1.317871-0.742188-1.828125-1.277344
	s-0.916504-1.173828-1.21875-1.915039C6.150879,16.59082,6,15.813477,6,15c0-0.8125,0.150879-1.589844,0.453125-2.333008
	c0.302246-0.742188,0.708496-1.380859,1.21875-1.915039C8.182129,10.216797,8.791504,9.791016,9.5,9.474609S10.950684,9,11.726562,9
	c1.489746,0,2.768066,0.523438,3.835938,1.572266l-1.554688,1.5625c-0.609375-0.616211-1.369629-0.924805-2.28125-0.924805
	c-0.640625,0-1.23291,0.168945-1.777344,0.507812c-0.544434,0.337891-0.975098,0.797852-1.292969,1.378906
	S8.179688,14.3125,8.179688,15s0.158691,1.322266,0.476562,1.90332s0.748535,1.040039,1.292969,1.378906
	s1.136719,0.507812,1.777344,0.507812c0.432129,0,0.82959-0.0625,1.191406-0.188477s0.660156-0.282227,0.894531-0.470703
	s0.438965-0.402344,0.613281-0.642578s0.302246-0.466797,0.382812-0.679688s0.136719-0.414062,0.167969-0.605469h-3.25v-2.0625
	h5.40625C17.195312,14.484375,17.226562,14.817383,17.226562,15.138672z M24,14.140625v1.71875h-1.632812v1.710938h-1.640625
	v-1.710938H19.09375v-1.71875h1.632812v-1.710938h1.640625v1.710938H24z"/>
</svg>
