<svg version="1.1" xmlns="http://www.w3.org/2000/svg" xmlns:xlink="http://www.w3.org/1999/xlink" x="0px" y="0px"
	 width="20px" height="14px" viewBox="0 0 20 14" enable-background="new 0 0 20 14" xml:space="preserve">
<g>
	<path d="M19,8H1C0.447754,8,0,7.552734,0,7s0.447754-1,1-1h18c0.552246,0,1,0.447266,1,1S19.552246,8,19,8z"/>
</g>
<g>
	<path d="M19,2H1C0.447754,2,0,1.552734,0,1c0-0.552246,0.447754-1,1-1h18c0.552246,0,1,0.447754,1,1C20,1.552734,19.552246,2,19,2z
		"/>
</g>
<g>
	<path d="M19,14H1c-0.552246,0-1-0.447266-1-1s0.447754-1,1-1h18c0.552246,0,1,0.447266,1,1S19.552246,14,19,14z"/>
</g>
</svg>
