<svg version="1.1" id="Calque_1" xmlns="http://www.w3.org/2000/svg" xmlns:xlink="http://www.w3.org/1999/xlink" x="0px" y="0px"
	 width="82.014648px" height="82.079102px" viewBox="0 0 82.014648 82.079102" enable-background="new 0 0 82.014648 82.079102"
	 xml:space="preserve">
<path d="M81.914062,1.442871c-0.166016-0.507324-0.519531-0.919922-0.993164-1.160645
	c-0.175781-0.089844-0.364258-0.152832-0.55957-0.1875l-0.112305-0.013184c-0.049805-0.010254-0.100586-0.018555-0.151367-0.025391
	l-0.461914-0.060059l-0.158203,0.14502c-0.121094,0.032715-0.236328,0.075684-0.34375,0.128418L1.124512,37.273926
	c-0.991211,0.48291-1.404785,1.682617-0.921875,2.675781c0.206543,0.422852,0.556152,0.760254,0.969238,0.942871l27.324707,12.69043
	l12.683105,27.308594c0.320312,0.72168,1.038086,1.1875,1.828125,1.1875c0.280273,0,0.553711-0.057617,0.81543-0.173828
	c0.431641-0.194336,0.78125-0.53418,0.985352-0.959961L81.796875,2.969727
	C82.039062,2.493652,82.081055,1.951172,81.914062,1.442871z M73.212891,11.686035L43.008789,75.381836L32.388672,52.510742
	L73.212891,11.686035z M70.330078,8.896484L29.566895,49.65918L6.699707,39.068848L70.330078,8.896484z"/>
</svg>
