<svg version="1.1" xmlns="http://www.w3.org/2000/svg" x="0px" y="0px"
	 width="30px" height="30px" viewBox="0 0 30 30">
<path d="M23.808594,11.573242c0,0-0.175781-1.174805-0.71582-1.692383
	c-0.680664-0.686523-1.445312-0.686523-1.794922-0.725586c-2.512695-0.178711-6.285156-0.15332-6.285156-0.15332
	s-3.772949-0.025391-6.28418,0.15332C8.378418,9.194336,7.613281,9.194336,6.928711,9.880859
	c-0.536133,0.517578-0.711914,1.692383-0.711914,1.692383s-0.182617,1.387695-0.215332,2.769531v1.302734
	c0.032715,1.381836,0.215332,2.765625,0.215332,2.765625s0.173828,1.177734,0.711914,1.695312
	c0.68457,0.68457,1.582031,0.663086,1.979492,0.735352c1.413086,0.12793,5.944336,0.15625,6.101562,0.15918
	c0.00293,0,3.775391,0.007812,6.289062-0.167969c0.351562-0.041992,1.116211-0.041992,1.796875-0.726562
	c0.539062-0.517578,0.716797-1.695312,0.716797-1.695312s0.175781-1.386719,0.189453-2.765625v-1.302734
	C23.988281,12.960938,23.808594,11.573242,23.808594,11.573242z M13.177734,17.397461v-4.826172l4.825195,2.413086
	L13.177734,17.397461z"/>
</svg>
