<?xml version="1.0" standalone="no"?>
<!DOCTYPE svg PUBLIC "-//W3C//DTD SVG 20010904//EN"
 "http://www.w3.org/TR/2001/REC-SVG-20010904/DTD/svg10.dtd">
<svg version="1.0" xmlns="http://www.w3.org/2000/svg"
 width="670.000000pt" height="670.000000pt" viewBox="0 0 670.000000 670.000000"
 preserveAspectRatio="xMidYMid meet">
<metadata>
Created by potrace 1.11, written by Peter Selinger 2001-2013
</metadata>
<g transform="translate(0.000000,670.000000) scale(0.100000,-0.100000)"
fill="#000000" stroke="none">
<path d="M3505 5885 c-452 -160 -891 -287 -1335 -386 -75 -17 -143 -38 -153
-47 -88 -80 -40 -222 75 -222 37 0 165 26 323 66 55 14 107 27 115 29 94 19
557 152 713 203 100 33 100 32 47 -58 -15 -25 -40 -68 -55 -96 -15 -27 -73
-130 -128 -229 -55 -99 -111 -198 -123 -220 -31 -57 -399 -717 -481 -862 l-68
-121 -200 -134 c-601 -402 -1148 -799 -1375 -997 -14 -12 -52 -46 -85 -74
-136 -118 -333 -326 -418 -442 -20 -27 -41 -55 -46 -61 -22 -27 -112 -177
-145 -242 -112 -223 -163 -432 -164 -675 0 -152 16 -244 58 -332 77 -162 226
-229 411 -185 131 31 261 122 409 287 86 95 105 119 250 299 273 341 528 710
793 1147 20 34 41 69 47 77 19 30 214 363 255 435 197 349 339 604 370 660 21
39 66 120 100 180 34 61 75 133 90 160 15 28 80 145 145 260 205 369 416 748
450 810 18 33 36 65 40 70 4 6 24 41 44 78 20 37 46 84 58 105 228 404 230
408 194 483 -15 33 -68 69 -99 69 -7 0 -57 -16 -112 -35z m-1476 -2671 c-189
-329 -383 -653 -487 -814 -69 -106 -275 -415 -294 -440 -10 -14 -79 -106 -153
-205 -176 -237 -365 -465 -474 -573 -138 -137 -277 -182 -323 -105 -41 70 -56
263 -34 428 30 221 181 519 375 740 79 90 303 306 411 396 143 119 449 353
635 486 195 139 468 324 472 320 2 -2 -56 -107 -128 -233z"/>
<path d="M6424 5874 c-101 -41 -163 -101 -289 -279 -141 -200 -245 -374 -365
-610 -110 -217 -188 -388 -285 -620 -31 -77 -63 -153 -70 -170 -39 -91 -197
-500 -216 -557 -19 -60 -31 -77 -116 -162 -215 -217 -425 -399 -511 -442 -29
-15 -73 -29 -96 -31 -50 -5 -53 -1 -63 87 -5 56 -5 56 33 85 40 30 241 227
285 280 92 111 200 268 242 350 63 125 74 252 30 344 -70 147 -263 178 -415
66 -127 -93 -288 -346 -359 -566 -36 -112 -66 -262 -68 -339 -1 -34 -5 -38
-93 -92 -51 -31 -113 -66 -138 -78 -25 -13 -53 -32 -62 -43 -45 -51 -28 -144
32 -185 47 -32 94 -25 193 27 l77 42 20 -47 c11 -25 20 -49 20 -53 0 -4 21
-29 46 -54 103 -105 287 -105 466 0 74 44 240 179 344 281 7 6 14 12 16 12 2
0 4 -44 4 -97 1 -154 38 -229 139 -278 123 -60 261 -27 379 91 69 70 165 213
312 467 119 204 108 194 224 216 30 6 66 14 80 16 14 3 41 8 60 11 19 2 58 9
85 14 28 5 72 12 99 15 70 8 105 30 126 77 22 49 12 98 -27 140 -34 36 -67 42
-155 28 -40 -6 -86 -12 -103 -15 -195 -26 -380 -72 -431 -107 -34 -24 -40 -33
-189 -288 -153 -262 -238 -383 -302 -428 -39 -27 -45 -20 -44 56 3 180 45 379
90 428 364 393 698 839 925 1234 126 219 241 488 282 655 42 172 59 286 58
397 0 58 -4 72 -25 94 -36 39 -58 47 -126 50 -45 1 -77 -5 -119 -22z m-14
-381 c-54 -264 -246 -647 -537 -1072 -88 -128 -201 -281 -208 -281 -2 0 3 12
10 28 7 15 36 81 63 147 28 66 64 149 80 185 16 36 40 88 52 115 37 83 175
356 214 423 20 34 51 88 69 120 48 83 114 187 170 267 27 39 58 84 70 102 12
17 23 30 25 28 2 -2 -2 -30 -8 -62z m-1635 -1495 c-13 -70 -152 -287 -260
-403 -64 -68 -65 -61 -9 69 48 114 120 229 189 302 68 73 88 80 80 32z"/>
<path d="M3854 4254 c-51 -17 -83 -43 -118 -93 -67 -93 -19 -229 86 -247 35
-6 36 -7 26 -36 -6 -17 -50 -108 -97 -202 -140 -277 -302 -507 -504 -709 -56
-57 -111 -110 -121 -118 -18 -13 -19 -12 -12 11 4 14 9 33 11 43 2 9 6 21 9
25 3 5 7 19 9 33 12 61 113 360 228 671 38 103 69 197 69 208 0 60 -57 111
-131 118 -52 4 -60 -2 -184 -142 -138 -157 -162 -183 -308 -331 -82 -83 -152
-157 -157 -165 -13 -21 -12 -77 1 -102 32 -59 114 -91 167 -64 15 8 52 37 82
65 30 27 56 49 57 47 2 -2 -10 -46 -26 -97 -37 -117 -95 -322 -115 -412 -28
-119 -18 -162 44 -205 32 -22 43 -24 120 -19 174 9 313 105 555 380 214 244
411 565 527 857 65 164 77 236 53 318 -37 122 -167 202 -271 166z"/>
<path d="M4529 2265 c-2 -2 -78 -6 -169 -10 -273 -11 -381 -17 -555 -31 -27
-2 -81 -6 -120 -9 -86 -6 -177 -14 -230 -20 -22 -3 -62 -7 -90 -10 -60 -5
-150 -15 -185 -20 -14 -2 -54 -7 -90 -10 -36 -4 -78 -8 -95 -11 -16 -2 -51 -6
-76 -9 -25 -3 -55 -7 -66 -9 -11 -3 -44 -7 -74 -11 -30 -3 -65 -8 -79 -10 -14
-2 -45 -7 -70 -10 -25 -3 -70 -10 -100 -15 -30 -5 -75 -12 -100 -15 -25 -3
-81 -12 -125 -20 -44 -8 -96 -16 -115 -19 -138 -21 -173 -37 -196 -92 -25 -59
1 -132 57 -162 23 -12 104 -11 169 4 14 3 41 7 60 10 19 2 42 6 50 9 8 2 38 7
65 11 28 3 59 8 70 10 11 2 38 7 60 9 22 3 51 7 65 10 14 2 45 7 70 10 25 3
56 8 70 10 14 3 41 7 60 9 19 3 89 11 155 20 66 8 145 18 175 21 30 4 66 8 80
10 24 3 122 13 200 20 19 2 60 6 90 9 87 9 159 15 240 21 41 3 102 8 135 10
33 3 101 7 150 10 50 3 122 8 160 10 311 19 1216 26 1540 12 256 -12 486 -25
572 -33 56 -5 94 8 126 44 46 51 39 134 -16 177 -40 29 -65 33 -397 50 -63 4
-149 9 -190 12 -87 5 -1276 14 -1281 8z"/>
<path d="M2164 1295 c-3 -6 -3 -109 -2 -230 l3 -220 123 0 122 -1 0 46 0 45
-65 -3 c-47 -2 -65 1 -66 10 -1 7 -3 87 -4 178 -1 91 -3 170 -4 176 -1 13
-102 13 -107 -1z"/>
<path d="M2735 1300 c-7 -12 -4 -450 3 -451 43 -7 272 -2 275 6 1 5 0 26 -3
45 l-5 35 -80 0 -80 0 1 38 c1 20 2 43 3 50 1 9 20 13 69 12 64 -1 67 0 72 25
13 59 5 66 -71 63 -74 -3 -71 -6 -73 60 l-1 32 78 1 c42 1 79 3 81 5 6 6 9 30
7 59 l-1 25 -136 0 c-74 0 -137 -2 -139 -5z"/>
<path d="M3822 1075 l3 -230 119 0 c162 0 216 21 235 89 12 45 -4 87 -45 124
-21 17 -32 32 -25 32 6 0 23 11 36 25 46 45 29 129 -33 167 -30 18 -51 21
-163 22 l-129 2 2 -231z m226 112 c20 -42 -5 -67 -70 -67 l-48 0 0 43 c0 24 3
46 6 50 4 3 27 5 53 4 39 -2 48 -6 59 -30z m3 -165 c16 -17 18 -49 5 -67 -9
-13 -29 -19 -69 -22 l-55 -3 0 48 c0 26 5 50 11 54 13 8 99 1 108 -10z"/>
<path d="M4519 1300 c-4 -26 -3 -425 2 -438 5 -14 22 -17 127 -17 l122 -1 0
46 0 45 -70 -2 -70 -2 0 188 0 187 -55 0 c-30 -1 -55 -3 -56 -6z"/>
<path d="M5189 1284 c-86 -44 -129 -120 -124 -222 5 -125 96 -214 223 -218 74
-3 124 15 175 64 89 83 90 247 1 336 -68 68 -186 86 -275 40z m162 -89 c30
-10 60 -61 63 -107 3 -57 -24 -111 -64 -128 -91 -38 -170 17 -170 118 0 97 74
147 171 117z"/>
<path d="M5999 1301 c-104 -32 -167 -120 -163 -230 5 -141 112 -238 252 -226
62 5 101 24 143 68 41 42 57 83 55 142 l-1 48 -116 0 c-63 0 -120 -2 -125 -5
-10 -7 -11 -59 -2 -74 4 -5 32 -9 63 -8 46 2 56 0 53 -13 -9 -48 -104 -71
-155 -37 -27 17 -53 70 -53 108 0 45 30 103 58 115 57 23 94 21 123 -9 25 -24
34 -27 88 -26 33 1 63 4 66 7 2 3 -8 26 -24 51 -50 78 -165 118 -262 89z"/>
</g>
</svg>
