<svg version="1.1" id="Calque_1" xmlns="http://www.w3.org/2000/svg" xmlns:xlink="http://www.w3.org/1999/xlink" x="0px" y="0px"
	 width="18px" height="18px" viewBox="0 0 18 18" enable-background="new 0 0 18 18" xml:space="preserve">
<path fill="#9D8A6D" d="M16.999023,8H3.413574l4.292969-4.292969c0.390625-0.390625,0.390625-1.023438,0-1.414062
	s-1.023438-0.390625-1.414062,0L0.293457,8.291992C0.200684,8.384766,0.127441,8.495117,0.07666,8.618164
	c-0.101074,0.244141-0.101074,0.519531,0,0.763672c0.050781,0.123047,0.124023,0.233398,0.216797,0.326172l5.999023,5.999023
	C6.487793,15.902344,6.743652,16,6.999512,16s0.511719-0.097656,0.707031-0.292969c0.390625-0.390625,0.390625-1.023438,0-1.414062
	L3.413574,10h13.585449c0.552734,0,1-0.447266,1-1S17.551758,8,16.999023,8z"/>
</svg>
