<svg version="1.1" id="Calque_1" xmlns="http://www.w3.org/2000/svg" xmlns:xlink="http://www.w3.org/1999/xlink" x="0px" y="0px"
	 width="76px" height="76px" viewBox="0 0 76 76" enable-background="new 0 0 76 76" xml:space="preserve">
<path fill="#CCD2D9" d="M49.400391,39.799805L33.299805,55.900391c-0.799805,0.799805-2,0.799805-2.799805,0
	c-0.799805-0.800781-0.799805-2,0-2.800781l14.700195-14.699707l-15.5-15.5c-0.800293-0.799805-0.800293-2,0-2.799805
	c0.799805-0.800293,2-0.800293,2.799805,0L49.400391,37C50.200195,37.799805,50.200195,39,49.400391,39.799805 M76,38
	c0,21-17,38-38,38S0,59,0,38S17,0,38,0S76,17,76,38 M72,38C72,19.200195,56.799805,4,38,4S4,19.200195,4,38s15.200195,34,34,34
	S72,56.799805,72,38"/>
</svg>
