<svg version="1.1" xmlns="http://www.w3.org/2000/svg" x="0" y="0" width="76px" height="76px" viewBox="0 0 76 76">
<path 
	fill="#ffffff" 
	d="
		M 49.400391, 39.799805
		L 33.299805,55.900391
		c -0.799805, 0.799805 -2, 0.799805 -2.799805, 0
		c -0.799805-0.800781-0.799805-2,0-2.800781
		l 14.700195-14.699707
		l -15.5-15.5c-0.800293-0.799805-0.800293-2,0-2.799805
		c 0.799805-0.800293,2-0.800293,2.799805,0
		L 49.400391,37
		C 50.200195,37.799805,50.200195,39,49.400391,39.799805 M76,38
		c 0,21-17,38-38,38S0,59,0,38S17,0,38,0S76,17,76,38 
		M 72,38C72,19.200195,56.799805,4,38,4S4,19.200195,4,38s15.200195,34,34,34
		S 72, 56.799805, 72, 38
	"/>
</svg>
