<?xml version="1.0" encoding="utf-8"?>
<!-- Generator: Adobe Illustrator 24.0.1, SVG Export Plug-In . SVG Version: 6.00 Build 0)  -->
<svg version="1.1" id="Calque_1" xmlns="http://www.w3.org/2000/svg" xmlns:xlink="http://www.w3.org/1999/xlink" x="0px" y="0px"
	 viewBox="0 0 76 76" style="enable-background:new 0 0 76 76;" xml:space="preserve">
<style type="text/css">
	.st0{fill:#FBBDA2;}
</style>
<path class="st0" d="M49.4,39.8L33.3,55.9c-0.8,0.8-2,0.8-2.8,0s-0.8-2,0-2.8l14.7-14.7L29.7,22.9c-0.8-0.8-0.8-2,0-2.8s2-0.8,2.8,0
	L49.4,37C50.2,37.8,50.2,39,49.4,39.8 M76,38c0,21-17,38-38,38S0,59,0,38S17,0,38,0S76,17,76,38 M72,38C72,19.2,56.8,4,38,4
	S4,19.2,4,38s15.2,34,34,34S72,56.8,72,38"/>
</svg>
