<?xml version="1.0" encoding="utf-8"?>
<!-- Generator: Adobe Illustrator 24.0.1, SVG Export Plug-In . SVG Version: 6.00 Build 0)  -->
<svg version="1.1" id="Calque_1" xmlns="http://www.w3.org/2000/svg" xmlns:xlink="http://www.w3.org/1999/xlink" x="0px" y="0px"
	 viewBox="0 0 76 76" style="enable-background:new 0 0 76 76;" xml:space="preserve">
<style type="text/css">
	.st0{fill:#FBBDA2;}
</style>
<path class="st0" d="M26.6,36.2l16.1-16.1c0.8-0.8,2-0.8,2.8,0s0.8,2,0,2.8L30.8,37.6l15.5,15.5c0.8,0.8,0.8,2,0,2.8s-2,0.8-2.8,0
	L26.6,39C25.8,38.2,25.8,37,26.6,36.2 M0,38C0,17,17,0,38,0s38,17,38,38S59,76,38,76S0,59,0,38 M4,38c0,18.8,15.2,34,34,34
	s34-15.2,34-34S56.8,4,38,4S4,19.2,4,38"/>
</svg>
