<?xml version="1.0" encoding="utf-8"?>
<!-- Generator: Adobe Illustrator 15.1.0, SVG Export Plug-In . SVG Version: 6.00 Build 0)  -->
<!DOCTYPE svg PUBLIC "-//W3C//DTD SVG 1.1//EN" "http://www.w3.org/Graphics/SVG/1.1/DTD/svg11.dtd">
<svg version="1.1" id="Calque_1" xmlns="http://www.w3.org/2000/svg" xmlns:xlink="http://www.w3.org/1999/xlink" x="0px" y="0px"
	 width="1408px" height="1408px" viewBox="0 0 1408 1408" enable-background="new 0 0 1408 1408" xml:space="preserve">
<path fill="#EAB9A4" d="M1152,672v64c0,9.333008-3,17-9,23s-13.667969,9-23,9H768v352c0,9.333008-3,17-9,23s-13.667969,9-23,9h-64
	c-9.333984,0-17-3-23-9s-9-13.666992-9-23V768H288c-9.333984,0-17-3-23-9s-9-13.666992-9-23v-64c0-9.333008,3-17,9-23
	s13.666016-9,23-9h352V288c0-9.333008,3-17,9-23s13.666016-9,23-9h64c9.332031,0,17,3,23,9s9,13.666992,9,23v352h352
	c9.332031,0,17,3,23,9S1152,662.666992,1152,672z M1280,1120V288c0-44-15.667969-81.666992-47-113
	c-31.333984-31.333008-69-47-113-47H288c-44,0-81.666992,15.666992-113,47c-31.333984,31.333008-47,69-47,113v832
	c0,44,15.666016,81.666992,47,113c31.333008,31.333008,69,47,113,47h832c44,0,81.666016-15.666992,113-47
	C1264.332031,1201.666992,1280,1164,1280,1120z M1408,288v832c0,79.333008-28.167969,147.166992-84.5,203.5
	c-56.333984,56.333008-124.167969,84.5-203.5,84.5H288c-79.333984,0-147.166992-28.166992-203.5-84.5
	C28.166016,1267.166992,0,1199.333008,0,1120V288c0-79.333008,28.166016-147.166992,84.5-203.5
	C140.833008,28.166992,208.666016,0,288,0h832c79.332031,0,147.166016,28.166992,203.5,84.5
	C1379.832031,140.833008,1408,208.666992,1408,288z"/>
</svg>
