<svg xmlns="http://www.w3.org/2000/svg" width="6000" height="2828" xmlns:xlink="http://www.w3.org/1999/xlink"><defs><path id="a" d="M0 0h6000v2828H0z"/></defs><clipPath id="b"><use xlink:href="#a" overflow="visible"/></clipPath><g clip-path="url(#b)"><defs><path id="c" d="M3 3h5991v2816H3z"/></defs><clipPath id="d"><use xlink:href="#c" overflow="visible"/></clipPath><path fill="#FBD5C6" d="M3009.2 1217.3c-18.5-6.1-40.3-8.4-46.4-31.2-2-7.6.3-18.5 4.8-24.9 2.7-3.8 13.8-3.3 20.7-2.2 7.2 1.1 13.9 5.2 20.8 7.9v50.4zm0 1618.7c-12.4-17.2-25.6-33.9-36.4-52.1-1.9-3.2 4.2-14.6 9.4-18.1 7.7-5.2 17.9-6.6 27-9.7v79.9zm0-1210.8c-18.3-8-36.5-16.1-54.8-24.1.3-2.2.6-4.4.9-6.5 13.8-4.4 35.2-.6 28.4-28.3 10.2 1.7 17.9 3 25.5 4.3v54.6zM498.4 180.3c-14.1-8-23-13-31.9-18L465 165c-.8-1.1-2.5-2.2-2.4-3.2 1.8-20.7-25.7-30.5-18.9-54.2 5.4-18.8 2.7-40.4 10.1-58.1 15-36.2 31.6-72.4 53.2-104.9 9.6-14.4 33.4-14.3 52.2-6 17.5 7.7 25.2 19.5 24.7 40.3-.9 40.2 2.1 80.7 3.4 121.1.3 8.2 0 16.5 0 20.7-19.7 7.8-38.3 11.7-52.7 21.7-14.9 10.5-25.8 26.7-36.2 37.9M2530 54.8c.4-2.1.4-3.6 1-4.8 21.1-37.7 22-37.5 69.5-30.9 27.5 3.8 55.5 4.5 82.8 8.9 10.5 1.7 22.8 7.5 29.2 15.6 20.5 25.7 22.3 55.7 14.4 87-4.7 18.8-8.2 37.9-12 56.9-3.1 15.3-16.1 22.3-26.8 12.6-53.1-48.2-105.7-97-158.1-145.3m-216.6 877.1c-4.2 17.4-7.4 33.1-12.1 48.3-.9 3-7.8 4.9-12.2 5.8-20.7 4-35.5 14.9-50.2 30.6-14.6 15.5-36.1 24.7-55.2 35.6-3.1 1.8-10.4-1.2-14.4-3.9-26.2-17.9-30.8-48.1-40.1-75-4.9-14.1 20.1-38.6 34.8-42.5 20.5-5.5 40.2-14.4 59.7-22.9 14.7-6.4 77.1 4.6 86.2 16.6 1.9 2.6 2.9 6.1 3.5 7.4m-125.7 423c-6.3 9.1-11.5 19.2-19.2 26.9-16 16-32.2 32.9-56.8 34.3-6.5.4-16.6-.4-19.1-4.3-11.3-18-23.8-36.3-29.3-56.3-5.6-20.4-11.2-38.6-30-50.1-.6-.4-1.4-.6-1.7-1.1-11-19.5 3.9-36.6 6.7-54.6.7-4.3 18.6-9.3 27.9-8.1 16.3 2.1 32.8 7 47.8 13.9 8.4 3.9 13.9 14 20.7 21.4 13 13.9 27.1 27 38.5 42.1 6.4 8.6 8.5 20.6 14.5 35.9m-757.3-984.5c18.2-.7 38.9 22 41.4 40.7 2 14.6 8.6 29.3 15.8 42.4 12 21.7 8.3 78.6-8.2 97.1-1.4 1.6-2.6 3.4-4.4 4.5-11.4 6.8-56.8-12.3-58.8-25.6-2.9-19.9-14.9-32.7-27.8-47.1-15.3-16.9-25.7-38.4-37.8-58.2-1.5-2.4-1.9-8.2-.5-9.4 13.9-10.8 27.6-22.1 42.7-30.8 11.4-6.4 24.7-9.1 37.6-13.6m1113.7 2391.3c-23.7-27.4-45.3-52.4-68.4-79.2 16.8-11.6 31.2-20.9 44.9-31.1 22.2-16.6 43.6-34.4 66.3-50.3 5.8-4.1 16.1-6 22.6-3.9 15 5 29 13.1 43.4 19.9 10.3 4.9 11.9 11.2 6.2 21.6-27.9 50.7-70 87.5-115 123M2314.3 807.3c-8.9 7.8-22.9 21.2-38 33-4.1 3.2-12.8 4.1-17.8 2.1-33.8-13.4-68.3-26-100.5-42.6-23.9-12.4-25.8-23.3-6.8-41.9 21.4-20.9 46.5-38.7 71.8-54.8 15.3-9.7 35.8 4.3 46.2 27.2 6.2 13.6 11.6 27.7 19.1 40.6 7.3 12.6 16.9 23.8 26 36.4m-768.2 333.1H1493c5-21.9-10.3-25.8-24.8-31.7-8.7-3.6-15.8-11.1-24.1-16-6.3-3.7-13.3-6.8-20.3-9-14.7-4.7-28.3-10.8-26.1-29.3 2.2-18.2 11.7-28 32.6-26.6 26.5 1.8 53.3 1.8 79.8.1 25.9-1.7 47.6 6.8 69 19.6 13.7 8.2 16.6 18 8.2 31-8 12.3-16.6 24.1-24.8 36.3-5.3 7.9-10.3 16-16.4 25.6M242.2 2781.3h-50.3c-13.5-19.7-27-39.5-40.5-59.2-9.1-13.4-6.5-21.4 7-32.5 28.9-23.9 62.5-15.8 94.3-18.8 19.4-1.9 39.1.9 58.7.1 17.3-.7 25.6 7.2 28 23.5 2.8 18.9-10.7 27.9-24.2 31.2-11.8 2.9-19.9 5.5-26.4 16.5-3.1 5.2-12.5 8.1-19.5 9.2-17.1 2.5-26.8 10.8-27.1 30m2598.5-1389.1c-18.5 8.6-26 21.4-17.2 40.7.6 1.2.8 2.8.5 4.1-5.2 21.5-9.1 43.5-16.7 64.2-2.3 6.3-15.2 12.5-22.7 11.9-6.9-.6-16.1-9.2-19-16.4-13.8-34-28.5-68-37.5-103.4-4.6-18 1.3-39 4.5-58.3.6-3.4 11.6-8.1 16.8-7.2 23.6 4.3 47 10.1 70.2 16.3 3.5.9 6.6 6.6 8.2 10.7 4.5 11.6 8.2 23.5 12.9 37.4M1575 669.8c4.5 6.2 10.4 11.6 12.9 18.2 9.4 25 6 49.1-4.9 73.5-11.5 25.8-21 52.5-29.8 79.4-5.5 16.7-16.8 19.3-30.8 15.9-15.9-3.8-17.5-17.1-18.3-31-.5-9.2-3.4-18.3-4.8-27.6-1.5-10.7-2.2-21.6-3.8-32.3-1.1-7.2-.8-16.6-5.1-21-6.2-6.3-17.1-8.9-8.9-20.4 9.1-12.8 1.3-36.4 29.1-37.7 20.2-.8 39.9-10.1 64.4-17m357.5 197.5c9-9.5 17.2-18 26.6-27.9 5 4.1 10.1 8.1 14.8 12 16.5-7.2 32.7-13.3 47.7-21.4 11.7-6.3 17.1-1.7 23.7 7.4 13.5 18.5 17 37.2 5.8 57.9-9.2 17-9.4 33.5 2.2 49.9 8 11.3 8.1 20.8-7.4 27.6-6.1 2.7-8.8 12-14.1 17.4-7.4 7.5-15.7 14-23.6 20.9-6.3-8.4-14.1-16-18.5-25.2-15.7-33-30.1-66.6-45.3-99.8-2.7-6-7.2-11.4-11.9-18.8m885.3 1475.8c1 .2 6.8.2 11.6 2.4 18.9 8.3 35.7 5.4 51.9-6.8 15.3-11.5 31.5-14 50.7-7.6 19.6 6.5 22 17.8 16.5 34.7-2.6 7.8-5.8 15.8-6.2 23.9-.4 9.5 2 19.1 5.4 28.5-10.1 31-14.8 31.8-45.4 22.8-34.8-10.3-70.8-16.7-106-25.8-8-2.1-16.7-7.1-21.4-13.5-2.1-2.8 4.1-13.3 8.4-18.8 10.3-13 21.7-25.1 34.5-39.8M2608 571.5c-5.4-59.3 17.6-103.8 40.5-148.8 9.8-19.3 24.8-36.7 25.6-60 .1-2.9 3.1-6.6 5.8-8.2 14.7-8.6 29.7-16.7 50.7-28.3-8.9 32.3-15.9 58.7-23.4 84.9-8.4 28.9-16.7 57.9-26.2 86.5-6.2 18.7-10.2 40.4-22.6 53.9-10.7 11.5-32 13.2-50.4 20m-158.5 1309.6c4.1-50.2 8.1-100.1 12.3-152.3 29.1 6.9 60.5 8.6 85.4 22.3 17 9.4 24.9 35.4 37.6 55-49.1 27.1-92.8 51.4-135.3 75m424.6-228.9c.6 16.4-16.6 34.6-40 43-18.5 6.6-35.9 16.2-54.3 22.9-6.2 2.3-19.3 1.9-20.4-.9-13.1-32.5-26.5-65.1-35.7-98.9-4.7-17.2 10.8-27.7 28.8-22.2 11.2 3.4 21.6 9.3 32.2 14.3 29 13.5 57.8 27 89.4 41.8M723 1053.7c15.8-32.6 29.7-61 43.4-89.3 9.3-19.2 12.4-43.4 41-49.1 26.7 30.5 37.4 68.5 45.2 107.8 2.5 12.6-3.5 16.5-15.9 18.2-15.3 2.1-29.9 8.7-45 12.3-18.7 4.4-37.5 8.6-56.5 10.7-4.3.4-9.5-8.2-12.2-10.6m1287.5 1437.1c9.6 18.6 18.7 36.3 28 53.9 4.8 9.1 10 18 14.9 27.1 4.1 7.7 13.2 18.9 10.8 22.7-8.4 13.3-11 35-35.4 31.6-6.5-.9-13.6 1.8-20.3 3.2-31.7 6.4-59.7-7.5-71.6-36.7-1.5-3.7 1.1-10.5 4-14.2 8.4-11 18.4-20.7 26.8-31.7 4.8-6.4 9.9-13.8 11.1-21.4 3.9-23.8 3.2-24 31.7-34.5m381.7-2040.9c27.9 38.5-5.2 61.7-22.8 88.7-4.4 6.8-11.6 15.2-18.5 16.1-13.2 1.8-27.2-.1-40.4-2.8-3.4-.7-6.5-9.6-7.4-15.1-2.3-13.7-1-28.4-5.5-41.1-4.1-11.6-13.9-21.3-22.7-34 2.2-6.1 5.6-15.7 9.8-27.5 18.1 3.2 35.6 6.7 53.3 9.3 17.8 2.6 35.8 4.3 54.2 6.4m-1122 2304.6c32.1 56.6 12.3 120.1 24.1 181-6.8.7-11.1.2-14.5 1.7-25.4 10.8-42.2-.3-54.9-21.3-11.2-18.4-16.8-36.3-4-57.8 7.9-13.2 8.6-30.4 14.4-45.1 8-20.2 17.7-39.7 26.6-59.5 2.8.4 5.6.7 8.3 1M34.8 407.9c13.3-.6 26.9-3.3 39.8-1.5 24 3.4 28.9 13.4 20.4 35.7-9.1 23.9-19.8 47.4-27 71.8-5.1 17.5-15.1 26.9-30.6 35.4-15.1 8.3-26.9 3.3-35.5-5.3-5.1-5.1-5.5-19.1-2.6-27.2 9.5-26.7 14.4-53.5 12.2-81.8-1.1-16.2 6.3-26.4 23.3-27.1m1567 1186.3c.5-11.5-1.6-23.9 2.3-34 3.1-7.9 14.3-18.6 21.1-18.1 33.4 2.8 63.7-4.9 93.5-18.6 4.1-1.9 13.7-.2 15.3 2.8 5.6 10.3 14.3 23.5 11.7 32.8-5.5 19.3-19.3 34-40.7 40.3-21.7 6.4-42.9 14.9-64.1 23.2-26.6 10.4-40.4.9-39.1-28.4M298.8 78.4c-34.6 23.8-38.3 23.6-68.3 2.6-5.8-4-14-6.8-21-6.5C181.2 76 164.6 65.6 158 38c-5.1-21.3-9.2-43-11.1-64.8-.6-6.7 7.7-14.1 11.9-21.2 6.9 4.4 15.6 7.5 20.4 13.5 16.7 21 31.4 41.9 56.8 56 23.5 12.9 41.1 36.5 62.8 56.9m594.8.8c5.2 115.5 1 153-22.6 186.8-9.6-19.4-19.2-36.5-26.9-54.5-8.4-19.6-16-39.7-22.3-60-2.5-8-3.4-18.7-.1-25.8 6.6-14.3 13.8-31.3 26-39.1 12-7.7 30.3-5.4 45.9-7.4m1973.5 568c31.1 11.1 30.9 12.9 26.1 44.1-2 12.5 4.5 26.1 5.9 39.3.8 7.9 2.3 18.2-1.6 23.8-14.7 20.7-31.1 40.4-47.9 59.5-8.8 10.1-15.6 28.2-34.5 17.8-17.6-9.6-19.8-23.2-9.2-44.2 13.7-27.1 27.6-54.2 41.1-81.4 2.7-5.4 6.7-12.7 5.1-17.3-6.5-18.7 2.5-30.5 15-41.6M1431.9 821.1c9.9 10.8 17.1 20.3 25.9 28 22.1 19.5 26.3 39.5 13.6 68.2-9.6 21.6-45 24.3-55.1 7.6-11.4-18.8-22.1-38.3-31-58.5-2.3-5.3 1-16.8 5.7-20.6 11.7-9.2 25.7-15.7 40.9-24.7m1456.3 773.7c-9.3-8-20.1-13.7-25.1-22.7-6.5-11.5-15.4-29.6-10.8-37.8 11.3-20.1 28.9-37 46.2-52.9 3.5-3.2 17.4 2.7 25.1 6.9 31.4 17.3 31.7 17.9 15.9 50.5-6.6 13.6-14.6 27-24.1 38.7-5.7 6.9-15.6 10.2-27.2 17.3m-1549.1-510.6c19.3-6.1 29.4 3.7 36.3 19.4 1.9 4.4 4.9 8.4 7.2 12.7 20.5 37.6 19.2 41-16 65.5-9.2 6.4-15.7 7.6-23.3-.8-11.7-12.8-24.3-24.9-35.3-38.3-10.9-13.3-19.5-29.7-5.8-44.7 8.6-9.4 22.8-13.6 34.5-20.1.9 2.1 1.7 4.2 2.4 6.3m-940.3-691c14.2-27.5 26.8-51.1 38.6-75.1 5.3-10.7 11.4-14.9 22.3-7.3 14.2 9.8 29.2 18.6 42.9 29.1 12.4 9.5 13.7 20 2.5 33.5-22.8 27.5-52.8 34.3-85.7 32.6-7.5-.5-14.5-8.8-20.6-12.8m1155.9 1652.6c-28.3-12.1-37.3-40.6-52-64.1-1.2-1.9 3.6-9.9 7.4-12 24.6-13.7 49.6-26.6 75-40 31.3 22.5 18.6 74.5-30.4 116.1m331.3-226.2c27.8-4.2 50.1-7 72.1-11.1 14.3-2.6 23.7 1.3 25.4 16.3 2 18.6 3.9 37.3 3.6 56-.2 12.1-7.6 21.6-21.4 15.5-25-11.1-51.4-21-72.9-37.1-8.4-6.3-5.2-28.1-6.8-39.6m37.8-193.1c26 61.6-3.6 109.1-26.6 158.2-21.6-11.4-33.4-44.6-21.4-71.2 13.2-29.2 30.9-56.5 48-87m586.2 455.3c-48.1 38.5-78.5 92.7-143.6 100.8 15.5-61 72.3-102.5 143.6-100.8m-297.2 644.5c3.8 43.4-37.2 85.2-96.3 139.4-11.6-54.6 12.3-89.6 96.3-139.4M1820.6 292.1c-87.9-44-98.1-72.7-100.5-144.8 39.2 46.1 92.2 77.8 100.5 144.8m491 1561.7c19.1-7.1 34.3-14.6 50.3-17.7 5.3-1 14.7 7.8 19 14.3 8.2 12.5 13 27.3 21.2 39.8 7.7 11.8 16.6 22.1.1 32.9-14 9.2-27.3 7.3-39.2-4.5-1-1-1.7-2.2-2.5-3.3-14.7-18.4-29.4-36.9-48.9-61.5m198.3-176.2c-29.7 17.2-50.3 51.3-93 44.7-11.5-1.8-18.2-3.9-17.5-17.2.8-15.9.2-31.9.2-50.2 38.2 6 73.8 11.7 109.3 17.3.3 1.8.7 3.6 1 5.4m319.4-1665c-42.9-27-60-73-83.2-115.6 27.8 13 55.7 25.8 83.4 39.1 3.2 1.6 5.8 5.6 7.5 9.1 8.3 17.5 5.3 50.1-7.7 67.4m-150.8 1685.7c20-2.2 37.4-6.3 54.2-4.8 5.8.5 11.9 14.4 15.1 23.1 4.4 12.1 5.4 25.4 9.4 37.6 4.1 12.4 12.7 24.3-6.4 32.2-14.6 6-30.8.9-38.1-14.3-10.6-21.8-20.5-44-34.2-73.8m-151.3 204.6c-13 27.9-22.9 58-40.5 82.8-7.3 10.3-30.5 10.8-46.9 12.5-8.6.9-18-5.5-29.2-9.4 28-44.6 72.9-64 116.6-85.9m-2187.8-251c0 19.5.3 39.5-.3 59.5-.1 3.5-3 8.1-6 10-24.8 15.5-51.3 25.1-80.6 16.5-3.8-1.1-8.5-15-7.1-16.2 28.9-24.4 58.6-47.8 88.2-71.3.6-.4 2.5.7 5.8 1.5m2338.4 774.8c-3.5 8.7-6.5 16.3-9.7 23.9-5.5 13.1-14.1 18.1-29.4 16.4-30-3.3-60.4-4.1-92.3-6.1 24.9-39.3 89.7-55.7 131.4-34.2m255.5 161.8c17.6-2.2 35.2-4.3 58-7.1-4.4 12-6.1 19-9.4 25.2-11.4 21.4-22.9 42.8-35.3 63.6-2.6 4.4-9.5 9.7-13.3 8.9-5.8-1.1-15-6.8-15.3-11.1-1.5-23.8-.8-47.8-.9-71.8 5.4-2.5 10.8-5.1 16.2-7.7m-389-1020.7c20.3 10.2 36.8 20.3 54.5 27 15.9 6 16.9 18.7 19.2 31.5 1.7 9.5 2.1 19.2 3.4 32.3-6.7-1.6-14.3-1.5-19.7-4.9-25.3-15.9-50.5-31.9-74.5-49.7-10.3-7.7-11-18.8 2.4-26.7 5.9-3.4 11.6-7.4 14.7-9.5m22.4 756.6c-21.3-32.3-39.3-59.2-56.5-86.6-1.7-2.7.1-10.6 2.7-12.3 5.1-3.2 12.7-6.3 17.9-4.8 15.9 4.6 31.3 11.3 46.7 17.6 15.8 6.4 16.5 20.7 12.7 33.1-4.9 16.3-13.7 31.5-23.5 53M2255.3 430.1c-17.6-11.5-35.3-22.9-52.8-34.5-10.3-6.9-20-14.7-30.6-21.1-15.9-9.6-16.5-17.6-1.5-28.3 5.6-4 10.9-8.5 13.1-10.2 22 10.2 42 18.6 60.9 28.9 5.6 3.1 10.3 11.2 11.8 17.9 3.2 13.9 4 28.4 5.7 42.6-2.2 1.5-4.4 3.1-6.6 4.7m-404.2-243.9c-14.7-9.9-17.7-20.4-7.6-35.5 5.9-8.9 8.5-20.4 11.4-31.1 5-18.4 18.9-21.3 33.7-17.8 13.3 3.1 25.9 9.6 38.2 15.8 10.6 5.4 11.9 12.6.7 19.7-25.3 16.1-50.4 32.3-76.4 48.9M2853.5 42.1c9.7-19.9 18-36.8 26.2-53.8 5.2-10.9 10.1-20.6 25.5-20 12.8.4 25.8-2.9 45.3-5.4-11.7 19.9-20.2 35.4-29.7 50.1-9 14-19.7 26.8-28.5 40.9-9.6 15.4-19 16.4-29.1 1.7-4-5.7-8.1-11.2-9.7-13.5M-2.8 2746.5c9.2 11.3 17.9 21.9 26.7 32.7-11.2 14.7-23.2 28.7-33.4 43.9-16.8 25.1-40 25.5-60.5-2.4 30.8-16.3 31-59.9 67.2-74.2M665.1 720.8c22.1-7.1 22.4 9.4 26.1 22.8 1.5 5.4 4.8 10.4 7.2 15.6 2.6 5.9 5.1 11.9 7.6 17.9-6 2.4-14.6 8.6-17.6 6.6-18.4-12.8-37.8-.4-55.9-4.2-8.3-1.7-18.5-6.2-22.7-12.8-5.9-9.2 1.2-15.4 11.3-19 5.4-1.9 8.7-9 13.6-12.8 8.9-6.9 18.3-13.1 27.5-19.5l2.9 5.4zm1141.3 459.7c-19.3 27-42 26.5-59.9-.1-9.9-14.8-21.9-28.2-34.6-44.3 8.4-7.9 16.1-16.9 25.5-23.4 11.5-8 23.1-.6 22.9 13.7 0 1.6-1.2 4.1-.5 4.7 7.5 7.3 15.7 13.8 22.9 21.4 8 8.3 15.1 17.6 23.7 28M602.7 2158.3c17.4-3.9 19.9 5.8 23 16.7 2.3 8.2 8 15.4 11.4 23.4 2.3 5.3 5.2 11.8 3.9 16.7-.8 3.2-11.2 7.8-13 6.4-18.9-14.5-38.9-.6-57.9-3.9-8.4-1.4-19.4-5.5-23.2-11.9-6.4-10.6 3.6-16.2 12.5-21.8 15-9.5 21.6-33.4 43.3-25.6m2354.7-196.1c-30.4 15.1-54.6 9.8-68.5-14.9-7.7-13.7-14.2-28.9-17.1-44.2-1.5-7.6 6.2-16.9 9.7-25.5 5.9 3.9 12.9 6.8 17.4 11.9 15.7 17.8 30.6 36.2 45.7 54.6 4.2 5.3 7.8 11 12.8 18.1m-696.9-775.7c-12.2 12.2-21.8 26.4-35.2 33.8-13.8 7.7-21.5-7.9-29.6-17-2.8-3.1-4.6-7.1-7.5-10.1-8.7-9-20.2-18.5-10.6-31.6 9.3-12.7 23.1-19.1 39.7-11.5 10.5 4.8 22.1 8 31.5 14.4 5.3 3.7 6.9 12.5 11.7 22M429.1 585.9c-27.9-23.4-53-44-77.5-65.2-3.5-3-7.7-10.8-6.3-12.8 3-4.4 9.1-8.5 14.4-9.1 28.5-3.4 52.3 9.6 70 29 13.8 15.1 7.8 35.8-.6 58.1m1350 1372c-28.7 14.9-54.1 10.2-67.8-10.5-22.4-34-24.4-58.6-3.6-75.8 23.6 28.6 47.3 57.2 71.4 86.3m1092.3 901.8c-26.3 11-45.2 40.5-80 23.1-9.7-4.8-16.1-9-13.6-21.2 3.3-16.2 5.4-32.6 8.3-50.3 28.4 16.1 55.1 31.2 85.3 48.4M87.1 883.8c-15.7 9.5-30 20.1-45.9 27.4-24 11.1-49.4-7.6-46.3-33.2 1.6-13.5 4.7-26.8 7.4-41.8 28.8 16.2 55.8 31.4 84.8 47.6m1253.6-343.6c-29.8-16.5-56.3-31.2-82.5-45.7 21.3-26.1 52.6-37.1 78.3-24.6 5.6 2.7 11.8 11.8 11.5 17.7-.7 17.1-4.5 34.1-7.3 52.6M1154.1 1098c-27.9-27.2-36.6-53.6-23.5-79.5 2.8-5.5 12.2-11.1 18.2-10.7 16.9 1 33.6 5.1 51.3 8.1-15.7 28.2-30.6 54.6-46 82.1m1323.2-938.1c-17.4 8.7-31.1 14.9-44.2 22.3-12.6 7.1-24.6 15.3-41.2 25.8-3.4-21.6-7.7-39.9-8.6-58.5-.7-13.3 32.8-25.6 48-17.6 15.1 7.9 29.3 17.8 46 28M2447 987.2c-16.6 29.2-31.1 55-46.8 82.6-9-15-19.4-29.4-26.7-45.2-11.3-24.2 7.5-50 33.4-46.6 13.5 1.8 26.6 6 40.1 9.2m-388.8 537.9c-14.9-26.3-30.1-53.1-46.9-82.6 22.5-3.1 43.2-5.9 63.4-8.7 21.3 40.5 21 40.9-16.5 91.3m-601.1-113.4c4.1 5.4 4.7 5.9 4.8 6.4 10.9 52.1 18.9 47.1-33 47.5-16.5.1-33.5 7.6-43.2-14.7-4.4-10.2-4.8-15.8 5.7-19.2 22.6-7.2 45.3-13.8 65.7-20m1374.6-439.4c-7.7 22.3-19.2 34.3-44.6 27-12.2-3.5-26.2-.6-43.4-.6 1.9-17 3.7-32.2 5.7-50.2 30 .5 58.1 5.2 82.3 23.8m-407.1 1456.6c3.8-.5 10.9-1.4 10.9-1.3 3.4 23 21.6 43.9 8.5 69.4-6.9 13.4-17.6 16.2-29.2 12.9-6.4-1.9-12.4-9.9-15.9-16.6-16.3-31.4 1.2-49.9 26.3-65l-.6.6zM725.5 2653.6c18.7-8 37.4-16.2 56.3-23.8 2.4-1 8.4.8 9 2.5 6.5 20.3 12.3 40.7 18.2 61.2-2.1 1.7-4.3 3.4-6.4 5.2-25.9-11.2-51.8-22.5-77.6-33.7.1-3.9.3-7.6.5-11.4m1603.8-236.2c-20.3-2.3-38.2-3.3-55.6-6.6-16.1-3.1-18.5-13.3-5.9-24.3 14.5-12.5 30.3-23.7 45.6-35.3 9.6-7.3 15.6-5.4 15.8 7.3.3 18.2.1 36.4.1 58.9M-16.6 298.7c14.4-2.3 26.7-4.2 39-6.2 12.6-2.1 21.1 1.3 25.4 14.8 4.4 14-1.5 20.8-13.4 25.7-9.4 3.9-18.5 8.6-27.9 12.5-12.5 5.2-26.9-4.6-28.2-19.1-.4-4.1-.6-8.4.2-12.4 1-5.2 3.2-10.3 4.9-15.3M1488 1555c1.2-11.8-1.3-26.2 4.7-34.5 5.6-7.8 20.6-12.9 30.9-12 11.5 1 21.6 11.3 17.2 25.8-3.3 11.1-7.4 22.8-14.3 31.6-4.9 6.2-15.9 11.9-23 10.7-7.5-1.3-13.4-11.1-20.1-17.2 1.6-1.4 3.1-2.9 4.6-4.4m1217.5-548.4c14 .2 23.9 3.7 21 21.7-1 6.3 1.7 13.6 3.9 20.1 5.2 15.5-3.1 22.7-15.8 28.3-14.6 6.4-18.2-5.3-23.1-13.9-4-7.1-6.8-14.9-9.9-22.5-8.9-21.8-.5-33.7 23.9-33.7m-2750-865.9c15.6-23.3 41.4-39.3 90.3-57.8 10.2 34.3 5.5 43.2-28.2 49.4-19.7 3.5-39.6 5.4-62.1 8.4m570.2 2178.2c-13.1 0-23.4.6-33.6-.3-4.2-.4-11-3.4-11.6-6.3-6.1-27.9-11.1-56.1-13.4-85.2 30.4 23.3 41.4 57.5 58.6 91.8m-82.8-528c0 22.6.8 45.3-.7 67.8-.3 4.5-8.7 11.4-14 12.1-13.9 1.7-28.2.6-43.8.6 18.6-29.2 36-56.4 53.3-83.6 1.8.9 3.5 2 5.2 3.1M2517 2592c-37.3-14-39.9-19.2-25.6-51.7 7.8-17.6 16.3-34.8 27.2-51.8 13.8 34.9 2 68.7-1.6 103.5M1983.8 422.4c1.6 6.5 3.8 12.9 4.6 19.4 1.3 11 2.3 22.1 2.5 33.1.4 20.6.1 41.3.1 62.2-12.7 2.7-20.5 4.4-32.7 7.1 5.9-41.2 11.6-80.3 17.2-119.4 2.8-.8 5.5-1.6 8.3-2.4M708.4 561.3c-12.4 19.3-21 36.2-33.4 49.9-3.7 4.1-18.8.7-26.7-3.2-3.3-1.7-4-14.5-1.7-20.7 11.9-31.3 12.4-31.1 61.8-26m852.5 889.2c7.6 3.9 13.5 5.7 18 9.3 12.2 9.7 24.3 19.8 35.6 30.5 4.7 4.5 7.4 11 11 16.6-6.4 3-12.6 8.1-19.1 8.5-39.9 2.6-52.1-14-45.5-64.9m617.1 721.2c20.4 9 45.4 7.8 53.6 32.4 2.2 6.5-1.6 16.5-5.7 22.9-2.3 3.5-11.8 5.1-16.8 3.5-33.7-10.4-34.3-12-31.1-58.8M359.6 2247c-48.3-13-53.7-20.5-46.1-61.8 22 5.6 46.5 7.9 54.5 33.7 2.4 7.9-5.4 18.9-8.4 28.1m1685.8 557.7c-7.5 8-8.7 24.4-28.8 16.5-31.9-12.4-32.4-11.3-28-56.7 23.7 5.4 47.5 9.2 56.8 40.2M998 2254.1c16-53.3 15.7-46.8 59.3-42.4-10.2 53.5-29.4 67.2-59.3 42.4m595.4-2000.3c-4.1-43.7-2.9-46.4 30.8-57.2 5-1.6 14.1.4 17 4.1 4.2 5.5 7.6 15 5.7 20.9-6.3 18.8-14.6 22.9-53.5 32.2m1111.7 674.8c11 56.3-4.5 64.2-48.6 65.7-11.9.4-18.8-8-9.4-17.1 17.2-17.1 37-31.4 58-48.6" clip-path="url(#d)"/><g opacity=".3" clip-path="url(#d)"><defs><path id="e" d="M-2036-1107.7h4989.3v4805.4H-2036z"/></defs><clipPath id="f"><use xlink:href="#e" overflow="visible"/></clipPath><path fill="#FBD5C6" d="M1600 462.8c5.3-28.2 8.7-52.3 14.8-75.6 2.1-8 9.7-17.2 17.2-20.8 49-23.6 101.2-37.4 155.2-43.8 22.4-2.6 35.8 10 36.5 32.2 1.5 48-13.5 92-34.8 133.6-4.5 8.7-20.4 17-30.4 16.2-17.2-1.3-36.8-5.9-50.3-16-21.9-16.3-44.6-24-71.2-24-11.6-.1-23.2-1.1-37-1.8M1420 2815c5.1 22.8-6.6 31.2-24.1 34.9-.7.1-1.2.7-1.8 1-54.9 21.4-81.9 10.2-91.9-48.5-4.1-23.7-5.7-48-11.5-72.1-4.8-19.9 15.9-42.8 37.9-44.7 18.4-1.6 37.3.7 55.8 3 21.1 2.6 42.1 6.3 62.8 11.1 15 3.5 32.4 5.6 32.9 27.9.1 4.4 5.6 9.7 9.9 12.8 14.9 10.6 18.8 26.4 12.2 40.6-7.7 16.3-18.4 33.5-40.8 33.9-13.2.3-26.3.1-41.4.1M1029.8 204.1c9.4 0 20.5.9 31.5-.2 23.9-2.4 37 12.6 45 30.7 7.5 17 3.9 34.2-14.1 45.4-3.2 2-6.8 6.2-7.1 9.6-2 29-25.8 26.5-44.4 30.9-14.6 3.5-29.5 6.7-44.5 7.8-22.4 1.7-45.6 5-67.3 1.3-30.1-5.2-40.5-34.4-27.2-62.1 4.1-8.5 6.5-19.7 4.9-28.8-5.8-34.8 15.5-57.5 34.1-81.5 2-2.6 8.1-4.2 11.3-3.2 22.9 7.2 46 14.1 67.9 23.6 5.1 2 5.7 14.1 9.9 26.5m229.6 2326.3c-4.5-19.6-6.3-37.3-12.9-53-6.2-14.8-18.2-27-26.2-41.2-9.7-17.2-19.6-34.7-25.7-53.3-2.2-6.6 4.2-19.4 10.5-24.8 34.8-29.3 75.7-46.8 120.1-55.4 20.1-3.9 34 8.6 35.9 30.3 4.7 53.5-4.6 105.6-17.4 157.2-1.3 5.3-6.2 11.8-11 13.7-23.6 9.4-47.7 17.4-73.3 26.5M2228.2-98.7c13.9 23.3 30.7 16.1 47 6.4 10.5-6.2 19.4-9.7 32.8-6.2 8.7 2.3 20.6-3.9 30-8.5 21.9-10.7 39.7-4.8 45.3 18.3 1.7 7-1.2 18.5-6.3 23.3-34.9 33.1-69.2 67.3-107.5 96.1-14.9 11.2-39.4 10.1-59.8 12.9-3.2.4-10.1-7.6-11-12.5-5.3-27.9-9.6-56-13.3-84.2-.5-3.6 3.7-8.6 6.9-11.8 10.9-10.7 22.2-21 35.9-33.8M70.6 79.9C33.3 34.4 30.2-19.2 20.4-70.3c-5.3-27.6-3-27 25.9-28.7 17.8-1.1 35.5-5.3 53-9 12.6-2.6 16.9.7 17.8 14.4 2.9 41.4 7.8 82.6 11.3 123.9.4 4.6-2 11.4-5.5 14-16.7 12.3-34.1 23.4-52.3 35.6m185.1 1445.4c13.4-11 22.5-18.5 27.9-22.9 45.9 19.4 89.7 37.5 133 56.6 6.2 2.7 13.7 10.1 14.2 15.8.5 5.3-6.8 12.2-12 17.1-10.3 9.7-21.1 19-32.5 27.4-3.7 2.7-11.8 4.4-14.6 2.2-21.9-16.5-43.8-11.9-65.5-1-22.8 11.3-38.5-3-54.5-14.7-2.9-2.1-3.8-10-2.4-14.2 3.8-11.8 9-23.2 14.3-34.5 5.4-11.9 12.1-23.4-7.9-31.8m2120.9-29.3c7.2 8.5 14.3 17 18.5 22-18.8 44.4-36.4 87-55 129.2-3.4 7.6-10.7 18-16.9 18.5-6 .5-13.6-9.4-19.4-15.9-9.3-10.4-17.6-21.6-29.3-30.5-.4-1.3-1.5-3.1-1-3.9 18.7-28.2 14.1-56.7 2-85.8-4.4-10.5 9.5-42.9 19.3-47.3 3.8-1.7 9.6-1 13.8.6 9 3.3 17.2 9.2 26.3 11.7 12.5 3.4 25.6 4.6 38.5 6.7 1-1.8 2.1-3.5 3.2-5.3m-919.3-314.1c12-1.2 18.3-3.5 23.7-2.2 35.4 8.9 71.4 16.2 105.5 28.7 23.6 8.6 24.1 26.1 5.9 43.1-3 2.8-5.9 6.3-7.2 10.1-10.3 29.7-36.5 41.9-60.6 56.7-12.6 7.7-19.4 3.5-23.6-8.8-14.2-41.3-28.3-82.7-43.7-127.6M280.2 2818.7c-16.8 51.8-32.3 99.5-49 150.9-32.1-20.5-62.4-32-76.7-63.5-1.9-4.2-5.1-8.2-8.5-11.3-16.7-15.4-17.9-32.9.9-43.6 39.4-22.7 83.1-30.7 133.3-32.5M2840 642.6c-12.4 57.5-25.7 105.9-50.1 152.3-31.1-17.9-59.8-33.2-74.8-64.7-1.7-3.6-4.8-6.8-8-9.3-16-13.2-17.4-22.3-3.1-36.6 7.1-7.1 16.2-14.4 25.6-16.8 34.5-9 69.5-15.9 110.4-24.9m-1393.1 572.5c2.8 9 4.7 18.5 8.7 26.9 13.5 28.2 27 56.4 42.2 83.7 9.3 16.7-.5 26.6-10.5 35.3-10.5 9.1-21.2 3.2-29-6.1-19.5-23.4-39-46.7-57.2-71.1-3.6-4.8-1.5-14.4-1.1-21.7.9-15.8 2-31.6 3.9-47.4 1.1-8.9 1.5-19.7 6.7-25.9 4.8-5.7 20-11 22.8-8.3 8.7 8.3 13.6 20.5 19.9 31.2-2 1.1-4.2 2.3-6.4 3.4m-978.5-101.3c24.7 22 28.8 51 39.1 76.9 4.6 11.5 8.5 23.2 13.3 34.5 10.4 24.4-4.7 40.3-17.5 57.8s-29.6 15.6-46.9 11.3c-3.4-.9-8.2-6.6-8-9.8 2.8-51.9-6-104.8 12.6-155.3 1.8-4.7 4.4-9.1 7.4-15.4m1597 1398.1c19.2 34.6 38 68.5 57.4 103.5-6.6 2.1-12.1 3.8-14.2 4.5-18.5-24.5-35.2-47-52.5-69-12.2-15.7-12.3-28.4 9.3-39" clip-path="url(#f)"/></g><path fill="#FBD5C6" d="M1113.1 615.4c-18.6-20.7-32.6-36.3-49.4-55 8.1-3.5 18.5-12.3 24.7-10 16.1 6 33.1 14.6 43.8 27.3 3.5 4.1-11.7 23.9-19.1 37.7M540.7 2583.2c-18-20.4-31.9-36.1-48.2-54.6 6.6-3.3 17-12.9 22.8-10.7 16.6 6.5 33.2 15.9 45.5 28.5 2.6 2.8-12.3 22.9-20.1 36.8m1884.6-155c-16 10.3-32 20.6-48.1 31 .5 2.2 1.1 4.4 1.6 6.5-5.3-6.2-10.7-12.5-17.1-20 4.9-10 9.2-21.6 15.9-31.6 5.1-7.5 16.9-19.5 19.4-18.1 10.6 5.9 18.9 15.8 27.6 24.8 1.3 1.4 0 5.3-.1 8.1.1 0 .8-.7.8-.7m-610.9-352.1c18.1 9.5 31.8 14.9 43.1 23.5 4.4 3.3 6.6 15.5 3.9 20.8-9.3 18.7-29.3 22.1-47 11.1v-55.4zm662.7-911.2c-8.2-14.1-20.9-26.3-18.5-33.7 4.9-15.3 11-35.7 36-31.7 15.8 2.5 23.6 17.1 14.1 30-7.8 10.6-17.4 19.7-31.6 35.4m-517.9-887.7c18.7-20.5 36.4-39.8 54.1-59.2 10.7 11.7 8 46.6-3.6 58.1-10.6 10.4-39.9 11.6-50.5 1.1M2407.1 2801c-9.9-12.3-17.8-23.6-27.3-33.4-8.8-9-19.4-16.3-29.8-24.8 18-13.4 43.4-12.2 54.3-.9 11.5 11.9 14.6 45.3 2.8 59.1M615.6 2464.8c-14-5.9-25.9-10.4-37.2-16-9.2-4.6-12.8-11.3-2-18.5 11.3-7.6 22.7-14.9 34.3-22.4 25.2 12.6 27 38.3 4.9 56.9m156.1-11.8c13.4-22.7 22.8-38.7 34.1-58 9.7 14.4 7.7 31.4 26.7 33.8 8.3 1 2.8 23.5-8.7 24.9-14.9 1.8-30.3-.2-52.1-.7M2810.8 543.4c-6.8-5-18.8-9.5-19.4-15.2-1.4-14.6 2.1-29.6 4.2-44.4.1-.7 6.7-1.9 9-.6 14.2 7.9 28.1 16.4 41.8 24.6-13.2 10-23.9 18-34.6 26.1-.3 3.2-.7 6.4-1 9.5M22.1 1891.2c6.1-14.4 8.3-28 12.8-28.8 14-2.4 28.8-.4 43.1 1.3 1.8.2 5 10.5 3.2 13.7-7.7 14.2-16.9 27.5-28.4 45.6-5.4-18.5-.8-38.6-30.7-31.8m144-439.1c13.8-10 24.2-17.5 34.7-25 0-3 .1-6 .1-9.1 7.2 5.2 19.5 9.7 20.4 15.9 2 13.6-1.5 28-3.6 42-.1.6-9.4 1.4-13-.5-13.2-7.2-25.8-15.5-38.6-23.3m1935.8 305c12.8-3.2 30.1-1 24.7-28.2 12.9 5.8 26.8 8.3 27.7 13.2 2.6 13.7.2 28.5-1.5 42.8-.2 1.5-9.3 4.4-12.3 2.9-14.2-7.3-27.7-16-41.5-24.2 1.1-2.1 2-4.3 2.9-6.5m858.9-643.8c-8.6 18-14.7 31-21.4 45.1-7-3.2-13-5-17.8-8.4-6.7-4.8-12.4-10.9-18.5-16.5 6.6-6.7 12.2-16.7 20.2-19.4 10.3-3.3 22.5-.8 37.5-.8m-791.1-636.4c17.7 2.1 37.9.7 43.2 19.7 1.5 5.5-20.5 25.8-29.7 24.6-27.4-3.8-14.6-26-13.5-44.3M269.1 1887.6c-5.3 14.9-10.5 29.7-16.5 46.6-12.9-7.4-25.1-14.4-37.3-21.4 16.3-29.7 16.8-30 53.8-25.2m972.5 149.4c-23.3 33.8-32.7 39-46.3 28.9-7.5-5.6-9.8-36.2-2.9-36.6 15.3-1 31.1 4.4 49.2 7.7M446.9 937c-20.9-1.6-45.7 7.7-52.8-26.3 9.9-6.5 21.7-14.2 34.9-22.9 6.1 16.9 11.6 32 17.9 49.2m1683 1038.7c-16-5.4-30.8-10.4-47-15.9 7.8-13.1 14.7-24.8 21.5-36.4 27.2 9.8 27.2 9.9 25.5 52.3m634 683c4.3 19.4 10.3 38.7 11.7 58.3.4 5-13.9 11.1-21.4 16.7-2.1-1.3-4.2-2.7-6.3-4 1.2-23.2 2.3-46.4 3.5-69.6 4.1-.4 8.3-.9 12.5-1.4m-406.8-2300c-1.8-22.5-3.6-45-5.3-67.1 22.3-4.9 34.8 4.3 30.7 22.2-3.5 15.6-10.8 30.4-16.4 45.5-3-.1-6-.3-9-.6M718.8 2673.6c-13.7 7.4-26.2 14.2-38.9 21-5.7-16.7-10.5-30.8-15.3-44.9 30.6-7.3 33.5-6.2 54.2 23.9M950.2 465.8c-12.2 7.1-23.4 13.6-36.7 21.3-5.5-16-10.7-31-16-46.2 23-4.3 43-3.6 52.7 24.9M216.9 352.7c19.3-23.5 44.7-30.9 61.8-20.8 4.8 2.8 6.3 11.4 9.3 17.3-4.5 2.2-9.1 6.3-13.6 6.3-17.4-.2-34.8-1.6-57.5-2.8m1418.6 1796.7c-3.2-55.2-3.2-55.2 18.2-70.2 1.9 22.4 4.4 42.7 4.5 63 0 2.3-13.8 4.5-22.7 7.2m50.8-1559.2c-17.6-.2-35.5-14.3-29.9-23.1 7-11.1 20.8-17.8 31.8-26.4.4-.3 1.8-.2 2 .1 2.3 4.5 6.5 9.2 6.3 13.7-.5 11.2-2.7 22.3-4.9 33.4-.4 1.4-4.7 2.1-5.3 2.3M1022 2798.9c-16.6.7-30.5-6.7-25.2-21.9 3.7-10.7 20.3-17 31.2-25.2.4-.3 1.8-.1 2 .2 2.3 4.4 6.6 12.6 6.4 12.7-13.9 7.6 15.7 34.8-14.4 34.2M107.6 1380.8c38.6 13.3 15.8 40.4 20.5 60.1-23.2 10.3-24.7 9.6-24-13.2.5-15.3 2.3-30.6 3.5-46.9m1150.1 60.4c9.3 2.5 19.1 3.8 27.7 7.8 6.4 3 11.2 9.4 16.7 14.3-5.4 5.7-9.9 13.8-16.5 16.4-6.5 2.5-19.2 2.1-22.2-2.1-6.7-9.4-9-21.9-13.1-33.1 2.5-1.2 4.9-2.2 7.4-3.3m-647.6-10c-34.2-.3-43.4-32.9-66-52.3 23.2-2.7 54.6 21 66 52.3m2193.8 1106.2c4.7.7 5.9.7 5.9.9 1.9 13.6 4.3 27.3 4.8 41 .1 1.6-9.9 4.7-15.5 5.3-15.4 1.7-27.7-8.3-23.4-20.7 4-11.5 19.7-19 28.2-26.5M1655.5 2550c1.3 7.8 3.8 15.6 3.6 23.3-.2 4.7-4.9 13.2-7.2 13.1-9.3-.6-19.8-1.8-27.1-6.8-4.5-3.1-7.8-17-5-19.9 8.3-8.8 19.4-15.2 30.2-21.2 1.8-1 7.5 5 11.3 7.8-1.9 1.2-3.8 2.4-5.8 3.7m-108.7-799.4c1.3 15.9 3.1 30.5 3.4 45.2.5 24.5.1 24.5-24 15.8 5.4-19.8-19.1-47.2 20.6-61m1400.7 50.5c1.2 24.3 2.6 43.4 2.7 62.5 0 2.8-7.2 8.6-8.9 7.9-5.7-2.3-11.5-6.2-15-11.1-2.2-3.2 1.4-10.1-.5-13.8-10.3-20.1 1.5-30.6 21.7-45.5M355.3 2169.7c1.6-10.7 2.4-21.6 5-32 1.5-6 6.1-11.3 9.2-16.8 6.7 4.3 15.7 7.1 19.3 13.2 3.5 5.8 4.6 18 .9 22-7.6 8.2-19.1 12.7-29 18.7-1.7-1.7-3.5-3.4-5.4-5.1M2589 278.7c-14.4 4.6-28.8 9.3-49.9 16.1 5.9-20.8 10.2-35.9 16-56.3 13.8 12.8 24.3 22.4 34.8 32.1-.3 2.6-.6 5.3-.9 8.1M925.5 2726.8c1.1 23.3 2.4 41.7 2.4 60.1 0 3.5-5.1 10.1-7.5 10-4.9-.3-11.7-3-14-6.8-11.5-19.9-5.7-43.7 19.1-63.3m1605.8-599.5c17.6 3.7 33.4 7 50.4 10.6-5.4 18.7-15.8 31.9-31.1 28.5-14.1-3.1-24.8-16.6-19.3-39.1M812.8 1088.9c39.4 15.4 15.3 41.6 18.2 62.2-22.3 6.8-22.5 6.5-20.8-16 1.1-15 1.7-30 2.6-46.2M2677 1215.2c-3.2 17.4-9.8 29.5-28.4 26.9-4.5-.6-12-4.8-12.1-7.6-.5-11.8 1.3-23.7 2.2-35.6 6.1 1.4 12.6 1.9 18.2 4.3 6.8 3 12.9 7.6 20.1 12m-171.8-718c16.1-1.5 32.3-2.9 56.1-5.1-7.5 18.5-13.1 32.2-18.7 45.9 1.2-3.3 2.4-6.7 3.6-10-10.7-11.4-21.5-22.8-32.2-34.2-2.9 1.2-5.8 2.3-8.8 3.4M617 220.9c23.8 0 25.3 2.7 19.4 17.8-1.1 2.8 1.5 6.7 1.6 10.2.1 4.6 1.2 11.5-1.2 13.2-2.9 2.1-9.4 1.1-13.6-.6-5-1.9-10.5-5-13.3-9.2-3.4-5.1-7.3-13.2-5.4-17.6 2.9-6.9 10.6-11.8 12.5-13.8M875.6 1654c-13.7 9.1 14.6 36.1-17.3 33.1-11.7-1.1-27.4-6.5-21.5-20.7 4.3-10.4 19.8-16.2 30.2-24 2.9 3.8 5.7 7.6 8.6 11.6m-164.1-497.8c.4.1-4.1-.6-4.2-1.7-1.2-13.3-1.8-26.7-2.5-40 4.4 0 10.7-1.9 13 .3 7.9 7.5 15.3 16 20.8 25.3 1.2 2.1-5.1 10.3-9.6 13.5-3.5 2.6-9.5 1.6-17.5 2.6M2796.3 146.6c4.7-20.5 8.3-36.1 12.2-53 14.6 6.1 27.4 11.8 24 28.4-3.1 15.2-15.4 20.9-36.2 24.6m-909.1 349.7c-7.9 6.4-16 18.2-23.5 17.8-9.1-.5-19.6-9.8-26-18-5.1-6.7-1.3-15.9 9.9-14.3 12.2 1.8 24.1 5.5 36.1 8.4 1.1 2 2.3 4.1 3.5 6.1m-750.5 1590.3c-10.4 5.9-22.1 17.8-31 16-9.4-1.9-16.3-16.8-24.2-26 1.5-2.3 3.1-4.6 4.6-6.9 15.8 2.3 31.5 4.5 47.3 6.8l3.3 10.1zm1126.8 415.7c4.7 12.6 16.3 28 12.5 37.1-5.9 14.2-23.6 6.9-31.6-1.7-14.2-15.4 5.8-22.4 9.2-33.8 3.4-.5 6.7-1 9.9-1.6m126.5-471.9c-2.5 11.1-1.9 28.9-8.2 31.8-11.3 5.2-26.7 1.5-40.5 1.5-.6-2.2-1.2-4.3-1.8-6.5 14.5-9.1 28.9-18.1 43.4-27.2 2.3.2 4.7.3 7.1.4m-1273.2-42c6.8-7.7 13.6-15.4 20.3-23.1 7.1 7.3 15.2 13.9 20.9 22.1 1.9 2.8-2.2 14-3.4 14-12-.2-24-2-36-3.4-.6-3.3-1.2-6.5-1.8-9.6M277.3 620.3c-2.1-11.6-3.9-22.3-6-33.8h39.8c-2.6 19.6-8.5 34.5-33.8 33.8m1727.3-61.2c11 12.5 28.5 20.3 17.9 37-2.5 4-24.8 2.2-30.4-3.9-12.4-13.5 2.5-22.3 12.5-33.1m327.8 646.4c12.6 9.2 23.2 18.4 14.4 32.4-7.4 11.8-22.5 13.3-30.2 2.4-12.6-17.8 12.3-21 15.8-34.8m600.9 1383c-5.4 2.6-10.8 5.2-16.2 7.7-12.5-6.2-9.6-14.1-3.4-23.6 11.5-17.6 24.7-11.8 40.9-3.1-7.6 6.9-14.5 12.9-21.3 19m-1837.6-122.8c9.4 10.2 19.7 16.6 21.4 24.8 1.4 6.8-7.4 15.7-12.2 24.4-23.7-12.9-17.7-27.9-9.2-49.2m687.3-665.1c10.9 2.7 20.6 5.1 30 7.5-2.7 24.4-4.1 25.8-30 30.6v-38.1zm-654.6 854.3c.4 22.8-7.9 35-23.2 33.2-4.8-.6-13-9.6-12.3-13.1 3.9-18 19-19.6 35.5-20.1m148.7-1403.5c-1.5 15-1.3 31.2-21.6 33-3.6.3-11.3-8.4-11.5-13-.4-16 11.4-22.6 33.1-20m-207.9 1084.2c-20.1 27.2-37.3 27.1-53.6 0h53.6zM189 2273.2c-19.9 19.4-39.6 13.9-54.4-17.8 17.4 5.7 34.8 11.4 54.4 17.8m2172.1 15.4c-9.3 9.8-18.5 19.7-27.8 29.5-3.2-5.7-9.5-11.7-9.1-17.2 1.6-19.4 14.6-22.6 36.9-12.3m-58.5-124.3c27.2 20.4 26.5 36.4 0 50.9v-50.9zM2.2 2032.9c-7.8-13.9-15.5-27.9-26.9-48.2 13.5 3.9 28.8 4 31.7 10.1 5.1 10.6 2.5 24.8 3.2 37.5-2.7.2-5.3.4-8 .6m694.6 712.2c-1.4 16.2-1.8 32.1-21.4 35.3-3.4.5-11.9-7.8-11.5-11.3 2-17.3 11.6-27.2 32.9-24m1093.5-575.3c-2.8 15.4-4.3 30.9-22.8 33.2-2.7.3-10.1-9.9-9.6-14.6 2.1-17.4 12-25.9 32.4-18.6m-750.2-1063.5c20.6-7.5 30.3 1 32.4 18.4.5 4.3-6.6 13.9-9.6 13.6-18.7-1.5-20.1-16.7-22.8-32m301.6 284.6c-11.5-5.1-18.3-8-26.2-11.5 1.5-15.4 2.9-30.7 4.3-46l7.8-1c4.4 18 8.7 35.9 14.1 58.5m1268.5 612.3c-6.3 16.9-12.6 33.7-21.3 56.9-5.5-12.8-13.3-22.4-11-27.3 6-12.9 16.4-23.8 25.1-35.4 2.4 1.9 4.8 3.8 7.2 5.8M464.8 2573.7h53.6c-18.1 26.7-38.5 27-53.6 0m529.7-890.2c-8.8 9.8-17.6 19.6-26.3 29.5-3.5-5-10.5-10.5-10-15 2.2-17.6 13.5-24.4 36.3-14.5M2869.8 516.1v-46.7c3.1-.8 6.2-1.6 9.2-2.4 4.1 10.5 10.7 20.8 11.5 31.5.5 6.3-8 13.3-12.4 20.1l-8.3-2.5zM299.2 304c-6.6-20.1 5.2-27.1 20.1-29.1 4.2-.6 14.4 9.3 13.7 11.5-5.2 14.9-16.8 21.1-33.8 17.6m1556.4 1694.2v-52.6c26.3 18.8 27.1 36.3 0 52.6m743 791c15.2-10.9 28.1-9.2 40.5-3.2 2.3 1.1 3.7 10.8 1.8 12.7-4.5 4.4-12.6 10.1-16.9 8.6-8.5-2.9-15.3-10.4-25.4-18.1M-13.2 1750.4c-2.1-11.7-4.3-23.3-6.4-35 1.8-1.6 3.6-3.3 5.3-4.9 8.4 4.9 23.1 8.9 23.8 14.8 1.1 8.3-8.1 17.9-12.9 27-3.2-.7-6.5-1.3-9.8-1.9m1048.4 190c6.3 15.5 12.7 31.1 21 51.5-35-13.5-38-20.7-21-51.5m760 632.7c-12.7 7.5-25.4 15.1-38.2 22.6-2.5-2.6-5.1-5.1-7.6-7.7 5.9-8.4 10.2-20 18.3-24.3 6.6-3.6 17.9 1.5 27.1 2.7.1 2.3.2 4.5.4 6.7m456.7-2340.5c-16.5 1.3-30.6 2.4-44.8 3.5 24.2-29.7 32-38.1 44.8-3.5m564.5 956.9c-5.5-7.8-10.9-15.5-16.4-23.3 8.3-5.5 16.7-10.9 25-16.4l6.6 3c-1.7 11.8-3.5 23.6-5.2 35.4-3.4.5-6.7.9-10 1.3m109 519.4c17.3 30.1 16.7 33.8-6.9 43.6-4.8-15.5-14.1-31.5 6.9-43.6M947 2386.2c-16 1.1-28.4-2.7-31-19.9-.4-2.6 7.8-9.5 10.8-8.9 13.8 3 27.9 7.3 20.2 28.8m1931.7-99.1c-10.4-6.7-20.8-13.4-34.2-22 9.7-7.3 16.5-12.4 27.3-20.5 4.4 14.4 7.9 26 11.5 37.6-1.6 1.6-3.1 3.2-4.6 4.9m-1078-612.5c-11.2 12.9-19.2 22.1-27.2 31.3-3.2-3.8-9.2-7.7-9.2-11.4.3-17.4 11-23.4 36.4-19.9m104.7-580.3h43.1c.9 1.8 1.8 3.6 2.7 5.3-3.8 4.3-7.9 12.5-11.4 12.2-12-1-23.7-5-35.6-7.8.4-3.2.8-6.4 1.2-9.7m237 1066c5.4-19.4 14.8-35.5 30.6-46.6-9.8 15.9-6.2 42.3-30.6 46.6M144.8 599.1c-1.5-16.1-.1-29.1 18.9-29.3 3.9 0 11.4 5.6 11.2 8.3-1 18.8-16.4 17.9-30.1 21M2956.6 1675c-10.5 12.5-18 21.6-25.5 30.6-3.5-4.2-10.1-8.4-10-12.5.5-16.6 11.1-21.8 35.5-18.1m-1236.4 610.1c-9.2-5.8-18.3-11.6-33-20.8 11.9-5.5 19.6-9.1 27.3-12.7 3.6 10.2 7.2 20.4 10.9 30.6-1.7.9-3.5 1.9-5.2 2.9m-283.9 223.5c-2.1-7.2-7.6-15.9-5.3-21.1 2.4-5.4 12.5-7.3 19.2-10.7 1.7 1.5 3.4 3 5.1 4.4l-10.5 27.4c-2.8.1-5.7 0-8.5 0m79.2-119.9c-22 .4-24.8-6.8-18.2-44 7.1 17.2 12.2 29.4 18.2 44M1410.8 145.5c-14.3-9.8-22.2-19.4-8.1-34.8 12.9 9.4 16.7 19.8 8.1 34.8m-716 1111c-5.5-13.2-9-21.8-13.3-32.2 25.7 3.4 27.5 6.9 13.3 32.2M661.6 154.9c-28.3-9.8-29.2-12.5-12.7-33.6 4.3 11.2 7.7 20.2 12.7 33.6m1568.7 1507.4l37.6-14.1c-1.9 20.8-6.1 22.4-37.6 14.1" clip-path="url(#d)"/><g opacity=".4" clip-path="url(#d)"><defs><path id="g" d="M-1991.4-1107.7h4899.9v5045.2h-4899.9z"/></defs><clipPath id="h"><use xlink:href="#g" overflow="visible"/></clipPath><path fill="#FBD5C6" d="M2402.9 708.8c8.2-28.5 13.9-56.7 25.1-82.5 3.5-8 21.5-10.3 33.2-14.1 39-12.7 42-11.3 60.8 25.7 12.6 24.8 24.2 50.3 38.4 74.2 8.3 14 20.3 26.1 31.9 37.8 17.7 17.9 37.2 34 54.5 52.2 22.3 23.3 18.9 48.3-6.6 68.7-7.3 5.9-15.5 13.6-18.1 22.1-14.1 45-54.7 50.9-90.9 62.7-3.3 1.1-11.9-6.3-14.5-11.5-36.5-73.4-72.3-147-108.3-220.7-2.3-4.9-3.8-10.2-5.5-14.6m-982.8-445.7c-15.1 6.9-29.9 14.3-45.2 20.7-35 14.6-70.3 28.3-105.2 43-21.9 9.3-41.8 12.9-61-6.9-12-12.4-28.6-20.4-39.6-33.4-6.3-7.4-9.3-21.5-7.2-31.2 2.9-13.6 10.5-26.8 18.5-38.5 22.7-33.6 25.1-73 33.1-110.7 2.6-12.1 6.4-17.1 18.9-15.7 9 1 18.2.8 27.2 0 37.2-3.7 36.4-3.4 53.5 30.1 6.1 12 15.3 23.5 25.7 31.9 16.8 13.5 25.9 30 31.1 50.4 1.8 7.3 8.2 14.3 14.1 19.6 12.8 11.5 26.7 21.8 40.2 32.6-1.4 2.6-2.7 5.3-4.1 8.1m1127.8 1232.5c-19.6 7.7-36.7 13.4-53 21-12.7 5.9-21.2 2.9-31.7-5.8-16.2-13.3-35.1-23.5-51.9-36.1-12.4-9.3-23.2-20.9-35.4-30.5-9.8-7.7-20.2-15-31.4-20.5-12.3-6.1-25.8-10-38.7-14.9-.5-2.8-.9-5.5-1.4-8.3 19-15.5 38.5-30.5 57-46.6 26.7-23.1 52.8-47 79.3-70.4 11.4-10 23.5-12 38.1-5.1 15.5 7.3 32 13.3 48.6 17.6 19.5 5 22.8 18.1 21.2 34.8-1.8 17.9-5.3 35.7-5.8 53.6-.7 24.7.5 49.4 1.5 74.1.5 12.5 2.3 24.8 3.6 37.1M729 1875.4c-26.2 25.6-60.2 45.9-54.2 88.1-48.4 0-95.6 1.1-142.6-.7-12.7-.5-28.3 6.6-39-11.5-17.4-29.3-13.9-58.6 15.3-76.7 37.1-22.9 74.6-46.2 121.2-42.4 1.4.1 3.1.4 4.1-.2 27.3-17.1 50.3-2.9 71.5 12 9.8 6.8 15.2 19.7 23.7 31.4m1289.4-464.1c-19.4-5.8-35-12.3-51.2-14.9-14-2.3-28.7-.4-43.1-.1-16.9.4-34.3 3.7-50.7 1-16.8-2.8-29.5-12.3-29.4-33.9.2-38.4-1.4-76.7 12.9-113.3 11.2-28.8 19.2-32.4 46.8-20.6 46.9 20.2 84 53.9 119.7 89.3 3.9 3.8 6.7 11.3 6 16.6-2.7 24.7-6.9 49.3-11 75.9m-996.1-619.4c-9.6 8.9-17.3 18.1-26.9 24.4-6.2 4-15.8 6.5-22.7 4.9-9.7-2.3-18.6-8.9-27.5-14.1-19.9-11.7-37.7-26.4-64.5-15.2-17 7.1-30.8-5.4-39.6-22.3-14-26.9-30.7-52.4-46.5-78.3-7.6-12.4-16.4-24.2-23.4-36.9-8-14.4-15.1-30.7 1.5-43.1 19.7-14.7 46-17.9 60.5-1.7 37.1 41.5 75.1 82.2 113.4 122.6 5.8 6.1 14.7 12.2 22.7 13 29.4 2.6 42.7 21.9 53 46.7M1570.2 123c-32.6-13.3-63.2-25.7-97.7-39.8 8.6-13.2 18.4-25.8 25.4-39.9 4.3-8.6 5.5-19.4 5.9-29.2.4-12.2.9-21.5 14.2-28.9 9.9-5.5 19.4-17.4 22.4-28.4 6-21.6 16.5-20.1 29.5-9.1 31.8 26.9 62 55.9 94.7 81.7 19.3 15.2 25.6 33.4 24.2 55.8-.4 6.6-3.1 17.7-6.9 18.7-11.8 3.1-25.4 5.5-36.8 2.5-14.1-3.6-26.1-14.6-40.1-19.2-12.1-3.9-25.1-2.6-28.6 14.5-1.9 8.6-4.9 16.9-6.2 21.3m-331.3 2130.2c19.4-45.2 51.2-79.7 90.9-108.2 12.9-9.2 26.7-19.4 34.8-32.4 12.9-20.7 30.2-26.4 52.3-25.1 9.8.5 19.6.1 34.6.1-19.9 24.5-37.2 46.5-55.3 67.9-26.1 30.8-53 61-79 91.8-20.7 24.5-46 26.9-78.3 5.9m-436.4 126.4c-16 14.1-32.2 24-54.7 17.4-5.9-1.7-15 3.9-19.2 1.1-7.7-5.2-17.7-13.8-18.2-21.6-2.2-30.9-9.1-59.9-23.7-87.3-2.9-5.5-4.3-17.3-1.6-19.2 10.1-6.9 22.7-16 33.4-14.9 20.3 2.1 34.5 14.2 42.4 36.3 10.7 30.2 27.2 58.4 41.6 88.2m-357.4 376c-4.9 9.5-7.9 17.2-12.5 23.8-7.1 10.3-14.6 20.4-23.2 29.5-21.8 22.9-54 17.9-68.4-10.5-1.6-3.2-1.7-8.7-.1-11.9 9-17.9 14.8-40.9 29.4-51.6 13.1-9.6 36.6-8.5 54.7-6.2 7.6 1 13.3 17.2 20.1 26.9M253.3 704.5c-49 19.9-94.7 55.6-154.7 24.4 13.4-7.9 26.8-16.2 40.5-23.8 25.9-14.3 50.5-29.8 83.1-26.8 18.7 1.7 27.8 7.4 31.1 26.2m740.8 1799.9c8 17.6 17 32.3 20.7 48.2 1.4 5.8-8.4 16.6-15.5 21.4-14.7 9.8-30.8 17.7-46.8 25.2-5.4 2.5-14.1 4.3-18.1 1.6-6.2-4.2-14.1-13.2-13.1-18.8 1.7-10.3 7.4-21.7 14.9-29 16.2-15.9 34.8-29.6 57.9-48.6" clip-path="url(#h)"/></g><g opacity=".7" clip-path="url(#d)"><defs><path id="i" d="M-1991.7-1107.7h4941.3V3909h-4941.3z"/></defs><clipPath id="j"><use xlink:href="#i" overflow="visible"/></clipPath><path fill="#FBD5C6" d="M2807.3 2171.2c-52.9 2.3-114.2-38.7-130.3-89.5-16.4-52-31.3-104.5-45.7-157.1-1.8-6.5 1.4-17.5 6.4-22.1 44.7-41.1 90.1-81.4 135.8-121.5 20.2-17.7 55.6-13 66.5 11 10.3 22.9 21.5 48.4 20.9 72.5-1.1 45.3 11.1 84.5 34 122.2 20.1 32.9 18.8 32.8-5.2 62.9-22.1 27.7-43.2 56.3-63.8 85.2-7.4 10.6-11.9 23.1-18.6 36.4m-1183.1 437c13 10.7 29.3 19.1 38.1 32.5 13.1 19.9 29.9 26.9 51.7 32 18.1 4.2 37.9 12.1 51 24.5 18.8 17.9 38.8 29.9 63.4 36.9 25.7 7.4 31.3 18.1 31.2 44.2 0 16.5 1.1 33.3 4.8 49.3 3 12.9-1.1 17.9-12.2 21.1-24.5 7.2-49.4 13.2-73.1 22.5-17.8 7-34.2 18-50.8 28-20.6 12.5-40.6 25.9-61 38.7-16 10.1-30.3 10.8-44.6-4.8-19.6-21.6-42.2-40.6-60.7-63-6.6-8-8.5-23.7-6-34.4 5.6-24.9 15.7-48.7 23-73.2 6.4-21.2 11.7-42.8 17-64.3 7.2-28.8 13.9-57.8 20.8-86.7 2.5-1.3 4.9-2.3 7.4-3.3m232.3-201.1c-26.8-12.3-49.9-23.6-73.7-33.5-20.3-8.4-28-19.4-20.6-40.4 7.1-20.2 17.5-39.3 26.7-58.8 3-6.3 8.5-12 9.5-18.5 4.9-31.6 26.8-43.8 54.4-52.3 18.5-5.7 36.7-13.8 53.4-23.6 13.5-7.9 26.4-18.4 36.2-30.5 9.5-11.7 19.6-17.4 33.9-15.6 18.7 2.4 37.6 4.2 55.7 8.7 6.7 1.7 12.6 9.9 17 16.4 14.5 21 28.4 42.4 42 64 2.7 4.3 3.3 10.2 4.1 15.5 3.1 21.2 6.6 42.5 8.3 63.8.4 5.3-4 13.4-8.7 16.4-33.6 21.2-68.4 44.4-109.4 40.5-52.6-4.9-94.4 11.8-128.8 47.9m-1713.4-92.4c-17.2 18.1-30.7 34.2-46.2 48.2-17 15.3-19.1 32.6-17 54.4 2.4 24.7 4.3 51.8-3.5 74.4-6.6 19.1-26.8 33.8-41.9 49.6-6.6 6.9-15.5 11.6-24 17.6-23.1-19.9-47.2-37.9-67.8-59.3-19.9-20.5-38.5-34.3-66.3-11.5-10.3-21.5-20.6-40.3-27.9-60.1-1.9-5.1 3.9-15.8 9.2-20.2 53.5-44.9 103-93.6 145.1-149.6 13.4-17.8 25.6-36.7 40.9-52.6 20.2-21 38-16.4 49.2 10.6 2.9 7 6.4 14.3 6.7 21.6 1.7 32.3 14.1 58.6 43.5 76.9M1288 967.4c-40.8-25-82.9-42.4-112.6-80.3-12.3-15.8-35.1-23-51.1-36.4-18.6-15.6-35.6-33.3-52-51.2-3.1-3.4-2.6-15.8.8-18.5 44.2-35.5 86.5-74.4 146.9-81.4 11-1.3 23.5-7.3 31.4-15 14.5-14.2 26.2-7.7 38.5.8 29.6 20.7 38.4 52.4 34.6 84.8-7.1 59.8-19 119-29.2 178.4-1.2 5.7-4.3 11.1-7.3 18.8M-80.3 1112.2c27.2-9.9 54.6-19.3 81.5-29.9 32-12.6 63.2-27 95.5-38.8 7.6-2.8 19.9-.7 26.8 3.9 17.2 11.5 32.3 26.2 48.8 38.8 14.3 11 14.7 23.9 7.6 38.6-10.5 21.7-23.3 42.5-31.2 65.1-8.7 24.6-13 50.8-19.2 76.3-1.8 7.2-3.8 14.4-4.9 18.9-18.4 1.2-34.1 1.4-49.6 3.6-20.3 2.8-32.1-4.7-41.1-23.3-7.2-14.9-20.1-27.1-29.7-41-10.1-14.5-22.7-28.5-28-44.7-4.8-14.7-11.7-23.3-24.3-31.1-12.4-7.6-22.6-18.8-33.7-28.4.4-2.7.9-5.3 1.5-8m2106.8-366.9c-9.7 20.5-28.1 21.1-44.2 26.7-8.9 3.1-19.2 8.4-24 15.8-11.9 18.5-27.8 29.8-47.8 38.2-12.1 5.1-23.7 13.6-32.7 23.3-13.6 14.7-27.2 20.9-45.9 11-6.1-3.2-12.4-6.4-18.9-8.6-29.7-10-34.3-12.5-26.1-42.7 11.9-43.7 1.6-85.6-2.6-128-2-20.9 1.3-35 23.7-40.1 8.7-2 17.8-4.5 25.2-9.2 34.5-21.8 59.8-5.4 85 17.8 29 26.7 59.2 52.3 88.8 78.4 6.4 5.5 12.6 11.2 19.5 17.4M883.8 2048.4c-16.6 51.2-32.3 102.8-50.4 153.6-6.9 19.4-48.4 27.7-66.5 17.2-15.2-8.8-30.9-18.1-47.6-22.7-29.5-8-46.5-28.5-55.7-54.3-4.8-13.6-7.9-35.7 9.8-44 26.5-12.5 37.1-36.2 51.4-58.1 4.3-6.5 10.3-12.3 16.6-17.2 9.2-7.2 19.3-13.3 29.2-19.6 12.8-8.3 25.2-16.5 41.4-5.6 6.4 4.3 15.7 4.6 23.8 5.9 7.2 1.1 17.7-1.9 21.3 2 9.7 10.5 16.7 23.6 24.4 35.8.9 1.5.1 4.1.1 6.2l2.2.8zm-693.1 363c47.7 10.7 85.7-17.9 126.7-32.8 20.1-7.3 32.8-5.2 42.8 13.5 11 20.5 20.4 37.7 5.4 63.9-16.2 28.4-35.3 46-65.9 56.3-50.4 16.9-99.9 36.7-149.4 56.1-13.9 5.5-20.7 1.4-25.5-11.6-10.2-27.6-26.9-54.3-8.8-85.1 2.1-3.6.9-9.7.2-14.5-3.7-25.2 13-45.3 38.8-45.9 11.9-.2 23.8.1 35.7.1m126.5-1236c-14.3-.9-26.8-2.5-39.3-2.4-22.9.3-49.7-27.5-43.3-55.2 1.2-5 4.4-9.6 7.3-14.1 5.7-8.9 10.6-18.9 18-26.1 8.3-8 18.3-16.6 29.1-19.4 26.6-7.1 53.7-13.1 81-15.9 38.7-4.1 68.4 3 76.7 39 .6 2.7 2.9 6.4 1.9 7.9-24.2 34.8-1.7 82.1-33.5 116.3-14.5 15.5-26 20.7-44.4 14.3-9.1-3.2-17.8-7.7-27-10.5-17-5.2-31.4-11.9-26.5-33.9m160.4 331.3c4.6-34.6 37.1-56.6 70.1-55.9 20.2.4 39.5-1.7 56.7 9.6 5.7 3.7 13 13.2 11.7 17.8-10.9 39.3 10.7 74.7 12.5 112.4.8 16.6.3 28.3-16.7 34.6-6.5 2.4-12.6 5.9-18.9 8.9-38.3 18.1-56.7 11-72.4-28.7-7.9-20.1-13.9-41.1-22.3-61-5.5-13.2-13.7-25.2-20.7-37.7m337.2-124c19.8-18.7 39.8-35.1 56.7-54.3 11-12.5 20.9-28 25.2-43.9 7.9-28.8 30-41.3 52.2-55.1 3.6-2.2 7.1-4.5 11.7-7.4 20.7 24.7 41.5 49.5 58.7 70-30.4 41.7-58 80.1-86.5 117.8-4.7 6.2-13.3 11.3-21 13.1-12.7 3-26.4 5.1-39.2 3.3-11.3-1.6-23-7.2-32.4-14-8.6-6.3-14.5-16.5-25.4-29.5M2123.4 63.9c-1.7 12.5-.6 20.5-4 25.8-3.3 5.2-11 10.5-16.9 10.6-31.5.6-59.1-11.9-85.5-27.8-7.6-4.6-16.2-8.3-24.8-10.6-24.8-6.6-29.8-16.1-25.3-41.1 8-45.4 44.6-63.4 78.2-84.2 2.4-1.5 11.9 3.1 14.1 7.1 13 23.4 24.5 47.6 37.2 71.2 3.9 7.2 11.1 12.6 14.9 19.8 5.4 10.7 9.2 22.2 12.1 29.2m-821.9 1626.5c6.7 36.7-10.5 68-27.7 97.3-5.6 9.5-27.5 14.3-41 12.7-13.3-1.5-23.8-2.2-34.5 5.6-17.7 13-33.7 11.8-48.1-5.6-3.1-3.7-7.2-6.5-13.3-11.9 24.8-16.3 47.6-34.9 73.4-47.2 21.8-10.4 41.7-21.4 56.3-40.7 9-11.8 20-16.6 34.9-10.2m-209.4-38.8c26.7-33.7 51.8-65.4 79.5-100.3 13.8 18.4 24 32 32.6 43.6-16.6 33.5-32.3 65-49.1 98.7-19.6-13-39.5-26.3-63-42M290.2 693.8c35.5-8.4 52 15 65.9 45.4 22.3 48.9 18.8 55.4-34.2 53.7-7-.2-14-.4-21-1.4-19.8-2.7-27.7-14.3-23.6-33.8 4.3-20.4 8.3-40.8 12.9-63.9M1336 1482.1c-3.8 27.5-7.2 49.1-9.8 70.8-2.5 19.9-11.8 30.3-33.1 26.1-4.7-.9-9.7-.6-17.8-1 17-33.3 27.7-68 60.7-95.9m163.6 346.7c.4 16.2-2.5 29.3-18.6 33.4-2.4.6-10-7.5-10.3-11.9-1.5-19 12.5-20.8 28.9-21.5" clip-path="url(#j)"/></g><path fill="#FBD5C6" d="M2990.1 708.6c27.1 29.6 54.1 59.3 81.3 88.7 15.6 16.9 31.7 33.2 47.2 50.1 10.8 11.8 9.2 27-4.5 29.4-37.2 6.7-74.9 11.2-112.4 16.1-3.7.5-7.7-2.4-11.6-3.7V708.6zm0 584.4c10.6-12.8 21.8-25.2 31.6-38.7 8.7-12 17.2-12.3 29.8-5.6 37.3 19.9 37.7 19.5 19.8 59.4-4.5 10.1-8.4 21.5-15.9 29-8.2 8.2-19.9 16.3-30.8 17.5-13.5 1.5-24.5-7.5-27.5-23-.7-3.4-4.6-6.2-7-9.2V1293zm0 315.3c18-2.6 36.1-5.7 54.2-7.4 2.6-.2 8.1 5.9 8.2 9.3.8 18.5.4 37.1.4 57.1-22.2-3-42.5-5.8-62.8-8.6v-50.4zm0 601.3c8.3-.3 20.1-4.3 24.3-.3 11.7 11.2 20.5 25.5 29.8 39.1 1.1 1.5-1.2 6.9-3.4 8.9-16.7 15.2-33.8 29.9-50.7 44.8v-92.5zm-18.3-161.8c9.9 6 19.8 12.1 31.7 19.3-9.8 8.9-18.2 16.5-27.7 25.1 10.2 3.8 18.8 6.9 28.2 10.4-6 10.7-10.4 20.9-17 29.3-2.6 3.3-10 2.9-15.2 4.2v-88.3zm18.3 435c18.2-5.6 42.5 8.2 45.1 26.8-15.3-4.8-30.2-9.5-45.1-14.2v-12.6zm182.2-811.6c-27.9-23.5-52.8-44.3-77.6-65.4-12.7-10.8-23.8-24.4-38-32.5-16.1-9.1-15.3-20.6-11.7-34.4 8.2-31.4 13.6-64 25.8-93.7 8.7-21.1 26.2-38.8 40.9-57 8.1-10 18-19 28.3-26.8 14.2-10.6 26-4.5 35 8.7 14.8 21.6 14.5 45.1 10.2 69.8-5.6 32.3-22.3 64.3-9.4 97.7 13 33.6 15.4 67.3 7.4 101.9-2.1 9.6-6.3 18.8-10.9 31.7m888 433.5c-2.4-1.3-11.4-3.5-16.1-9.1-17.7-21.3-33.4-44.3-50.9-65.8-16.1-19.8-32.1-40.1-50.7-57.4-18.9-17.5-24.6-28-8.7-46.6 18.1-21.2 13.8-43.4 11.1-66.6-.5-4.1-1.7-8.1-2.7-12.1-10.5-39.6-2.1-55.7 36.9-68.4 4.2-1.3 11.3 1.9 15.2 5.3 6.3 5.3 12.2 11.8 16.1 19.1 3.4 6.3 6.2 14.8 4.8 21.3-4.8 22.5-3 41.7 9.4 63 29.7 50.7 56.2 103.3 82.8 155.7 11.2 22.4-15.8 61.3-47.2 61.6M5524.4 180.3c-14.1-8-23-13-31.9-18l-1.5 2.7c-.8-1.1-2.5-2.2-2.4-3.2 1.8-20.7-25.7-30.5-18.9-54.2 5.4-18.8 2.7-40.4 10.1-58.1 15-36.2 31.6-72.4 53.2-104.9 9.6-14.4 33.4-14.3 52.2-6 17.5 7.7 25.2 19.5 24.7 40.3-.8 40.4 2.2 80.9 3.5 121.4.3 8.2 0 16.5 0 20.7-19.7 7.8-38.3 11.7-52.7 21.7-14.9 10.2-25.9 26.4-36.3 37.6M3630 2420c30.9 4.1 50.6 30.4 44.6 67.1-4.2 25.5-4.1 48.2 12.7 69.2 2.3 2.9.6 10.2-1.2 14.7-2 5-6.3 9.1-9.4 13.8-20.5 31.6-20.1 29.5-52.6 12.4-29.2-15.4-43.1-38-49.4-68.6-2-9.6-7.7-19.3-14-27-11-13.4-8.5-50.1 7-57.5 20.1-9.6 41.5-16.2 62.3-24.1m1638.3 361.3H5218c-13.5-19.7-27-39.5-40.5-59.2-9.1-13.4-6.5-21.4 7-32.5 28.9-23.9 62.5-15.8 94.3-18.8 19.4-1.9 39.1.9 58.7.1 17.3-.7 25.6 7.2 28 23.5 2.8 18.9-10.7 27.9-24.2 31.2-11.8 2.9-19.9 5.5-26.4 16.5-3.1 5.2-12.5 8.1-19.5 9.2-17.1 2.5-26.8 10.8-27.1 30M3358.8 259.2c18.4-42.9 35.5-82.7 52.6-122.6 1.6-3.8 3-7.7 4.8-11.4 8.8-17.8 20.5-18.3 32.5-2 9.8 13.4 20.1 26.4 31 40.6-17.1 25.4-12.6 54.6-1.5 84.6 4.4 11.8-8.9 42.7-19 46.7-3.7 1.5-9.1-.5-13.4-2-8.5-3-16.8-6.5-25-10.1-7.6-3.3-15.1-6.9-24.1-11.1-4.6 3.8-9.7 8-15.8 13.1-8.5-9.9-16.5-19.2-22.1-25.8M2810.2 379c18.4-42.9 35.5-82.7 52.6-122.6 1.6-3.8 3-7.7 4.8-11.4 8.8-17.8 20.5-18.3 32.5-2 9.8 13.4 20.1 26.4 31 40.6-17.1 25.4-12.6 54.6-1.5 84.6 4.4 11.8-8.9 42.7-19 46.7-3.7 1.5-9.1-.5-13.4-2-8.5-3-16.8-6.5-25-10.1-7.6-3.3-15.1-6.9-24.1-11.1-4.6 3.8-9.7 8-15.8 13.1-8.5-9.9-16.5-19.2-22.1-25.8m1863.6-117.5c48.2 16.3 89.8 30 131 44.4 13.7 4.8 18 11.5 7.6 26.3-15.5 22.2-27.8 46.5-54.6 57.8-3 1.3-5.4 4.4-7.7 7-16.8 18-34 18.1-45.2-4.5-11.3-22.6-17.9-47.9-24.2-72.6-4.2-16.3-4.2-33.9-6.9-58.4m-1357 2104.9c-49.7-4.3-98.7-8.5-151.4-13 7.1-29.2 9.8-62 23.8-88.8 7.6-14.6 34.4-19.4 52.9-27.9 1.4-.6 6.6 4.2 8.3 7.4 22.6 41.1 44.9 82.4 66.4 122.3m788.4-153.8c-19.2 33.6-73.5 33.8-96.7 8.9-17.1-18.3-36.4-34.6-55.2-51.2-10.4-9.1-11-17.7-.2-25.7 32.2-24 78.3-41.6 112.6 6.3 14.3 20.3 26.8 41.9 39.5 61.7m1643.9-1158.9c15.8-32.6 29.7-61 43.4-89.3 9.3-19.2 12.4-43.4 41-49.1 26.7 30.5 37.4 68.5 45.2 107.8 2.5 12.6-3.5 16.5-15.9 18.2-15.3 2.1-29.9 8.7-45 12.3-18.7 4.4-37.5 8.6-56.5 10.7-4.3.4-9.5-8.2-12.2-10.6M4097.8 2638.1c4.4 18.7 8.9 37.4 13.3 56.1 5.9 24.8.6 37.1-18.3 40-4.1.6-10.7-.8-12.8-3.7-13.2-18-31.8-20.4-51.9-20.7-29.7-.4-26-3-30.7-31.2-5.1-30.5 15.3-38 31.6-51.2 5.9-4.7 14.3-6.8 19.1-12.3 16.1-18.1 32.1-5.2 46.9.5 4.4 1.7 4.9 13.9 7.1 21.3-1.3.4-2.8.8-4.3 1.2m625.4-1180.6c30-24.9 53.3 3.2 79.8 18.9 25.7 15.3 20.9 39.3 19.4 62.1-.3 3.9-9.2 9.7-14.8 10.5-25 3.6-51.1 1-70.3 24.2-3.5 4.3-19.6-1.9-31.6-3.5 5.9-37.9 11.4-73.4 17.5-112.2m337.7-1049.6c13.3-.6 26.9-3.3 39.8-1.5 24 3.4 28.9 13.4 20.4 35.7-9.1 23.9-19.8 47.4-27 71.8-5.1 17.5-15.1 26.9-30.6 35.4-15.1 8.3-26.9 3.3-35.5-5.3-5.1-5.1-5.5-19.1-2.6-27.2 9.5-26.7 14.4-53.5 12.2-81.8-1.1-16.2 6.3-26.4 23.3-27.1m263.9-329.5c-34.7 23.8-38.3 23.6-68.3 2.6-5.8-4-14-6.8-21-6.5-28.3 1.5-44.9-8.9-51.5-36.5-5.1-21.3-9.2-43-11.1-64.8-.6-6.7 7.7-14.1 11.9-21.2 6.9 4.4 15.6 7.5 20.4 13.5 16.7 21 31.4 41.9 56.8 56 23.6 12.9 41.1 36.5 62.8 56.9m594.9.8c5.2 115.5 1 153-22.6 186.8-9.6-19.4-19.2-36.5-26.9-54.5-8.4-19.6-16-39.7-22.3-60-2.5-8-3.4-18.7-.1-25.8 6.6-14.3 13.8-31.3 26-39.1 11.9-7.7 30.3-5.4 45.9-7.4M4609.8 96.3c12.8 6.7 22.2 10.9 30.7 16.5 6.3 4.2 11.4 10.2 16.9 15.5 34.1 32.7 34.2 36.3-.8 69.2-3.8 3.5-12.8 5.3-17.4 3.3-16.4-7.3-32.4-15.8-47.7-25.1-21.8-13.4-11.5-35.4-8.9-52.3 1.6-10.2 17.6-18.1 27.2-27.1m815 296.9c14.2-27.5 26.8-51.1 38.6-75.1 5.3-10.7 11.4-14.9 22.3-7.3 14.2 9.8 29.2 18.6 42.9 29.1 12.4 9.5 13.7 20 2.5 33.5-22.8 27.5-52.8 34.3-85.7 32.6-7.5-.5-14.4-8.8-20.6-12.8M4031.7 2385.9c-22.6-10-35.8-57.3-24.3-81.8 1.8-3.8 4.1-7.3 6.1-10.9 20.1-37.2 24.9-37.8 56-7.2 2.5 2.4 4.9 4.9 7.4 7.3 26.1 25 25.3 24.1-1.6 46.5-15.8 13.3-28.6 30-43.6 46.1m-84.3-97.9c5.2 24.7 8.9 43.9 13.3 62.8 4.4 18.7-2.5 32.6-21.5 34.8-19.2 2.3-38.9 1.6-58.2.3-13.7-.9-15.1-12.1-10.4-21.8 11.4-23.5 21.6-48.5 37.8-68.4 6.9-8.4 27.5-5.8 39-7.7m-909.5-1162.7c-.4-3.3-.3-6.7-1.2-9.8-7.4-27.4 4.6-41.2 32.6-36.6 13.5 2.2 29 2.5 39.6 9.6 10.6 7.1 20.9 21 22.5 33.1 1.7 12.4-10.7 21-26 20.7-3.9-.1-7.6 5.9-11.9 7.6-12.5 4.8-27.8 15-37.4 11.3-10.5-4.1-16-21.3-23.7-32.8 1.9-1.1 3.7-2.1 5.5-3.1m1104.9 1492.6c-15.2-11-27.8-22.3-42.3-30.1-19.4-10.6-25.4-29-24.3-46.8.6-10.5 14.2-21.2 24-29.6 2.8-2.4 12.4 3 18.8 5 1.3.4 2.5 1.3 3.6 2.1 53.2 41.3 45.2 29.7 20.2 99.4m-646.5-2418c28.7 0 49.5-.3 70.3.3 4 .1 9.9 3.1 11.6 6.5 12 22.7 25.2 45.4 20.7 72.5-1.2 7.5-5.5 18.3-11 20.1-5.6 1.9-14.6-4.6-21.3-8.8-3.9-2.4-6-7.6-9-11.4-11.5-14.3-23.2-28.4-34.5-42.8-8-10.4-15.5-21.1-26.8-36.4m793.9 1390.7c-60.8 30.1-107.5-3.1-156.9-25.4 12.2-23.4 44.2-34.3 71.2-21.8 29.1 13.6 56.6 31 85.7 47.2m291.6-149.2c37.1 41.6 88.5 72.8 98.5 135.5-59.4-20.7-102.3-55-98.5-135.5m-32.3-354c60.6 16.7 105.5 80.1 98.3 143.3-36.9-47.9-90.2-78.6-98.3-143.3M3436.7 888.9c-28.3 62.3-65.1 107.5-142.1 100.4 43.2-39.6 76.6-88.9 142.1-100.4m1011.5 1757v64.1c-27.9 8.1-52.9 6.3-75-14.5-10.5-9.8-22.7-17.7-38.8-30.1 40.3-6.9 76.1-13 113.8-19.5m495.8-397.4c-7.6-18.9-15.3-33.4-18.7-48.8-1.2-5.4 6.9-15.2 13.2-19.3 13.2-8.6 28.8-13.5 42-22.2 10.9-7.2 19.4-16.7 31.2-1.9 8.6 10.7 8.7 30.3-2.2 39.5-19.5 16.7-39.9 32.3-65.5 52.7m-838.6-1623c-19.3 7.6-34.3 15.7-50.3 18.7-5.5 1-15.1-9.4-19.9-16.6-7.9-12-12.3-26.3-20.2-38.2-7-10.5-18.2-18.6-2.9-31.1 13.8-11.2 28-9.6 38.7 1.6 17.8 18.7 33.1 39.5 54.6 65.6M3050.7 2312.2c43.2 29.1 62.3 74.6 87.1 117.6-21.4-10-43-19.6-64.2-30-36.1-18-44.6-47.3-22.9-87.6m761.8 213.4c-16.8-22.4-32.8-38.7-42.4-58.2-6.5-13.3-4.8-30.9-5.1-46.6-.1-3 7.1-8.7 11.2-9 17.9-1 35.9-.4 55.3-.4-6.3 37.9-12.2 73.2-19 114.2m1552.9-873.7c0 19.5.3 39.5-.3 59.5-.1 3.5-3 8.1-6 10-24.8 15.5-51.3 25.1-80.6 16.5-3.8-1.1-8.5-15-7.1-16.2 28.9-24.4 58.6-47.8 88.2-71.3.7-.4 2.6.7 5.8 1.5m-1738.3-170.4c-32.3-15.3-59.6-28.2-86.7-41.1-2.4-1.2-5-2.8-6.5-4.9-9.9-13.7-7-56.6 4.6-70.4 24.8 12.3 61.7 59.9 88.6 116.4m-8.7 510.2c24 33.8 63.7 59.3 44.8 109.9h-62.8c6.2-37.4 12.1-73.7 18-109.9m882.5-138.6c26.8 12.4 53.6 24.9 80.4 37.1 16 7.3 16.2 21.5 14.7 35.3-1.6 13.7-5.6 27.1-8.5 40.6-11.4-8.3-25.5-14.6-33.6-25.4-20.3-26.8-37.9-55.7-56.6-83.8 1.2-1.3 2.4-2.6 3.6-3.8m-1344.6-.8c-38.4-32-52.5-89-33.1-132.9 7.5 3 14.9 6.4 22.5 9 16.1 5.5 23 15.5 20.6 33.1-4 29.8-6.6 59.9-10 90.8m1181.3-395.1c29.7 17.6 51.2 70.8 42.5 105.9-2.1 8.3-12 22.4-13.1 21.9-14.2-6.2-34.9-6.1-36.3-28.1-.8-11.8 0-23.7.9-35.6 1.6-21.2 3.9-42.4 6-64.1m-152.8-415.8c-21.2-10.7-40.6-19.9-59.4-30.4-5.3-3-10.9-9.1-12.3-14.8-3.7-15.1-5.1-30.7-8.4-52.8 19.6 11 35.1 18.8 49.6 28.1 15.1 9.6 29.2 20.9 44 31.1 15 10.3 15.1 16.7.5 27.3-6.1 4.5-11.7 9.6-14 11.5M3569 1852.3c-30.3 20.5-58.6 39.6-88.8 59.9-5-6.6-15.1-14.4-13.8-19 5.7-20.3 12.8-40.7 23-59.1 9.3-16.5 43.6-8.7 79.6 18.2m-52.9-517.9c-10.5 20.3-19 38.7-29.4 55.9-4 6.7-11.4 13.6-18.6 15.7-13.7 4-28.3 4.5-42.6 6.5l-4.4-4.6c9.3-15.4 18.3-31 28.1-46.1 9-13.9 19.2-27 28.3-40.9 9.9-15 16-15.1 27-.2 4.5 6 9.7 11.5 11.6 13.7m912.8-85.3c30.6-20.7 59-39.8 89.3-60.3 5 6.6 14.9 14.3 13.6 18.9-5.6 20.4-12.3 41.1-22.7 59.4-9.3 16.6-42.8 9-80.2-18m-498 952.1c-8.6 18.9-15.5 35.4-23.8 51.1-.9 1.6-12.3 1-14.2-1.8-16-22.6-31.2-45.8-45.7-69.4-2.4-3.9-2-13.1.9-15.6 4.3-3.8 12.7-6.7 18-5.2 15.9 4.5 31.9 9.8 46.2 17.9 7.8 4.3 12.3 14.8 18.6 23m-496.2-1001.6c-9.2-6.1-26.4-11.2-29-20.4-6.1-21.3-5.5-44.6-6.3-67.2-.1-2.3 9.5-8 12.8-6.9 15 5 30.3 10.4 43.7 18.6 11.6 7.1 12.1 19.2 4.8 31.2-8.5 14-16.5 28.2-26 44.7m1588.6 1546.9c9.2 11.3 17.9 21.9 26.7 32.7-11.2 14.7-23.2 28.7-33.4 43.9-16.8 25.1-40 25.5-60.5-2.4 30.8-16.3 30.9-59.9 67.2-74.2m-806.5-673.3c-62.8 11.8-55.5 15.4-82.7-19.2 19.5-22.1 39-44.2 59-67 7.9 28.8 15.6 56.8 23.7 86.2M5691.2 720.8c22.1-7.1 22.4 9.4 26.1 22.8 1.5 5.4 4.8 10.4 7.2 15.6 2.6 5.9 5.1 11.9 7.6 17.9-6 2.4-14.6 8.6-17.6 6.6-18.4-12.8-37.8-.4-55.9-4.2-8.3-1.7-18.5-6.2-22.7-12.8-5.9-9.2 1.2-15.4 11.3-19 5.4-1.9 8.7-9 13.6-12.8 8.9-6.9 18.3-13.1 27.5-19.5.9 1.7 1.9 3.5 2.9 5.4M3340.6 2702.1c-11.1 16.1-19 27.8-28.4 41.4-15.1 0-33.4 1.3-51.3-.6-7.4-.8-18.1-7.5-20-13.7-1.9-6.4 3.1-20.2 8.5-22.6 21.3-9 43.6-16.7 66.2-20.7 7.3-1.2 16.9 10.7 25 16.2m2288.1-543.8c17.4-3.9 19.9 5.8 23 16.7 2.3 8.2 8 15.4 11.4 23.4 2.3 5.3 5.2 11.8 3.9 16.7-.8 3.2-11.2 7.8-13 6.4-18.9-14.5-38.9-.6-57.9-3.9-8.4-1.4-19.4-5.5-23.2-11.9-6.4-10.6 3.6-16.2 12.5-21.8 15.1-9.5 21.6-33.4 43.3-25.6M5455.2 585.9c-27.9-23.4-53-44-77.5-65.2-3.5-3-7.7-10.8-6.3-12.8 3-4.4 9.1-8.5 14.4-9.1 28.5-3.4 52.3 9.6 70 29 13.7 15.1 7.7 35.8-.6 58.1m-342.1 297.9c-15.7 9.5-30 20.1-45.9 27.4-24.1 11.1-49.4-7.7-46.4-33.2 1.6-13.5 4.7-26.8 7.4-41.8 28.9 16.2 56 31.4 84.9 47.6m-556 1901.4c11.8 7.5 23.9 11.6 29.3 20 3.1 4.9-3 17.5-7.6 25.1-5.7 9.4-14.4 16.9-21.3 25.6-10.1 12.6-19.6 9.6-28.7-.8-10.2-11.6-30.8-23-19.6-39 9.7-14 30.5-20.3 47.9-30.9m-664.5-1567.8c28.8-16.1 55.2-30.9 84.6-47.3 3.2 18.9 7.5 36.7 9 54.8 1.3 15.2-33.3 28-50.3 19.3-3.6-1.9-7-4.2-10.5-6.3-10.4-6.6-20.8-13-32.8-20.5m-511.8-576c-4.5 1.2-9 2.3-16.8 4.3-4.1-18.3-11.7-36.6-11.5-54.9.2-25.8 10.6-30.9 47.5-27.9 2 19.9 4.1 40.7 6.2 61.5-8.4 5.7-16.9 11.4-25.4 17m1550.5-458.2c23.3 12.3 41.9 19.3 30.8 44.6-1.3 2.9-.2 6.9-.2 10.4-.3 38.1-.4 38.6-37.4 32.4-5.1-.9-13.2-11.2-12.3-15.6 4.8-23.2 12-45.9 19.1-71.8M3885.9 2052.9c-25.2 7.5-47.5 20.7-74.2 8.8-15.6-6.9-10.7-19.6-9.8-30.1.5-5.2 8.2-9.9 12.8-14.6.8-.8 2.7-.5 4-.9 33.5-8.7 35.7-7.9 55.4 20 3.6 5 7.2 10.1 11.8 16.8m1037.2-544.2c25-2 46.6-23.1 70.8-5.8 6.1 4.3 13.4 13 12.9 19-.7 7.8-7 18.6-13.7 21.7-32.2 14.3-42.7 8.6-70-34.9m828.5 1144.9c18.7-8 37.4-16.2 56.3-23.8 2.4-1 8.4.8 9 2.5 6.5 20.3 12.3 40.7 18.2 61.2-2.1 1.7-4.3 3.4-6.4 5.2-25.9-11.2-51.8-22.5-77.6-33.7.1-3.9.3-7.6.5-11.4M3470.1 723.7c.6-13.2.7-26.5 2.1-39.7 1-9.7.9-24.3 6.5-27.6 7.3-4.2 19.9.7 30.2 1.6 3.5.3 7.4-.6 10.3.8 7.1 3.4 16 6.5 19.5 12.4 1.8 3.1-5 13.8-10.4 17.9-16.4 12.9-34 24.4-51.2 36.4-2.2-.5-4.6-1.1-7-1.8M3178 1973.1h-72.3c3.9-21.2 7.5-41.5 12.3-61.6.2-.7 14.8-1 18.1 2.6 15 16.5 28.5 34.6 42.4 52-.1 2.4-.3 4.7-.5 7m1663.1-350.8c21.9-23.6 47 5.2 68.8-8.8l5.4 4.2c-3.4 19.9-5.2 40.2-10.6 59.5-3.5 12.2-16 8.3-18.5.1-7.3-24.3-31.5-33.3-45.1-55M3642.3 93.5c26 1.8 52 3.4 77.9 5.9 3.3.3 8.6 5.7 8.8 8.9.9 17.4.4 34.9.4 48.4-16.4-7.1-32.7-11.9-46.4-20.8-15.4-10.1-28.4-23.9-42.5-36 .6-2.2 1.2-4.3 1.8-6.4m1367.1 205.2c14.4-2.3 26.7-4.2 39-6.2 12.6-2.1 21.1 1.3 25.4 14.8 4.4 14-1.5 20.8-13.4 25.7-9.4 3.9-18.5 8.6-27.9 12.5-12.5 5.2-26.9-4.6-28.2-19.1-.4-4.1-.6-8.4.2-12.4 1-5.2 3.2-10.3 4.9-15.3M3748.9 2606.4c-4.6-41.5-4.7-41.6 31.8-50.1 11.5-2.7 23.2-4.6 34.9-5.9 7.4-.9 14.9-.2 23.3 2.2-24.7 27.1-56.3 41.3-90 53.8M4981.5 140.7c15.6-23.3 41.4-39.3 90.3-57.8 10.2 34.3 5.5 43.2-28.2 49.4-19.6 3.5-39.5 5.4-62.1 8.4m-903.1-62.6c27.4-33.6 61.4-44.7 93.6-59.9 9.3 36.8 3 46.5-31.6 51.2-18.4 2.6-36.8 5.2-62 8.7m1473.3 2240.8c-13.1 0-23.4.6-33.6-.3-4.2-.4-11-3.4-11.6-6.3-6.1-27.9-11.1-56.1-13.4-85.2 30.4 23.3 41.4 57.5 58.6 91.8m-82.8-528c0 22.6.8 45.3-.7 67.8-.3 4.5-8.7 11.4-14 12.1-13.9 1.7-28.2.6-43.8.6 18.6-29.2 36-56.4 53.3-83.6 1.8.9 3.5 2 5.2 3.1m-1712.4 105.4c-8.5 0-12.5-.1-16.5 0-27.3.4-30.9-2.3-35-29-3-19.8-5.3-39.7-8.7-66.1 33 26.9 43.2 61.1 60.2 95.1m982 659c-43.3-5.9-82-11.2-122.8-16.8 3.2-7.2 5.3-12 7.1-16.2 2.5-.6 4.1-1.5 5.1-1.1 13.7 5.2 26.2 5.4 41.6 1.8 18.1-4.2 38.8-.3 57.6 3.8 4.9 1 6.7 16 11.4 28.5M4409.7 837c-5.4 37.8-10.8 75.6-16.1 113.4-1.7 1.1-3.3 2.3-5 3.4-3.5-5.7-10.9-12.6-9.6-16.8 4.2-13.1 2.5-24.2-.8-37.3-3.3-13.1-.9-27.9.6-41.7 2.6-24 5.7-25.6 30.9-21m-462.1-111.9c49.1 15.4 52.2 20 44.2 62.3-21-7.1-46.7-7.3-53.4-34.1-2.1-8.2 5.9-18.9 9.2-28.2m1786.8-163.8c-12.4 19.3-21 36.2-33.4 49.9-3.7 4.1-18.8.7-26.7-3.2-3.3-1.7-4.1-14.5-1.7-20.7 12-31.3 12.5-31.1 61.8-26M4951 363.9c6.2 0 12.5-.8 18.5.2 10.2 1.6 26.1 1.4 29.1 7.3 7.5 14.6 9.8 32.2 12.4 48.9.3 2-14 9.1-14.9 8.1-16.8-19.2-32.6-39.2-48.6-59.1 1.2-1.9 2.3-3.7 3.5-5.4M5385.6 2247c-48.3-13-53.7-20.5-46.1-61.8 22 5.6 46.5 7.9 54.5 33.7 2.4 7.9-5.4 18.9-8.4 28.1m-603.4-110.3c16-58.7 30.2-68.3 60.7-42.1-14 46-14.5 46.4-60.7 42.1m-4.8-1016.9c0 13.4 1.1 24.6-.2 35.5-2.5 21.2-22.7 19.7-36.5 25-4.1 1.6-14.3-5.5-17.7-11-9.6-15.9 3-26.8 13.7-33.9 11.1-7.4 25.4-10 40.7-15.6M4082 171.5c8.5 7.1 24.3 9.3 16.3 28.9-12.8 31.1-12.6 31.9-56.9 27.7 6.3-23.4 8.6-48.6 40.6-56.6" clip-path="url(#d)"/><g opacity=".3" clip-path="url(#d)"><defs><path id="k" d="M2990-1107.7h4989.3v4805.4H2990z"/></defs><clipPath id="l"><use xlink:href="#k" overflow="visible"/></clipPath><path fill="#FBD5C6" d="M3431.9 2399.3c-14.5-42.7-38-77.7-69.8-106.6-11.7-10.6-25.7-18.7-38.2-28.6-29.4-23.2-41.2-56-43.8-91.3-2.5-34.5-.6-69.3-.6-104.4 37.3-10.7 73-21.2 108.9-30.6 4.1-1.1 12.7 2.7 14.2 6.3 5 12.2 14.7 12.6 21.9 7.2 12.1-9.1 27.5-19.6 31.4-32.6 9.7-32.5 32.4-46.9 61.4-55.8 13.6-4.2 29.7 6 34.4 22 3.9 13.2 7.4 26.6 9.9 40.1 5.2 27.6-3.1 49.2-26.4 66.9-23.5 17.9-24.5 26.4-13.3 53.6 10.2 24.7 16.2 49.6 15.2 76.7-1.4 38.2-.3 76.4-.5 114.7-.2 31.3-7.2 38.8-37.9 45.5-21.6 4.7-42.8 10.8-66.8 16.9m2624-2195.2c9.4 0 20.5.9 31.5-.2 23.9-2.4 37 12.6 45 30.7 7.5 17 3.9 34.2-14.1 45.4-3.2 2-6.8 6.2-7.1 9.6-2 29-25.8 26.5-44.4 30.9-14.6 3.5-29.5 6.7-44.5 7.8-22.4 1.7-45.6 5-67.3 1.3-30.1-5.2-40.5-34.4-27.2-62.1 4.1-8.5 6.5-19.7 4.9-28.8-5.8-34.8 15.5-57.5 34.1-81.5 2-2.6 8.1-4.2 11.3-3.2 22.9 7.2 46 14.1 67.9 23.6 5.1 2 5.6 14.1 9.9 26.5M3729.9-188c27.2 25.1 45.6 61.3 90.7 55.5 0 43.9.1 86.9-.1 129.9 0 7-3 14.2-1.8 20.8 4.3 24.2-12.2 33.9-29.3 42-13 6.2-45.5-4.7-52.8-17.3-24.5-41.8-53.8-82-48.7-134.6.1-.7.3-1.6-.1-2.1-15.8-24.2-4.5-44.8 10-63.6 8.5-11.1 20.4-19.6 32.1-30.6m-540 937.4c13.3-32.9 25.9-64 40.5-99.9 13.9 10.3 25.8 21.2 39.5 28.6 8.4 4.5 19.6 4.4 29.7 5.1 10.8.8 19.5-.5 26.7 12.8 5.9 10.9 20.2 19.8 32.6 23.9 16.6 5.4 14.9 11.7 8.6 24.2-20.6 41.1-57.4 67.8-86.5 101.4-14.9 17.2-31.5 24.6-52.8 22.6-7.4-.7-19-4-20.5-8.7-3.6-10.9-5-24.2-2-35.1 3.8-14.1 14.6-26.2 19.1-40.2 3.9-12.1 2.7-25.1-14.3-28.8-7.5-1.7-14.7-4.2-20.6-5.9m953.6 730.5c-16.7-28.6-32.9-18.2-50.1-11.5-9.9 3.9-21.6 3-32.3 5.3-9.9 2.2-20.1 4.5-29.2 8.9-20.8 10-39.2 5.6-45.4-14.4-2.3-7.4-.5-20.4 4.7-25.2 34.5-32.6 68.8-65.8 106.6-94.2 15.3-11.5 39-12.5 59.2-16.2 3.6-.7 12.1 7.7 13.1 12.9 5.5 27.8 9.7 56 13.4 84.1.5 3.5-4.2 8.1-7.2 11.7-9.8 11.8-19.9 23.4-32.8 38.6m757.4-512.6c-7.8-16.9-15.2-34-23.4-50.6-9.6-19.3-2.2-77.7 13-91.9 3.2-3 9.7-3.7 14.5-3.2 6.8.7 13.3 4 20.1 5.2 17.3 2.9 26.9 10.5 30.2 29.9 2.1 12.3 14.3 22.9 22 34.2 13.5 19.8 27.3 39.4 40.4 59.4 1.8 2.7 1.9 9.7.1 11.2-14.4 11.1-29.3 21.6-44.4 31.7-3.9 2.6-9.4 2.5-13.7 4.5-22.2 9.9-43.4 6.2-58.5-11.8-3.4-4.1-3.4-11-5-16.5 1.4-.8 3-1.5 4.7-2.1m-263.2-666.5V351c-21 14-41.4 27.7-62 41.3-13.9 9.2-21.5 5.9-31.2-8.9-13.5-20.5-17.2-42-17.6-65-.6-31.3-.7-62.7.3-94.1.4-13.8 9-20 23.6-20.9 15.6-.9 24.6 6.8 28 19.6 3.4 13.1 5.3 25.5 19.7 31.6 2.9 1.2 5.6 6.7 5.7 10.2.5 21.5 10.8 33.9 33.5 36m459-220.9c-37.3-45.5-40.4-99.1-50.3-150.1-5.3-27.6-3-27 25.9-28.7 17.8-1.1 35.5-5.3 53-9 12.6-2.6 16.9.7 17.8 14.4 2.9 41.4 7.8 82.6 11.3 123.9.4 4.6-2 11.4-5.5 14-16.6 12.2-34.1 23.3-52.2 35.5m185.1 1445.4c13.4-11 22.5-18.5 27.9-22.9 45.9 19.4 89.7 37.5 133 56.6 6.2 2.7 13.7 10.1 14.2 15.8.5 5.3-6.8 12.2-12 17.1-10.3 9.7-21.1 19-32.5 27.4-3.7 2.7-11.8 4.4-14.6 2.2-21.9-16.5-43.8-11.9-65.5-1-22.8 11.3-38.5-3-54.5-14.7-2.9-2.1-3.8-10-2.4-14.2 3.8-11.8 9-23.2 14.3-34.5 5.4-11.9 12-23.4-7.9-31.8m24.4 1293.4c-16.8 51.8-32.3 99.5-49 150.9-32.1-20.5-62.4-32-76.7-63.5-1.9-4.2-5.1-8.2-8.6-11.3-16.7-15.4-17.9-32.9.9-43.6 39.5-22.7 83.2-30.7 133.4-32.5m-1223-1877.1c-35.1-5.7-69.7-11.3-107.9-17.4-7.7-16.2-18-35.6 2.5-55.8 5.3-5.2 8.4-12.6 12.5-19.1 14.9-23.9 41.6-35.4 65.2-26 5.2 2.1 9.1 11.5 10.6 18.3 2.7 12.8 2.8 26.2 5 39.1.9 5.1 3.3 11.8 7.2 14.3 19.4 12.3 16 27.3 4.9 46.6m1411.2 172.2c24.7 22 28.8 51 39.1 76.9 4.6 11.5 8.5 23.2 13.3 34.5 10.4 24.4-4.7 40.3-17.5 57.8s-29.6 15.6-46.9 11.3c-3.4-.9-8.2-6.6-8-9.8 2.8-51.9-6-104.8 12.6-155.3 1.9-4.7 4.4-9.1 7.4-15.4M4631.6 2166c10.5-21.8 18.7-41.9 29.9-60.2 4.3-6.9 15.2-11 23.9-13.5 11.1-3.2 23.1-3.6 34.6-5.2 1.9 1.6 3.8 3.1 5.6 4.7-9.8 16.4-19.3 32.9-29.5 49.1-7.8 12.3-16.8 23.8-24.6 36-10.3 16.2-18.9 16.4-30.7.3-3.5-5-7.7-9.5-9.2-11.2" clip-path="url(#l)"/></g><path fill="#FBD5C6" d="M4418.2 2134c-14-18.2-26-33.9-41.1-53.6 9.4-2.7 24.1-11.1 28.2-7.5 13.1 11.5 41 9.6 38.8 34.7-1.4 15.1-12.8 25.8-25.9 26.4M3380.8 641.4c8.5-5.6 17-11.3 25.5-16.9 4.5-5 9.1-10 13.6-15.1 20.4 13.2 20.5 13.2 11.2 34-2.8 6.4-6.2 12.5-9 18.9-5 11.3-11.7 20.1-25.1 12.3-12.2-7.2-27.9-13.8-16.2-33.2m2185.9 1941.8c-18-20.4-31.9-36.1-48.2-54.6 6.6-3.3 17-12.9 22.8-10.7 16.6 6.5 33.2 15.9 45.5 28.5 2.6 2.8-12.3 22.9-20.1 36.8M4382.4 51.7c-3.4-9.8-10.6-19.8-8.1-25.8 6.5-15.8 15-32.6 27.6-43 4-3.3 23.5 12.2 37 19.7-20.4 17.7-36.2 31.5-56.5 49.1M4670.9 2712c-5.9 6.5-11 12.2-15.3 16.9-15.5-14-30-27.1-48.5-43.9 5.7-5.8 12.4-14.4 20.8-21 10.4-8.2 19-5.9 24.4 7.2 5.6 13.5 12.1 26.6 18.6 40.8m-406.3 31.1c24.1-.3 45 19.1 40.9 34.1-2.3 8.4-14.5 14.1-22.2 21-10.6-12.8-22.4-24.9-30.9-39-1.5-2.6 9.9-13.1 12.2-16.1m90.2-1583.8c-20.2-21.2-5.2-41.6 2.8-53.9 7.5-11.4 30.2-12.9 46.1-18.7 2.3 3.3 4.5 6.5 6.8 9.8-18.2 20.5-36.4 41-55.7 62.8M3174 2528.9c-10.8 19.7-18.7 34-27.1 49.2-14.2 1.6-36.1-13.5-36.8-28.3-.3-6.2 3.8-13 7.2-18.8 1.1-1.9 6.2-1.9 9.5-1.9 14.4-.3 28.8-.2 47.2-.2m537.4 216.1c16 8.6 25.8 28.8 17.6 43.9-3.2 5.9-15.3 11.1-22.2 10-10.9-1.8-21.3-8.4-30.7-14.9-2.2-1.5-1.5-12.8 1.5-15.5 9.7-8.4 21.1-14.9 33.8-23.5m1930.2-280.2c-14-5.9-25.9-10.4-37.2-16-9.2-4.6-12.8-11.3-2-18.5 11.3-7.6 22.7-14.9 34.3-22.4 25.2 12.6 27.1 38.3 4.9 56.9m156.1-11.8c13.4-22.7 22.8-38.7 34.1-58 9.7 14.4 7.7 31.4 26.7 33.8 8.3 1 2.8 23.5-8.7 24.9-14.8 1.8-30.2-.2-52.1-.7m-884.4-935.9c17.7 19.6 30.4 33.7 46.3 51.3-8 3.4-17.5 11.3-23 9.1-15.6-6.2-31.2-14.8-42.7-26.5-2.4-2.5 12.4-22 19.4-33.9M3305.7 381.8c-8.2-18.7-1.4-41.5-31.2-33.2-.4-2-.8-4-1.2-6.1 5.6-7.8 10.4-21.1 17.1-22.2 13.5-2.1 28.2 2.2 42.2 4.7 1 .2 2.3 8.3.7 11.2-7.8 14.1-16.6 27.7-27.6 45.6m342.7 1490.3c-14.5-8.7-17.8-18.9-5.1-32.7 4.6-5 7-11.9 10.7-17.8 9.6-15.3 18-16.3 31.5-4 15.8 14.5 14.2 17.8-5.1 27.9-11.9 6.2-21.3 17.4-32 26.6m-124.6-1011c15.8-1 31.6-2 24.6-30.9 14.3 7.8 27.8 11 28.6 16.3 2.3 14.5-.5 29.9-2.2 44.9-.1.8-9.8 2.6-13.2.7-13.5-7.6-26.3-16.5-39.4-24.9.6-2.1 1.1-4.1 1.6-6.1M3773 485.9c-12.7 10-22.1 17.3-31.5 24.7.7 2.5 1.3 5 2 7.6-8.4-3-23.5-5-24.1-9.1-2.1-14.7.3-30.1 2-45.1.2-1.5 7.8-4.3 10.1-3.1 14.6 8.1 28.6 17.1 41.5 25m1275.2 1405.3c6.1-14.4 8.3-28 12.8-28.8 14-2.4 28.8-.4 43.1 1.3 1.8.2 5 10.5 3.3 13.7-7.7 14.2-16.9 27.5-28.4 45.6-5.6-18.5-.9-38.6-30.8-31.8m-346.9-222.9c10.4 11.2 18.7 19.5 26.2 28.5 2.3 2.7 4.5 8.3 3.2 10.7-3.1 6-8.2 15.5-12.6 15.6-13.3.3-26.7-3-39.7-6.2-.7-.2-.3-13 2.6-18.3 6.4-11.6 14.7-22.1 20.3-30.3m490.9-216.2c13.8-10 24.2-17.5 34.7-25 0-3 .1-6 .1-9.1 7.2 5.2 19.5 9.7 20.4 15.9 2 13.6-1.5 28-3.6 42-.1.6-9.4 1.4-13-.5-13.3-7.2-25.9-15.5-38.6-23.3M3867.1 2770.6c-11.2 18.1-36.6 31.3-45.2 26.8-11.8-6.2-17.8-36-8.9-50.7 17.3 7.7 34.8 15.4 54.1 23.9m-788.8-786.3c14 7.8 25.9 14.3 37.7 20.8-16.8 31.1-18.2 31.7-53.4 25.1 4.8-14 9.6-28.1 15.7-45.9m2216.8-96.7c-5.3 14.9-10.5 29.7-16.5 46.6-12.9-7.4-25.1-14.4-37.3-21.4 16.4-29.7 16.9-30 53.8-25.2m-1412.5-336c5.3-8.5 8-14.2 12-18.8 5.3-6 14.2-16.9 17.2-15.6 10.7 4.6 23.2 10.6 20.3 27.1-1.3 7.3-.8 14.9-1.2 22.8-16.2-5.2-31-9.9-48.3-15.5m480.2 560.5c32.2 7.3 28.2 29.6 26.3 52-15.5-4.7-30.3-9.2-47.4-14.5 7.8-13.9 14.7-26.1 21.1-37.5M5472.9 937c-20.9-1.6-45.7 7.7-52.8-26.3 9.9-6.5 21.7-14.2 34.9-22.9 6.1 16.9 11.6 32 17.9 49.2M3771.5 2223.6c29.5 9.3 28 30.5 24.5 53.1-15-4.8-29.8-9.6-46.1-14.8 7.3-13 14.3-25.4 21.6-38.3m19.1-1933.5c-8.2 13.9-14.7 25-21.2 36-28-9.9-28-9.9-26.2-52.5 15.4 5.3 30.4 10.6 47.4 16.5M4955 113.6c-7.2-18.3-13.5-34.3-19.8-50.2 14.3-8.7 36-4.5 43.8 7.9 5.3 8.5-5.3 30.6-24 42.3m789.8 2560c-13.7 7.4-26.2 14.2-38.9 21-5.7-16.7-10.5-30.8-15.3-44.9 30.7-7.3 33.6-6.2 54.2 23.9m231.5-2207.8c-12.2 7.1-23.3 13.6-36.7 21.3-5.5-16-10.7-31-16-46.2 22.9-4.3 43-3.6 52.7 24.9m-1963.3 554c1.3 21.5 2.6 43.1 3.9 64.3-22.4 4.9-31.9.3-29.9-16.3 2.1-17 9.4-33.3 14.4-49.9 3.9.6 7.7 1.3 11.6 1.9m225.5 659c5.5-15.4 10.5-29.5 16.5-46.1 12.8 7.2 25 14 37.1 20.7-8.6 28.8-29.4 29.6-53.6 25.4M3237.2 435.6c13.8-36.4 39.8-19 61.7-20.7 2 6.3 4 12.6 6.6 20.7h-68.3zm1296.2 2022.6c-23.5 1.6-44.6 3-69.3 4.7 2.2-10.8 3.7-17.8 5.1-24.5 23.1 1 49.3-17.6 64.2 19.8m709.5-2105.5c19.3-23.5 44.7-30.9 61.8-20.8 4.8 2.8 6.3 11.4 9.3 17.3-4.5 2.2-9.1 6.3-13.6 6.3-17.4-.2-34.7-1.6-57.5-2.8m-109.2 1028.1c38.6 13.3 15.8 40.4 20.5 60.1-23.2 10.3-24.7 9.6-24-13.2.5-15.3 2.2-30.6 3.5-46.9m502.5 50.4c-34.2-.3-43.4-32.9-66-52.3 23.2-2.7 54.5 21 66 52.3M3971.9 178.6c9.2-17.9 16.2-34.6 33.4-28 11 4.3 17.9 18.9 26.6 28.9-1.8 2.9-3.6 5.8-5.5 8.7-17.2-3-34.4-6.1-54.5-9.6m-669.1 709.9c-3 17-6.1 33.9-9.3 52.2-18.9-5.3-33.7-14.9-28.6-31.5 3.3-10.8 19.8-17.7 30.3-26.3 2.5 1.8 5 3.7 7.6 5.6m2078.6 1281.2c1.6-10.7 2.4-21.6 5-32 1.5-6 6.1-11.3 9.2-16.8 6.7 4.3 15.7 7.1 19.3 13.2 3.5 5.8 4.6 18 .9 22-7.6 8.2-19.1 12.7-29 18.7l-5.4-5.1m-1116.7 367.1c-2.7-22.2 7.3-35 20.5-30.4 10.8 3.7 16.9 21 24.9 32.3.5.7-.5 3.7-1 3.7-12.6 1.3-25.2 3.4-37.7 2.8-3.5-.1-6.6-8.2-6.7-8.4m1686.9 190c1.1 23.3 2.4 41.7 2.4 60.1 0 3.5-5.1 10.1-7.5 10-4.9-.3-11.7-3-14-6.8-11.6-19.9-5.8-43.7 19.1-63.3M3829.4 1087.6c-5.4 16.8-10 31-16.2 50.1-13.2-12.3-23.3-21.7-33.9-31.6 10.8-20.3 27.8-19.5 50.1-18.5m2009.5 1.3c39.4 15.4 15.3 41.6 18.2 62.2-22.3 6.8-22.5 6.5-20.8-16 1.1-15 1.7-30 2.6-46.2m-1188 1555.7c11.2-3 22.2-6.6 33.6-8.6 4.7-.9 12.4 0 14.4 2.9 2.3 3.5 1.4 11-1 15.2-5.5 9.8-11.1 23.7-25.7 17.6-9.8-4.1-17.5-13.4-26.2-20.3 1.6-2.4 3.3-4.6 4.9-6.8m992.2-2423.7c23.8 0 25.3 2.7 19.4 17.8-1.1 2.8 1.5 6.7 1.6 10.2.1 4.6 1.2 11.5-1.2 13.2-2.9 2.1-9.4 1.1-13.6-.6-5-1.9-10.5-5-13.3-9.2-3.4-5.1-7.3-13.2-5.4-17.6 2.9-6.9 10.5-11.8 12.5-13.8M5901.6 1654c-13.7 9.1 14.6 36.1-17.3 33.1-11.7-1.1-27.4-6.5-21.5-20.7 4.3-10.4 19.8-16.2 30.2-24 2.9 3.8 5.8 7.6 8.6 11.6m-1172.1 316c-12.8 13.7-23 24.6-36.2 38.8-2.8-17.9-5.6-35-8.3-52l5.4-4.5c13 5.9 26.1 11.8 39.1 17.7m-41.7 397.9c-10.3-10.6-22.9-17.8-23.1-25.4-.2-8 11.5-16.2 18-24.4 7.7 9.9 16.3 19.3 22.1 30.2 1.2 2.2-8.6 10.2-17 19.6m1049.7-1211.7c.4.1-4.1-.6-4.2-1.7-1.2-13.3-1.8-26.7-2.5-40 4.4 0 10.7-1.9 13 .3 7.9 7.5 15.3 16 20.8 25.3 1.2 2.1-5.1 10.3-9.6 13.5-3.5 2.6-9.4 1.6-17.5 2.6m-2184.8 127.1c-5.4-8.8-14.8-17.7-14.9-26.6 0-7.5 9.5-17.1 17.2-22.1 11.4-7.4 17.1-.2 14.9 11.6-2.1 11.3-6.4 22.3-9.7 33.4-2.5 1.2-5 2.4-7.5 3.7m948.7-365.4c-2.7-12.7-6.2-25.3-7.6-38.1-.3-2.5 10.3-9 11-8.4 7.5 7 19.1 14.6 19.6 22.8.6 8.8-9.4 18.3-14.7 27.5-2.8-1.4-5.6-2.6-8.3-3.8m-501.5 611.5c3.1 26.4-14.8 30.5-33.5 35.1V1523c12.4 2.4 23.3 4.5 33.5 6.4m-153.8-962.2c-10.2-11.1-5.7-26.9 4-32.8 9.1-5.6 24.7-.6 37.4-.3-2 4.7-2.8 11.3-6.3 13.7-10.4 6.9-21.8 12.2-35.1 19.4m1457.2 53.1c-2.1-11.6-3.9-22.3-6-33.8h39.8c-2.5 19.6-8.4 34.5-33.8 33.8M4172 881.7c12.9-4.1 25.7-8.3 38.6-12.4-1.2 10.8-2.4 21.6-3.6 32.3-11.7-2.9-23.5-5.7-35.2-8.6 0-3.7.1-7.5.2-11.3m-564.1-323.2c-13.2 1.8-26.5 3.5-39.7 5.3-1.4-2.5-2.9-4.9-4.3-7.4 5.8-8.1 10.7-21.6 17.7-22.9 8.4-1.5 18.7 7.5 28.2 11.9l-1.9 13.1zm220.7 282.7c11.1 12.8 19.5 22.6 31.1 36-12.8 1-26.6 2.6-40.4 2.6-1.8 0-6.1-9.3-4.8-12.7 3.2-8.7 8.8-16.5 14.1-25.9m-634.9 1255h37.9c-1.3 11.1-2.5 21.5-3.7 32.3-23.6 1.1-30.1-13.1-34.2-32.3m1682.7-1975c3.5 8 6.4 14.7 10.5 24-17.4-3.2-32.1-5.6-46.7-8.7-3.4-.7-6.4-3.8-9.5-5.8 3-3.1 5.8-8.7 9.2-9 11.6-1.2 23.5-.5 36.5-.5M3443.4 791c4.5-16.4 1.8-34.7 23.6-35.5 3.4-.1 10.3 7.9 10.2 12-.3 19.8-13.5 24.3-33.8 23.5m24.7 1755.8c10.8-5.3 20.2-13.9 25.4-11.8 12.4 5 22.9 14.9 33.9 23.2.9.7-.1 6.4-1.6 7.1-2.7 1.3-6.4.9-9.7.9-1.3 0-2.5-1.2-3.7-1.8-13.4-5.4-26.7-10.7-44.3-17.6m473.7 240.1c6.6 6.9 15.1 12.9 19 21.1 1.8 3.7-4.5 12.9-9.3 17.3-2.6 2.3-13.7.7-14.1-.8-2.6-10.9-3.4-22.1-4.8-33.3 3-1.5 6.1-2.9 9.2-4.3m1273.3-513.7c-19.9 19.4-39.6 13.9-54.4-17.8 17.4 5.7 34.8 11.4 54.4 17.8m-186.8-240.3c-7.8-13.9-15.5-27.9-26.9-48.2 13.5 3.9 28.8 4 31.7 10.1 5.1 10.6 2.5 24.8 3.2 37.5-2.7.2-5.4.4-8 .6m694.6 712.2c-1.4 16.2-1.8 32.1-21.4 35.3-3.4.5-11.9-7.8-11.5-11.3 1.9-17.3 11.5-27.2 32.9-24M4438.6 25.8c3.6 10.4 9.3 20.7 9.9 31.2.4 6.6-7.1 13.6-11 20.5-2.8-.6-5.6-1.1-8.4-1.7-1-15.7-1.9-31.5-2.9-47.2 4.2-.9 8.3-1.9 12.4-2.8m-46 1828.7c-36.1 3.8-39.4-.5-29.8-42.8 9.3 13.4 18.6 26.8 29.8 42.8m356.8-1772c-5.8-19.2-.3-30.8 17.8-33 4.3-.5 13.9 7 13.7 10.4-1.1 18.8-15.8 21.2-31.5 22.6m-157.3 623.2c26.6 24.3 26.2 40.3 0 54.5v-54.5zm898.8 1868h53.6c-18.2 26.7-38.6 27-53.6 0m-1653-582.4c-14.3-3.5-31.2-2.6-31.6-22.5-.1-3.6 10.4-11.1 15.2-10.5 20 2.3 19.9 16.6 16.4 33m974.8 743.9h45.8c.8 3.3 1.6 6.5 2.4 9.8-11 3.9-21.8 10-32.9 10.7-6 .4-12.5-8.5-18.8-13.2 1.1-2.5 2.3-4.9 3.5-7.3m1207.8-1051.7c-8.8 9.8-17.6 19.6-26.3 29.5-3.5-5-10.5-10.5-10-15 2.3-17.6 13.5-24.4 36.3-14.5M5325.2 304c-6.6-20.1 5.2-27.1 20.1-29.1 4.2-.6 14.4 9.3 13.7 11.5-5.2 14.9-16.7 21.1-33.8 17.6m-312.3 1446.4c-2.1-11.7-4.3-23.3-6.4-35 1.8-1.6 3.6-3.3 5.3-4.9 8.4 4.9 23.1 8.9 23.8 14.8 1.1 8.3-8.1 17.9-12.9 27-3.2-.7-6.5-1.3-9.8-1.9m-882.8-1397c6.5 8.4 11.1 14.3 16.6 21.4-9.6 12.6-19.1 25.1-28.6 37.5-2.4-1.4-4.9-2.7-7.3-4.1 6.1-17.3 12.3-34.8 19.3-54.8m578.1 1288.9h-44.3c-.7-3-1.4-6-2.1-9.1 11-4 21.9-10.1 33.2-11.2 4.8-.5 10.6 9.3 15.9 14.5-.9 2-1.8 3.9-2.7 5.8m-959.9 498.9c-10.4-6.2-20.7-12.3-36.9-21.9 13-6.2 21.4-10.3 29.8-14.3 4.2 10.8 8.4 21.7 12.7 32.5l-5.6 3.7zM4782.2 1589c13.9 2.6 29.5 3 31.5 21.8.3 2.9-8.5 9.9-12.6 9.5-18.4-1.8-24.6-12.9-18.9-31.3m114.1 1002.6c-15.3 1.5-27.2-2.7-30.1-18.6-.4-2.4 9.7-10 14.1-9.3 15.7 2.3 22.3 11.9 16 27.9m-441.2-1917c-10.9 11.5-19.3 20.5-27.8 29.4-2.7-5.3-8-10.9-7.6-15.9 1.8-18 13.7-19.9 35.4-13.5m124.6 1733.5c6.2-9.9 12.3-19.7 20.4-32.7 7 9.7 12.7 17.5 21.5 29.6-15.9 3.4-28 5.9-40 8.5-.6-1.8-1.2-3.6-1.9-5.4m-416-1258.5c-13.5 2.1-17.9 25.7-37.7 11.8-3.3-2.3-6.4-8.6-5.5-12 .8-3.3 6.7-7 10.7-7.4 10-1.1 20.1-.3 30.2-.3.8 2.6 1.6 5.2 2.3 7.9m-676-243.6c-3.3-8.3-8.6-16.4-9-24.8-.3-5.6 6.3-11.6 9.8-17.4 3.6 3.9 9.9 7.6 10.2 11.7.8 10.2-1.1 20.7-1.8 31.1-3.1-.2-6.2-.4-9.2-.6m264.9 1489l-23.4 25.8c-3.5-4.1-10-8.3-9.8-12.2.4-17.8 11.3-23 33.2-13.6m2220.5-8.8c-16 1.1-28.4-2.7-31-19.9-.4-2.6 7.8-9.5 10.8-8.9 13.7 3 27.9 7.3 20.2 28.8m-2882-1217.3c18.7-6.5 27.4 2 29.1 18.5.4 4-6.5 12.7-9.1 12.3-17.6-2.6-18.3-16.9-20-30.8m1153.2 473.5c-22.8 22.1-34.7 21.3-43-2.4 14.6-5.8 29.1-12.5 43 2.4M3421.8 2508c-13.9-5.8-28.1-11.2-41.6-17.8-3-1.5-3.9-7.2-5.8-11 4.1-1.2 9.6-4.6 12.1-3.2 13.3 8 25.9 17.2 38.7 25.9-1.2 2.1-2.3 4.1-3.4 6.1m1749-1908.9c-1.5-16.1-.1-29.1 18.9-29.3 3.9 0 11.4 5.6 11.2 8.3-1 18.8-16.4 17.9-30.1 21M4398.7 2016c7.5 9.7 12.4 16 20 25.9-15.1 3.6-26.9 6.4-44.4 10.6 9.7-14.4 15.9-23.8 24.4-36.5m460.7 6.9c-17.2-10.9-31.8-20.1-46.3-29.3 34 .7 46.3 8.6 46.3 29.3m-1017.3-1270c14.9-11.7 3.8-41.4 38.9-45.7-12.7 19.8-22.5 35.2-32.4 50.6-2.2-1.6-4.4-3.3-6.5-4.9M3358 1079.3c2.8-14.9 4.7-24.5 7.1-37.3 10 5.2 17.3 9 28.6 14.9-12.5 7.9-21.7 13.7-35.7 22.4m1060.9 1478.6c5.1 12.5 10.2 25 15.7 38.4-23.2.3-24.7-2.6-21.2-36.3 1.9-.6 3.7-1.3 5.5-2.1m-422.6-822.8c-4.9-12-9.8-24-14.9-36.3 20.8-3.3 23.8 2.4 14.9 36.3m-871-1125.4c-11 2.6-22.1 5.3-35.6 8.5 8.1-26.6 14.2-28.6 34.2-16 .4 2.5.9 5 1.4 7.5m767.9 876.2H3858c-.6-1.7-1.3-3.4-1.9-5.1 11.7-4.8 23.5-9.6 37.1-15.3v20.4zm1070.9-214.3c-5.3-14.4-9-24.6-13.8-37.7 26.9 9.4 28.5 13.4 13.8 37.7m756.7-15.1c-5.5-13.2-9-21.8-13.3-32.2 25.8 3.4 27.5 6.9 13.3 32.2m-33.1-1101.6c-28.3-9.8-29.2-12.5-12.7-33.6 4.2 11.2 7.6 20.2 12.7 33.6M4364.3 1656.1c7.4 4.1 14.8 8.3 22.3 12.4-2.6 3.6-6.8 10.5-7.5 10.2-7.3-3.4-14.1-8.1-21-12.4 2.1-3.3 4.2-6.8 6.2-10.2" clip-path="url(#d)"/><g opacity=".4" clip-path="url(#d)"><defs><path id="m" d="M3034.7-1107.7h4899.8v5045.2H3034.7z"/></defs><clipPath id="n"><use xlink:href="#m" overflow="visible"/></clipPath><path fill="#FBD5C6" d="M4954.8 2992.2c-26.6 22.4-52.2 44.9-79 65.9-5.5 4.3-16.2 5.8-23.3 4-68.8-17.7-135.5-40.9-193.6-83.4-22.5-16.5-26.5-31.4-10.7-53.3 37.3-51.9 89.2-85.8 146.9-110.5 8.8-3.8 24.9 2 34.2 8.4 22.9 15.8 36.3 38.8 44.4 65.9 5.2 17.3 13.7 34.8 25.1 48.6 15.9 19.4 35.8 35.2 56 54.4M4263.4 367c0-24.8 3.8-50.4-1-74.1-5.2-25.3-17.8-49.3-28.9-73.1-7.6-16.3-2.1-26.4 11-34.9 22.1-14.3 41.4-22.8 69.9-6.2 26.6 15.5 42.1 33.5 51.8 61.6 17.8 51.6 37.8 102.5 58 153.2 5.1 12.7 2.8 19.1-9.5 23.8-28.1 10.7-55.1 28.6-86.6 10-2.2-1.3-5.8-2-8.1-1.2-16.3 6-31.3 5.4-40.4-11.2-7.9-14.5-13.7-30.3-20.4-45.5 1.3-.9 2.8-1.7 4.2-2.4m505.3 548c-5.2 26.2-9.2 50.8-15.4 74.9-1.9 7.5-8.6 17.3-15.2 19.5-47.2 15.6-94.4 32.1-142.8 43-42.4 9.6-59.4-14.2-48.8-65.7 5.3-26.2 15.2-51.5 23.2-77.2 12.6-40.5 37-51.8 76.5-29 39.2 22.5 78.2 32.9 122.5 34.5M3163.9 273.7c-.5 9.9-1.3 20.3-1.4 30.7-.4 30.7-25.2 52.1-55.2 46.5-5.6-1-10.6-5.8-15.5-9.2-5.5-3.9-10.1-10.4-16.2-12-21.8-5.8-25.1-23.1-28.5-41.1-3.2-17.6-8.3-34.9-10-52.6-1.9-21-4.4-43-.5-63.4 6-31.3 32.2-40.7 62-28.2 10.4 4.4 23.3 5.5 34.7 4.5 19.9-1.7 68.2 20.3 76.9 38.5 2.7 5.6 2.2 13.7.6 20-3 12-7.7 23.6-12.1 35.2-9.2 24.6-9.3 24.6-34.8 31.1m1527 388.4c-1.5.3-7.7 3.3-12.1 1.7-33.3-12-56.6-35.6-72.9-66.4-2-3.8-1.5-12.2 1.2-14.7 24.7-21.9 50.1-43 74.2-63.3 36.2 30.8 70.6 60 105 89.3.5.4 1.1.6 1.7.9 11.6 6.7 30.9 11.5 33.1 20.5 6 23.8 10 50.8 4.2 73.9-4.5 18.2-24.6 32.6-38 49-27.2-24.8-47.9-43.8-68.7-62.7-4.4-4-9.7-7-13.8-11.2-4.9-5-9-10.8-13.9-17M5755 1875.4c-26.2 25.6-60.2 45.9-54.2 88.1-48.4 0-95.6 1.1-142.6-.7-12.7-.5-28.3 6.6-39-11.5-17.4-29.3-13.9-58.6 15.3-76.7 37.1-22.9 74.6-46.2 121.2-42.4 1.4.1 3.1.4 4.1-.2 27.3-17.1 50.3-2.9 71.5 12 9.8 6.8 15.2 19.7 23.7 31.4m293.4-1083.5c-9.6 8.9-17.3 18.1-26.9 24.4-6.2 4-15.8 6.5-22.7 4.9-9.7-2.3-18.6-8.9-27.5-14.1-19.9-11.7-37.7-26.4-64.5-15.2-17 7.1-30.8-5.4-39.6-22.3-14-26.9-30.7-52.4-46.5-78.3-7.6-12.4-16.4-24.2-23.4-36.9-8-14.4-15.1-30.7 1.5-43.1 19.7-14.7 46-17.9 60.5-1.7 37.1 41.5 75.1 82.2 113.4 122.6 5.8 6.1 14.7 12.2 22.7 13 29.3 2.6 42.7 21.9 53 46.7m-1249.6 461.6c32 12.9 62 25 96.8 39.1-8.2 13.1-17.9 26.3-25 40.7-4 8.1-4.8 18.2-5.1 27.5-.4 12.1-1 21.2-13.7 29.2-10.6 6.7-19 19.9-23.9 32-6.5 16.1-15.5 17.5-26.7 8.3-31.3-25.8-60.9-53.8-92.9-78.7-21.4-16.7-31-36.5-27.9-62.6.8-6.6 4.2-16.8 8.6-18.1 10.3-3.2 22.7-4.7 32.8-1.8 14.8 4.2 27.8 14.5 42.6 19.1 13.7 4.3 26 .4 29.1-17 1.3-7.2 4.1-13.9 5.3-17.7m-958.5 68.9c-5.2 8.3-9.5 16.1-14.6 23.4-9.7 14-20 20.5-39.8 15-27.8-7.7-57.2-10.5-86.1-12.7-41.8-3.1-63.8-24.2-61.6-67.4 1.3-25.3 7-50.7 13.4-75.4 3-11.4-2.7-31.7 15.2-32.2 10.3-.3 22.1 11.4 31.4 19.7 47 42.4 93.6 85.4 142.1 129.6m414.1-47c35.8-1 66.3 10.4 95.8 26.9 10.5 5.9 24.3 6.1 34.4 12.4 7.9 4.9 17.9 15.7 17.3 23.1-2.3 30.2-6.7 60.9-38.4 77.2-15.3 7.9-30.7 24-44.8 22.7-10.1-1-18.2-24.6-26.9-38.3-12.1-19.3-24.1-38.6-35.6-58.2-12.4-20.9-12.7-42-1.8-65.8m-1057.8-83.5c28.1-11.5 53.5-22 79.1-32.2 12.4-4.9 23.6-7.1 31.3 8.8 2.5 5.1 10.6 8.6 16.9 10.5 16.1 4.9 18.8 14.6 12.5 28.8-4.8 10.8-8.8 22-14.5 32.3-11.5 20.4-15.5 39.9-6.9 63.6 2.8 7.8-10.8 21.4-18.8 35.8-38.2-36.1-71.9-68.1-109.5-103.7 2.4-10.9 6.5-28.8 9.9-43.9m1072.5 1112.9c19.9 13.6 41.3 22.8 42 49.8.1 2.5 2.4 4.9 3.9 7.3 12.2 18.7 11.3 31.4-7.9 40.8-31.5 15.4-56.6 37.1-78 64.4-3.7 4.8-17.2 8.1-21.4 5.2-9.9-6.8-21.3-16.6-24.1-27.2-5.6-21.2-1-40.8 16.5-58.5 24.9-25.2 45.9-54 69-81.8M3763.4 806.4c-1.4 51.1-14.8 93.5-35.8 134-8.6 16.6-17 33.4-23 51-10.1 29.4-27.4 45.5-65.1 53.8 11.7-41.6 22.4-81.4 34.1-120.9 8.7-29.1 17.8-58.2 28.4-86.6 5.6-15 13.1-29.7 35.4-21.1 5.5 2.1 14.7-5.5 26-10.2m833.7 1037.8c-38.7 11.7-50.4-1.7-74.1-61.1 25.3 6.5 48.7 12 71.7 18.7 42.6 12.5 85.1 25.4 127.5 38.8 26.7 8.5 36 20.9 35.3 44.2-.5 16.9-9.3 23.6-25.6 21.1-42.6-6.6-82.2-20.6-118.1-44.5-5.6-3.8-9.7-9.9-16.7-17.2m1231.4 535.4c-16 14.1-32.2 24-54.7 17.4-5.9-1.7-15 3.9-19.2 1.1-7.7-5.2-17.7-13.8-18.2-21.6-2.2-30.9-9.1-59.9-23.7-87.3-2.9-5.5-4.3-17.3-1.6-19.2 10.1-6.9 22.7-16 33.4-14.9 20.3 2.1 34.5 14.2 42.4 36.3 10.8 30.2 27.2 58.4 41.6 88.2m-357.4 376c-4.9 9.5-7.9 17.2-12.5 23.8-7.1 10.3-14.6 20.4-23.2 29.5-21.8 22.9-54 17.9-68.4-10.5-1.6-3.2-1.7-8.7-.1-11.9 9-17.9 14.8-40.9 29.4-51.6 13.1-9.6 36.6-8.5 54.7-6.2 7.7 1 13.3 17.2 20.1 26.9M5279.3 704.5c-49 19.9-94.7 55.6-154.7 24.4 13.4-7.9 26.8-16.2 40.5-23.8 25.9-14.3 50.5-29.8 83.1-26.8 18.7 1.7 27.8 7.4 31.1 26.2m740.9 1799.9c8 17.6 17 32.3 20.7 48.2 1.4 5.8-8.3 16.6-15.5 21.4-14.7 9.8-30.8 17.7-46.8 25.2-5.4 2.5-14.1 4.3-18.1 1.6-6.2-4.2-14.1-13.2-13.1-18.8 1.7-10.3 7.4-21.7 14.9-29 16.2-15.9 34.8-29.6 57.9-48.6" clip-path="url(#n)"/></g><g opacity=".7" clip-path="url(#d)"><defs><path id="o" d="M3034.4-1107.7h4941.3V3909H3034.4z"/></defs><clipPath id="p"><use xlink:href="#o" overflow="visible"/></clipPath><path fill="#FBD5C6" d="M3583.4 1673.9c-42 41.6-83.7 82.7-125 124.2-14.7 14.8-28 31-42.2 46.3-29 31.2-67 37.4-106.9 37.1-11.2-.1-16-5.1-16.8-18.2-1.9-29-9.7-57.7-10-86.6-.2-20.7 8.1-41.5 12-62.4 5.3-28.5 10.2-57.2 14.9-85.8.7-4-.1-8.4-.4-12.5-.7-9.5-5.6-21.8-1.4-27.9 10-14.6 22.7-30.3 43.1-29.3 38.2 1.8 76.3 5.2 114.4 8.7 5.1.5 10.7 3.8 14.5 7.5 34.5 32.4 68.6 65.2 103.8 98.9m593.2-1276.7c14.1 16.4 28.7 32.4 42.1 49.4 14.6 18.5 33.4 18.6 54.6 17.3 24.8-1.4 50-.5 74.8 1.7 7.9.7 16 8 22.6 13.7 7.9 6.8 14.5 15.1 21.3 23.1 23.9 28.3 23.8 28.3-.5 56.3-13.7 15.8-26.2 32.8-41 47.4-16.3 16-28.7 31-12.2 54.2 1.4 1.9-3.5 11.4-7.5 13.5-15.3 8-31.1 15.2-47.4 21-4.4 1.5-13-1.5-16.2-5.3-55.4-65.2-116.2-124.3-186.6-173.4-15.9-11.1-35.1-23.3-30-45.8 4.5-20.2 25.3-24.9 43.1-26.3 31.9-2.6 57.5-14.4 74.3-43.7 2.8-1.1 5.7-2.1 8.6-3.1m992.5 1917.5c-17.2 18.1-30.7 34.2-46.2 48.2-17 15.3-19.1 32.6-17 54.4 2.4 24.7 4.3 51.8-3.5 74.4-6.6 19.1-26.8 33.8-41.9 49.6-6.6 6.9-15.5 11.6-24 17.6-23.1-19.9-47.2-37.9-67.8-59.3-19.9-20.5-38.5-34.3-66.3-11.5-10.3-21.5-20.6-40.3-27.9-60.1-1.9-5.1 3.9-15.8 9.2-20.2 53.5-44.9 103-93.6 145.1-149.6 13.4-17.8 25.6-36.7 40.9-52.6 20.2-21 38-16.4 49.2 10.6 2.9 7 6.4 14.3 6.7 21.6 1.7 32.3 14.1 58.6 43.5 76.9m-223.3-1202.5c27.2-9.9 54.6-19.3 81.5-29.9 32-12.6 63.2-27 95.5-38.8 7.6-2.8 19.9-.7 26.8 3.9 17.2 11.5 32.3 26.2 48.8 38.8 14.3 11 14.7 23.9 7.6 38.6-10.5 21.7-23.3 42.5-31.2 65.1-8.7 24.6-13 50.8-19.2 76.3-1.8 7.2-3.8 14.4-4.9 18.9-18.4 1.2-34.1 1.4-49.6 3.6-20.3 2.8-32.1-4.7-41.1-23.3-7.2-14.9-20.1-27.1-29.7-41-10.1-14.5-22.8-28.5-28-44.7-4.8-14.7-11.7-23.3-24.3-31.1-12.4-7.6-22.6-18.8-33.7-28.4.3-2.7.9-5.3 1.5-8m964 936.2c-16.6 51.2-32.3 102.8-50.4 153.6-6.9 19.4-48.4 27.7-66.5 17.2-15.2-8.8-30.9-18.1-47.6-22.7-29.5-8-46.5-28.5-55.7-54.3-4.8-13.6-7.9-35.7 9.8-44 26.5-12.5 37.1-36.2 51.4-58.1 4.3-6.5 10.3-12.3 16.6-17.2 9.2-7.2 19.3-13.3 29.2-19.6 12.8-8.3 25.2-16.5 41.4-5.6 6.4 4.3 15.7 4.6 23.8 5.9 7.2 1.1 17.7-1.9 21.3 2 9.7 10.5 16.7 23.6 24.4 35.8 1 1.5.1 4.1.1 6.2.9.4 1.6.6 2.2.8m-693 363c47.7 10.7 85.7-17.9 126.7-32.8 20.1-7.3 32.7-5.2 42.8 13.5 11 20.5 20.4 37.7 5.4 63.9-16.2 28.4-35.3 46-65.9 56.3-50.4 16.9-99.9 36.7-149.4 56.1-13.9 5.5-20.7 1.4-25.5-11.6-10.2-27.6-26.9-54.3-8.8-85.1 2.1-3.6.9-9.7.2-14.5-3.7-25.2 13-45.3 38.8-45.9 11.9-.2 23.8.1 35.7.1m-645.2-70.4c5.7 17.2-4.5 32-26.3 44-25.4 14-49 29.5-79.3 34.1-17 2.6-33.3 15.5-48.2 26.1-24.5 17.5-30.2 18.7-41.9-7.6-20.5-46.1-39.7-92.9-55.6-140.7-11.2-33.8-2.1-44.9 32-51.6 4.2-.8 9.5-.3 13.3 1.6 32.1 15.6 64.1 31.5 95.8 47.8 14.5 7.5 27.1 19.7 45.8 12.1 3-1.2 8.5 3.2 12.6 5.4 15.1 8.3 30 16.7 51.8 28.8m394.9-378.8c-11.3 42.5-62.9 52.5-94.4 31.9-5.2-3.4-7-15.8-6.4-23.8 1.4-20 6.3-39.9 7.2-59.9.3-6.8-5.8-16.3-11.8-20.7-52.8-38.1-44.6-59.6-17.4-107.4 5.8-10.3 46.8-10.8 57.9-.5 20.5 19.1 42.2 33.3 71.8 34 6.7.1 14.9 9.7 19.5 16.8 18.3 28.4 14.9 57.3-.1 86.1-3.1 6-5.8 13.4-5.3 19.9 1.4 16.6-3.8 25.6-21 23.6M3626.3 696.9c7.1-13.3 11.8-25.9 19.6-36.2 14.1-18.6 25.4-37.1 26.2-61.9.3-8.3 9.8-19.2 18-23.7 29.4-16.4 59.2-13.4 88.4 2.8 5.2 2.9 11.8 4.1 17.9 4.4 11.2.5 23.7-2.2 22.1 16-.2 1.7 2.8 4.3 4.8 5.6 34.5 21.7 43.3 45.6 33 80.5-5.8 19.6-17 22.6-34.2 19.3-16.3-3.1-32.8-7.3-49.1-7.2-9.2 0-21.7 5.2-26.9 12.3-31.7 43.7-59.4 50-103.8 18.8-7.7-5.5-9.9-18.6-16-30.7m410.5 1011.8c23.7-2.4 45.8-7.7 67.4-6 18.3 1.4 38.6 7.1 53.2 17.6 11.7 8.5 19 26.3 22.8 41.3 2.5 10.1-3.7 23-7.5 34.1-9.6 28.4-13.1 56.9-6.4 86.5 1.5 6.7 2 14.2.7 20.9-2.5 13 10 31.6-10.9 37.9-23.8 7.1-46.6 19-71.5-4.2-22.6-21-29.6-44.1-31.6-73.2-3.2-50.1-10.2-99.9-16.2-154.9m1306.4-533.3c-14.3-.9-26.8-2.5-39.3-2.4-22.9.3-49.7-27.5-43.3-55.2 1.2-5 4.4-9.6 7.3-14.1 5.7-8.9 10.6-18.9 18-26.1 8.3-8 18.3-16.6 29.1-19.4 26.6-7.1 53.7-13.1 81-15.9 38.7-4.1 68.5 3 76.7 39 .6 2.7 2.9 6.4 1.9 7.9-24.2 34.8-1.7 82.1-33.5 116.3-14.5 15.5-26 20.7-44.4 14.3-9.1-3.2-17.8-7.7-27-10.5-17-5.2-31.4-11.9-26.5-33.9M3352.3-70.7c22.7-3.7 51.6-7.9 80.2-13.2 36.5-6.8 38.4-6.2 54.3 25.9 1.5 3.1 3.5 6 5.1 9.1 16.8 33.8 12 50.8-22.5 67.2-22.1 10.5-47.1 15.3-68.4 27-14.5 7.9-26.3 17.6-44.4 16.2-27.1-2.1-52.9-37.2-48.9-64.2 2.4-16-4-31.9 4.5-49.2 7.9-16.2 14.5-26.2 40.1-18.8m2151.3 1577.4c4.6-34.6 37.1-56.6 70.1-55.9 20.2.4 39.5-1.7 56.7 9.6 5.7 3.7 13 13.2 11.7 17.8-10.9 39.3 10.7 74.7 12.5 112.4.8 16.6.3 28.3-16.7 34.6-6.5 2.4-12.6 5.9-18.9 8.9-38.3 18.1-56.7 11-72.4-28.7-7.9-20.1-13.9-41.1-22.3-61-5.4-13.2-13.7-25.2-20.7-37.7m337.3-124c19.8-18.7 39.8-35.1 56.7-54.3 11-12.5 20.9-28 25.2-43.9 7.9-28.8 30-41.3 52.2-55.1 3.6-2.2 7.1-4.5 11.7-7.4 20.7 24.7 41.5 49.5 58.7 70-30.4 41.7-58 80.1-86.5 117.8-4.7 6.2-13.3 11.3-21 13.1-12.7 3-26.4 5.1-39.2 3.3-11.3-1.6-23-7.2-32.4-14-8.7-6.3-14.6-16.5-25.4-29.5M4701 207.8c4.1.7 8.2 1.3 12.2 2 6.1.9 12.4 3 18.3 2.5 16.4-1.6 34.4-9.6 48.7-5.2 14.3 4.4 24.5 21.3 37.2 31.8 10.1 8.4 21.7 14.9 32 23.1 10.8 8.6 17.8 19.7 6.9 32.1-9.2 10.5-20.5 17.8-36.1 9.2-20.7-11.4-42.3-21.1-63-32.4-17.8-9.7-35-17.9-56.6-17.4-8.1.2-23.8-13.6-23.1-19.4 1.2-10.7 4.4-27.9 23.5-26.3m615.3 486c35.5-8.4 52 15 65.9 45.4 22.3 48.9 18.8 55.4-34.2 53.7-7-.2-14-.4-21-1.4-19.8-2.7-27.7-14.3-23.6-33.8 4.3-20.4 8.3-40.8 12.9-63.9" clip-path="url(#p)"/></g></g></svg>