<?xml version="1.0" encoding="utf-8"?>
<!-- Generator: Adobe Illustrator 15.1.0, SVG Export Plug-In . SVG Version: 6.00 Build 0)  -->
<!DOCTYPE svg PUBLIC "-//W3C//DTD SVG 1.1//EN" "http://www.w3.org/Graphics/SVG/1.1/DTD/svg11.dtd">
<svg version="1.1" id="Calque_1" xmlns="http://www.w3.org/2000/svg" xmlns:xlink="http://www.w3.org/1999/xlink" x="0px" y="0px"
	 width="669.660156px" height="512.878906px" viewBox="0 0 669.660156 512.878906"
	 enable-background="new 0 0 669.660156 512.878906" xml:space="preserve">
<path d="M402.912109,300.722656c21.525391-10.532227,41.341797-24.8125,58.223633-41.824219
	c8.267578-8.331055,15.770508-17.401367,22.638672-26.914062c7.148438-9.90332,14.945312-21.077148,18.056641-33.032227
	c3.665039-14.086914-0.847656-30.239258-16.179688-34.617188c-13.47168-3.845703-25.970703,3.329102-34.661133,13.208984
	c-16.305664,18.539062-27.682617,41.759766-32.439453,65.981445c-2.368164,12.051758-3.448242,24.444336-2.65332,36.714844
	c0.833984,12.860352,3.381836,27.101562,16.124023,33.443359c12.199219,6.071289,26.956055,2.319336,38.307617-3.884766
	c11.180664-6.110352,20.818359-15.282227,30.266602-23.722656c37.768555-33.737305,71.556641-71.803711,100.972656-113.014648
	c33.086914-46.355469,66.43457-99.597656,68.087891-158.234375c0.150391-5.314453-3.972656-10.800781-9.176758-12.052734
	c-18.567383-4.46875-32.151367,8.915039-42.232422,22.660156c-9.780273,13.334961-18.720703,27.283203-26.996094,41.597656
	c-16.999023,29.399414-31.071289,60.349609-44.083008,91.686523c-6.297852,15.168945-12.28418,30.467773-18.333008,45.736328
	c-5.24707,13.24707-10.370117,26.582031-13.947266,40.393555c-3.948242,15.241211-6.349609,31.386719-6.376953,47.149414
	c-0.015625,8.879883,2.639648,17.245117,9.910156,22.733398c6.650391,5.019531,15.46875,6.327148,23.513672,4.460938
	c17.754883-4.117188,28.775391-23.974609,37.785156-38.174805c8.925781-14.068359,16.615234-28.87207,25.461914-42.990234
	c-2.491211,1.915039-4.980469,3.829102-7.470703,5.744141c10.889648-3.453125,22.182617-5.597656,33.438477-7.458984
	c4.485352-0.742188,8.981445-1.398438,13.482422-2.036133c2.935547-0.416016-2.868164,0.352539-0.342773,0.047852
	c0.557617-0.068359,1.115234-0.143555,1.673828-0.213867c0.566406-0.074219,1.134766-0.143555,1.704102-0.208984
	c6.704102-0.787109,12.5-5.182617,12.5-12.5c0-6.146484-5.750977-13.292969-12.5-12.5
	c-8.820312,1.036133-17.625,2.333008-26.375977,3.845703c-6.798828,1.176758-13.580078,2.49707-20.283203,4.139648
	c-2.942383,0.722656-5.908203,1.458008-8.785156,2.410156c-6.34082,2.097656-8.894531,6.439453-12.151367,11.821289
	c-8.047852,13.304688-15.286133,27.083008-23.766602,40.126953c-4.435547,6.825195-8.826172,13.87793-14.339844,19.537109
	c-0.68457,0.702148-2.399414,2.277344-2.658203,2.464844c-1.245117,0.907227-2.367188,1.381836-2.78418,1.526367
	c-0.275391,0.094727-2.823242,0.714844-1.46875,0.355469c1.123047-0.296875-0.731445-0.041992-0.888672-0.091797
	c1.907227,0.610352-0.099609-0.014648-0.420898-0.113281c-2.023438-0.612305-0.376953,0.242188-0.138672,0.126953
	c-0.350586,0.170898-0.192383-1.204102,0.067383-0.010742c-0.089844-0.412109-0.162109-2.761719-0.145508-3.84375
	c0.078125-4.708984,0.40332-9.428711,0.84668-14.117188c0.668945-7.066406,1.876953-14.066406,3.529297-21.155273
	c3.526367-15.111328,9.03418-29.639648,14.729492-44.043945c12.961914-32.775391,25.912109-65.547852,41.519531-97.179688
	c8.916992-18.074219,18.623047-35.770508,29.428711-52.789062c5.460938-8.599609,11.072266-17.259766,17.322266-25.31543
	c1.888672-2.431641,4.767578-5.806641,7.588867-7.866211c0.746094-0.546875,2.389648-1.442383,2.833984-1.605469
	c0.642578-0.235352,1.375-0.451172,2.052734-0.550781c-0.880859,0.128906-2.001953-0.28418,0.455078,0.307617
	c-3.05957-4.016602-6.118164-8.036133-9.177734-12.053711c-1.245117,44.186523-24.150391,84.28418-47.56543,120.456055
	c-23.53418,36.356445-50.65918,70.25-80.895508,101.257812c-15.069336,15.455078-30.808594,30.50293-47.520508,44.186523
	c-6.386719,5.228516-14.762695,11.191406-22.94043,11.022461c-0.546875-0.010742-3.018555-0.535156-2.230469-0.070312
	c-0.347656-0.204102-1.161133-1.710938-0.576172-0.670898c-1.650391-2.932617-0.506836-1.152344-0.425781-0.819336
	c-1.235352-5.089844-1.547852-7.419922-1.773438-13.21875c-0.759766-19.608398,3.161133-39.34375,11.90332-57.075195
	c4.326172-8.776367,9.560547-17.311523,16.036133-24.673828c2.420898-2.751953,4.978516-5.767578,8.257812-6.824219
	c1-0.323242,2.141602-0.067383,2.080078,0.045898c0.213867,0.0625,0.426758,0.12793,0.639648,0.191406
	c-0.419922-0.008789-0.78418-0.15332-1.091797-0.435547c0.009766-0.045898-0.775391-0.524414-0.37793-0.664062
	c0.419922-0.148438-0.827148,6.087891-0.924805,6.396484c-0.804688,2.518555-2.03418,4.807617-3.319336,7.115234
	c-2.749023,4.94043-5.786133,9.731445-8.982422,14.392578c-6.042969,8.811523-12.900391,16.998047-20.368164,24.639648
	c-15.75293,16.123047-34.047852,29.154297-54.287109,39.057617c-6.063477,2.96582-7.712891,11.583008-4.484375,17.101562
	C389.427734,302.423828,396.826172,303.700195,402.912109,300.722656"/>
<path d="M212.873047,68.334961c51.476074-10.9375,102.12207-25.483398,151.557617-43.529297
	c-4.706055-6.121094-9.410156-12.242188-14.116211-18.363281c-35.80957,64.241211-71.619141,128.481445-107.428223,192.720703
	c-35.197266,63.142578-69.956055,126.743164-110.930176,186.394531c-18.804199,27.375-38.990723,53.739258-60.897949,78.709961
	c-4.861816,5.540039-9.940918,11.1875-15.804199,15.699219c-5.598633,4.307617-9.598633,6.460938-15.588867,7.832031
	c-0.625,0.141602-1.275879,0.294922-1.913086,0.366211c0.325195-0.036133,1.553223-0.120117,0.143066-0.12207
	c-0.645996-0.001953-4.432129-0.280273-2.280762,0.094727c-0.51123-0.088867-3.419922-0.904297-1.720215-0.234375
	c-0.723145-0.285156-1.546875-0.765625-2.207031-1.209961c1.057129,0.708984-0.196777-0.152344-0.547852-0.492188
	c-3.412109-3.289062-4.833008-10.387695-5.398926-15.341797c-7.65918-67.006836,46.549805-118.158203,94.293945-155.817383
	c42.413086-33.456055,87.551758-63.958984,132.829102-93.400391c2.117676-1.376953,4.231934-2.765625,6.395996-4.070312
	c13.760742-8.298828,1.208008-29.923828-12.618164-21.585938c-17.35498,10.46582-33.983887,22.332031-50.726074,33.736328
	c-25.958008,17.678711-51.711914,35.708984-76.755859,54.666992C64.190918,326.000977,5.484863,376.925781,0.371094,450.782227
	c-1.182129,17.079102-0.10498,38.045898,11.678223,51.561523c10.848633,12.443359,28.402832,12.731445,42.651855,6.716797
	c15.158691-6.399414,26.756836-18.584961,37.275879-30.863281c11.806152-13.77832,23.259277-27.817383,34.26416-42.248047
	c45.333008-59.439453,82.579102-124.482422,118.975098-189.623047c37.59668-67.288086,75.058594-134.650391,112.587402-201.975586
	l14.097656-25.289062c4.936523-8.859375-3.404297-22.274414-14.116211-18.364258
	c-49.436035,18.045898-100.082031,32.591797-151.558105,43.532227c-6.605957,1.40332-10.442871,9.143555-8.72998,15.375977
	C199.375977,66.444336,206.248047,69.743164,212.873047,68.334961"/>
<path d="M286.464844,273.75c19.109375-17.685547,36.333008-37.212891,53.489258-56.759766
	c-6.963867-4.052734-13.928223-8.106445-20.89209-12.162109c-14.531738,38.610352-29.023926,77.380859-37.792969,117.785156
	c-1.85498,8.549805,3.734863,14.967773,12.054199,15.823242c18.006836,1.851562,33.606934-9.895508,45.712891-21.837891
	c12.25-12.084961,23.34082-25.319336,33.417969-39.259766c9.621094-13.30957,18.130859-27.423828,25.405273-42.147461
	c3.988281-8.075195,7.599609-16.341797,10.915039-24.714844c3.393555-8.573242,6.34375-17.725586,3.825195-26.978516
	c-3.001953-11.029297-13.757812-20.063477-25.571289-17.639648c-10.836914,2.223633-19.655273,14.143555-15.429688,25.1875
	c2.411133,6.302734,8.416016,10.643555,15.375977,8.730469c6.03125-1.657227,11.157227-9.037109,8.731445-15.375977
	c0.799805,2.09082-1.407227,5.130859-3.291016,5.776367c1.448242-0.495117-3.624023-0.170898-3.702148-0.126953
	c-0.269531-0.107422-0.40625-0.305664-0.40918-0.595703c0.479492,1.426758,0.571289,1.816406,0.276367,1.169922
	c0.015625,1.374023-0.183594,2.162109-0.46875,3.457031c-1.563477,7.102539-5.166992,14.233398-8.188477,20.823242
	c-6.724609,14.671875-14.666992,28.78418-23.704102,42.158203c-8.609375,12.743164-18.290039,24.672852-28.906738,35.798828
	c-9.248047,9.692383-20.314941,21.981445-33.98877,20.575195l12.052734,15.823242
	c8.769043-40.405273,23.26123-79.175781,37.792969-117.78418c4.385742-11.655273-12.878906-21.291992-20.89209-12.163086
	c-17.155762,19.546875-34.379883,39.075195-53.489746,56.758789C256.954102,267.023438,274.665039,284.669922,286.464844,273.75"/>
<path d="M631.787109,369.234375c-109.929688-8.094727-220.59082-5.498047-330.010742,7.856445
	c-31.535156,3.849609-62.965332,8.52832-94.246094,14.074219c-6.652344,1.178711-10.399414,9.302734-8.730957,15.376953
	c1.927734,7.012695,8.705566,9.913086,15.376953,8.730469c107.431641-19.049805,216.687012-27.467773,325.772949-25.337891
	c30.645508,0.599609,61.269531,2.049805,91.837891,4.299805c6.741211,0.49707,12.5-6.100586,12.5-12.5
	C644.287109,374.556641,638.546875,369.732422,631.787109,369.234375"/>
<polygon points="216.242188,461.326172 227.356934,461.326172 227.356934,498.505859 241.202148,498.505859 
	241.202148,506.956055 216.242188,506.956055 "/>
<polygon points="301.001465,461.196289 301.001465,469.644531 284.491211,469.644531 284.491211,479.460938 
	299.05127,479.460938 299.05127,487.911133 284.491211,487.911133 284.491211,498.505859 301.001465,498.505859 
	301.001465,506.956055 273.376465,506.956055 273.376465,461.196289 "/>
<path d="M382.054688,461.325195h19.825195c4.635742,0,8.330078,1.126953,11.082031,3.379883
	c2.750977,2.254883,4.12793,5.113281,4.12793,8.580078c0,5.158203-3.012695,8.645508-9.035156,10.46582
	c3.076172,0.433594,5.525391,1.711914,7.344727,3.834961c1.820312,2.124023,2.730469,4.614258,2.730469,7.474609
	c0,3.639648-1.333008,6.532227-3.998047,8.676758c-2.665039,2.146484-6.380859,3.217773-11.147461,3.217773h-20.929688V461.325195z
	 M393.169922,469.776367v9.87793h7.279297c1.602539,0,2.892578-0.411133,3.867188-1.233398
	c0.975586-0.822266,1.462891-2.048828,1.462891-3.673828s-0.487305-2.858398-1.462891-3.704102
	c-0.974609-0.845703-2.264648-1.266602-3.867188-1.266602H393.169922z M393.169922,498.505859h8.384766
	c1.515625,0,2.772461-0.455078,3.769531-1.365234c0.996094-0.910156,1.495117-2.166016,1.495117-3.770508
	c0-1.601562-0.477539-2.881836-1.429688-3.834961c-0.954102-0.953125-2.188477-1.429688-3.705078-1.429688h-8.514648V498.505859z"/>
<polygon points="451.864258,461.326172 462.978516,461.326172 462.978516,498.505859 476.824219,498.505859 
	476.824219,506.956055 451.864258,506.956055 "/>
<path d="M513.125977,500.780273c-4.529297-4.419922-6.792969-10.010742-6.792969-16.770508
	c0-6.758789,2.263672-12.338867,6.792969-16.736328c4.52832-4.397461,10.075195-6.598633,16.639648-6.598633
	c6.56543,0,12.089844,2.201172,16.575195,6.598633s6.726562,9.977539,6.726562,16.736328
	c0,6.759766-2.25293,12.350586-6.758789,16.770508c-4.507812,4.420898-10.033203,6.630859-16.576172,6.630859
	S517.654297,505.201172,513.125977,500.780273 M538.475586,493.56543c2.188477-2.383789,3.282227-5.567383,3.282227-9.555664
	c0-3.985352-1.09375-7.170898-3.282227-9.553711c-2.1875-2.382812-5.114258-3.576172-8.774414-3.576172
	c-3.663086,0-6.587891,1.193359-8.775391,3.576172c-2.189453,2.382812-3.283203,5.568359-3.283203,9.553711
	c0,3.988281,1.09375,7.171875,3.283203,9.555664c2.1875,2.383789,5.112305,3.574219,8.775391,3.574219
	C533.361328,497.139648,536.288086,495.949219,538.475586,493.56543"/>
<path d="M590.345703,500.748047c-4.529297-4.397461-6.791992-9.978516-6.791992-16.737305
	c0-6.759766,2.262695-12.338867,6.791992-16.738281c4.527344-4.396484,10.063477-6.59668,16.606445-6.59668
	c5.071289,0,9.577148,1.342773,13.520508,4.030273c3.942383,2.6875,6.696289,6.413086,8.254883,11.179688H615.46875
	c-1.734375-3.335938-4.507812-5.004883-8.320312-5.004883c-3.814453,0-6.814453,1.191406-9.00293,3.575195
	c-2.189453,2.383789-3.282227,5.567383-3.282227,9.554688s1.092773,7.171875,3.282227,9.553711
	c2.188477,2.383789,5.124023,3.576172,8.806641,3.576172c2.643555,0,4.799805-0.661133,6.46875-1.983398
	c1.667969-1.320312,2.783203-3.086914,3.34668-5.297852h-12.869141v-8.448242h24.829102v8.448242
	c-0.823242,4.160156-3.097656,8.039062-6.824219,11.636719c-1.77832,1.732422-3.975586,3.141602-6.597656,4.224609
	c-2.62207,1.083984-5.40625,1.625-8.353516,1.625C600.40918,507.345703,594.873047,505.146484,590.345703,500.748047"/>
</svg>
