<svg version="1.1" xmlns="http://www.w3.org/2000/svg" x="0px" y="0px" width="118.833984px" height="118.833984px" viewBox="0 0 118.833984 118.833984">
<path d="M59.416992,118.833984C26.654297,118.833984,0,92.179688,0,59.416992S26.654297,0,59.416992,0
	s59.416992,26.654297,59.416992,59.416992S92.179688,118.833984,59.416992,118.833984z M59.416992,6
	C29.962891,6,6,29.962891,6,59.416992s23.962891,53.416992,53.416992,53.416992s53.416992-23.962891,53.416992-53.416992
	S88.871094,6,59.416992,6z"/>
<path d="M82.361328,51.039062L61.467773,30.146484c-1.170898-1.171875-3.071289-1.171875-4.242188,0L36.333008,51.039062
	c-1.171875,1.170898-1.171875,3.071289,0,4.242188c0.585449,0.585938,1.353516,0.878906,2.121094,0.878906
	s1.535645-0.292969,2.121094-0.878906l15.786133-15.786133l0.120117,49.959961c0.003906,1.655273,1.346191,2.993164,3,2.993164
	c0.002441,0,0.004883,0,0.007324,0c1.656738-0.003906,2.996582-1.350586,2.992676-3.006836l-0.120117-49.916992L78.119141,55.28125
	c1.170898,1.171875,3.070801,1.171875,4.242676,0C83.533203,54.109375,83.533203,52.209961,82.361328,51.039062z"/>
</svg>
