<svg version="1.1" xmlns="http://www.w3.org/2000/svg" x="0" y="0" width="14px" height="14px" viewBox="0 0 14 14">

	<path 
		d="
			M 8.414,7
			l 5.293 -5.293
			c 0.391 -0.391, 0.391 -1.023, 0 -1.414
			s -1.023 -0.391 -1.414, 0
			L 7,5.586
			L 1.707, 0.293
			c -0.391 -0.391 -1.023 -0.391 -1.414, 0
			s -0.391, 1.023, 0, 1.414
			L 5.586, 7
			l -5.293, 5.293
			c -0.391, 0.391 -0.391, 1.023, 0, 1.414
			C 0.488, 13.902, 0.744, 14, 1, 14
			s 0.512 -0.098, 0.707 -0.293
			L 7,8.414
			l 5.293, 5.293
			C 12.488, 13.902, 12.744, 14, 13, 14
			s 0.512 -0.098, 0.707 -0.293
			c 0.391 -0.391, 0.391 -1.023, 0 -1.414
			L 8.414,7
			z
		"
	/>

</svg>
