<svg version="1.1" id="Calque_1" xmlns="http://www.w3.org/2000/svg" xmlns:xlink="http://www.w3.org/1999/xlink" x="0px" y="0px"
	 width="30px" height="30px" viewBox="0 0 30 30" enable-background="new 0 0 30 30" xml:space="preserve">
<path d="M22.002441,13.046387v6.201172c0,0.345703-0.121094,0.638672-0.364746,0.884766
	c-0.246094,0.246094-0.541016,0.367188-0.885254,0.367188h-11.5c-0.34375,0-0.63916-0.121094-0.882812-0.367188
	c-0.244141-0.246094-0.367188-0.539062-0.367188-0.884766v-6.201172c0.229004,0.253906,0.492188,0.482422,0.789062,0.677734
	c1.887207,1.28125,3.180176,2.18457,3.884766,2.697266c0.29541,0.21875,0.535156,0.388672,0.723145,0.511719
	c0.184082,0.123047,0.430176,0.246094,0.738281,0.373047c0.306641,0.128906,0.591797,0.191406,0.856934,0.191406h0.018066
	c0.263672,0,0.550781-0.0625,0.856934-0.191406c0.309082-0.126953,0.554688-0.25,0.737793-0.373047
	s0.42627-0.292969,0.723145-0.511719c0.886719-0.640625,2.184082-1.539062,3.891113-2.697266
	C21.518555,13.522949,21.779297,13.296387,22.002441,13.046387z M22.002441,10.751465
	c0,0.412109-0.126953,0.804688-0.382812,1.179688c-0.256348,0.371094-0.572266,0.693359-0.955078,0.957031
	c-1.957031,1.361328-3.17627,2.207031-3.65625,2.541016c-0.050781,0.035156-0.161621,0.115234-0.32959,0.236328
	c-0.17041,0.123047-0.312012,0.222656-0.422363,0.296875c-0.112793,0.076172-0.248047,0.162109-0.407715,0.255859
	c-0.160156,0.09375-0.309082,0.164062-0.449219,0.208984c-0.141113,0.048828-0.270996,0.070312-0.391113,0.070312h-0.018066
	c-0.116699,0-0.247559-0.021484-0.390625-0.070312c-0.13916-0.044922-0.289062-0.115234-0.449219-0.208984
	s-0.292969-0.179688-0.405762-0.255859c-0.111328-0.074219-0.254395-0.173828-0.422363-0.296875
	c-0.169922-0.121094-0.278809-0.201172-0.332031-0.236328c-0.474609-0.333984-1.153809-0.808594-2.046875-1.425781
	c-0.891113-0.617188-1.423828-0.990234-1.602051-1.115234c-0.321777-0.21875-0.628906-0.519531-0.914062-0.899414
	c-0.286621-0.383789-0.429688-0.738281-0.429688-1.066406c0-0.40332,0.106934-0.741211,0.32373-1.013672
	c0.217285-0.273438,0.525391-0.408203,0.92627-0.408203h11.501953c0.335938,0,0.630859,0.121094,0.876953,0.367188
	C21.877441,10.112793,22.002441,10.407715,22.002441,10.751465z"/>
</svg>
