
<svg version="1.1" id="Calque_1" xmlns="http://www.w3.org/2000/svg" xmlns:xlink="http://www.w3.org/1999/xlink" x="0px" y="0px"
	 width="30px" height="30px" viewBox="0 0 30 30" enable-background="new 0 0 30 30" xml:space="preserve">
<g>
	<path d="M15.000488,10.892578c-2.27002,0-4.108398,1.836914-4.108398,4.106445c0,2.271484,1.838379,4.108398,4.108398,4.108398
		c2.269043,0,4.10791-1.836914,4.10791-4.108398C19.108398,12.729492,17.269531,10.892578,15.000488,10.892578 M15.000488,17.665039
		c-1.473145,0-2.667969-1.191406-2.667969-2.666016c0-1.472656,1.194824-2.665039,2.667969-2.665039
		c1.472168,0,2.665527,1.192383,2.665527,2.665039C17.666016,16.473633,16.472656,17.665039,15.000488,17.665039"/>
	<path d="M20.230469,10.728516c0,0.529297-0.429688,0.960938-0.959961,0.960938c-0.532227,0-0.960938-0.431641-0.960938-0.960938
		s0.428711-0.957031,0.960938-0.957031C19.800781,9.771484,20.230469,10.199219,20.230469,10.728516"/>
	<path d="M15.000488,8.442383c2.13623,0,2.388184,0.006836,3.230957,0.046875c0.78125,0.035156,1.205078,0.165039,1.486328,0.274414
		c0.37207,0.146484,0.641602,0.319336,0.918945,0.599609c0.28125,0.279297,0.454102,0.545898,0.600586,0.918945
		c0.109375,0.282227,0.238281,0.706055,0.274414,1.485352c0.039062,0.842773,0.046875,1.09668,0.046875,3.231445
		c0,2.136719-0.007812,2.390625-0.046875,3.232422c-0.036133,0.780273-0.165039,1.204102-0.274414,1.485352
		c-0.146484,0.373047-0.319336,0.640625-0.600586,0.919922c-0.277344,0.279297-0.546875,0.453125-0.918945,0.599609
		c-0.28125,0.109375-0.705078,0.239258-1.486328,0.273438c-0.842773,0.041016-1.094727,0.046875-3.230957,0.046875
		c-2.137207,0-2.389648-0.005859-3.232422-0.046875c-0.780273-0.03418-1.204102-0.164062-1.486328-0.273438
		c-0.373047-0.146484-0.639648-0.320312-0.918945-0.599609c-0.280762-0.279297-0.453125-0.546875-0.599609-0.919922
		c-0.109375-0.28125-0.239258-0.705078-0.274902-1.485352c-0.039062-0.841797-0.046875-1.095703-0.046875-3.232422
		c0-2.134766,0.007812-2.388672,0.046875-3.231445c0.035645-0.779297,0.165527-1.203125,0.274902-1.485352
		C8.909668,9.90918,9.082031,9.642578,9.362793,9.363281c0.279297-0.280273,0.545898-0.453125,0.918945-0.599609
		c0.282227-0.109375,0.706055-0.239258,1.486328-0.274414C12.611328,8.449219,12.863281,8.442383,15.000488,8.442383 M15.000488,7
		c-2.173828,0-2.445312,0.008789-3.298828,0.048828c-0.851562,0.038086-1.432617,0.174805-1.941406,0.371094
		C9.233887,7.625,8.786621,7.899414,8.342285,8.342773C7.897949,8.789062,7.624512,9.234375,7.419434,9.758789
		c-0.196777,0.510742-0.332031,1.09375-0.371094,1.942383C7.009277,12.554688,7,12.827148,7,14.999023
		c0,2.173828,0.009277,2.446289,0.04834,3.298828c0.039062,0.849609,0.174316,1.432617,0.371094,1.942383
		c0.205078,0.525391,0.478516,0.969727,0.922852,1.416016c0.444336,0.444336,0.891602,0.71875,1.417969,0.923828
		c0.508789,0.195312,1.089844,0.333008,1.941406,0.371094C12.555176,22.991211,12.82666,23,15.000488,23
		c2.172363,0,2.443848-0.008789,3.29834-0.048828c0.850586-0.038086,1.432617-0.175781,1.941406-0.371094
		c0.525391-0.205078,0.972656-0.479492,1.416992-0.923828c0.445312-0.446289,0.71875-0.890625,0.923828-1.416016
		c0.196289-0.509766,0.332031-1.092773,0.371094-1.942383C22.991211,17.445312,23,17.172852,23,14.999023
		c0-2.171875-0.008789-2.444336-0.047852-3.297852c-0.039062-0.848633-0.174805-1.431641-0.371094-1.942383
		c-0.205078-0.524414-0.478516-0.969727-0.923828-1.416016C21.212891,7.899414,20.765625,7.625,20.240234,7.419922
		c-0.508789-0.196289-1.09082-0.333008-1.941406-0.371094C17.444336,7.008789,17.172852,7,15.000488,7"/>
</g>
</svg>
