<svg version="1.1" xmlns="http://www.w3.org/2000/svg" x="0" y="0" width="20px" height="20px" viewBox="0 0 20 20">

	<path d="
		M 19.707031, 18.292969l -4.539062 -4.539062
		C 16.311523, 12.306641, 17, 10.483398, 17, 8.5
		C 17,3.812988, 13.186523, 0, 8.5, 0
		C 3.812988, 0, 0, 3.812988, 0, 8.5
		C 0, 13.186523, 3.812988, 17, 8.5, 17
		c 1.983398,0,3.806641 -0.688477, 5.253906 -1.832031
		l 4.539062, 4.539062
		C 18.488281, 19.902344, 18.744141, 20, 19, 20
		s 0.511719 -0.097656, 0.707031 -0.292969
		C 20.097656, 19.316406, 20.097656, 18.683594, 19.707031, 18.292969
		z 
		M 2, 8.5
		C 2, 4.916016, 4.916016, 2, 8.5, 2
		S 15,4.916016, 15, 8.5
		c 0,1.789551-0.727539,3.412109 -1.901367, 4.588867
		c -0.001953, 0.001953 -0.003906, 0.001953 -0.005859, 0.003906
		s -0.001953, 0.003906 -0.003906, 0.005859
		C 11.912109, 14.272461, 10.289062, 15, 8.5, 15
		C 4.916016, 15, 2, 12.083984, 2, 8.5
		z
	"/>

</svg>
