<svg version="1.1" id="Calque_1" xmlns="http://www.w3.org/2000/svg" x="0px" y="0px"
	 width="275.463867px" height="276px" viewBox="0 0 275.463867 276">
<g>
	<path d="M137.462891,0C65.336426,0,6.14209,55.338867,0.000488,125.872559h132.474609v-21.237793
		c0-1.328125,0.681152-2.244141,2.037109-2.75c1.35791-0.505859,2.60791-0.348145,3.752441,0.474121l41.15625,33.184082
		c0.714844,0.631836,1.073242,1.35791,1.073242,2.177734c0,0.885254-0.355469,1.642578-1.071289,2.274414l-41.15625,33.56543
		c-1.143555,0.881836-2.393555,1.075195-3.752441,0.567383c-1.355957-0.567383-2.038086-1.483398-2.038086-2.749023v-21.237305
		H0.001465C6.150391,220.668945,65.340332,276,137.462891,276c76.216797,0,138-61.78418,138-138
		C275.462891,61.784668,213.679688,0,137.462891,0"/>
</g>
</svg>
