<svg version="1.1" xmlns="http://www.w3.org/2000/svg" x="0px" y="0px"
	 width="30px" height="30px" viewBox="0 0 30 30">
<path d="M12.216797,21.5c5.661133,0,8.757812-5.000977,8.757812-9.339844
	c0-0.140625-0.003906-0.282227-0.010742-0.423828c0.600586-0.46582,1.124023-1.037109,1.536133-1.692383
	c-0.550781,0.254883-1.144531,0.428711-1.766602,0.507812c0.636719-0.40625,1.12207-1.047852,1.354492-1.813477
	c-0.597656,0.375-1.255859,0.651367-1.955078,0.796875C19.570312,8.895508,18.771484,8.5,17.884766,8.5
	c-1.699219,0-3.076172,1.46875-3.076172,3.280273c0,0.262695,0.02832,0.512695,0.076172,0.75
	c-2.552734-0.138672-4.822266-1.447266-6.342773-3.432617C8.27832,9.583008,8.12793,10.145508,8.12793,10.75
	c0,1.139648,0.542969,2.141602,1.366211,2.733398c-0.501953-0.017578-0.976074-0.167969-1.391602-0.40918
	c-0.000977,0.008789-0.000977,0.023438-0.000977,0.039062c0,1.588867,1.061035,2.916992,2.472656,3.21582
	c-0.261719,0.076172-0.533691,0.119141-0.816406,0.119141c-0.194336,0-0.38916-0.023438-0.575195-0.060547
	c0.390137,1.302734,1.526367,2.25293,2.874023,2.280273c-1.054688,0.878906-2.380371,1.40625-3.823242,1.40625
	c-0.248047,0-0.492676-0.015625-0.733398-0.046875C8.862305,20.955078,10.47998,21.5,12.217285,21.5"/>
</svg>
